<?xml version="1.0" encoding="UTF-8" standalone="no"?>
<!DOCTYPE svg PUBLIC "-//W3C//DTD SVG 1.1//EN" "http://www.w3.org/Graphics/SVG/1.1/DTD/svg11.dtd">
<svg width="100%" height="100%" viewBox="0 0 1130 1130" version="1.1" xmlns="http://www.w3.org/2000/svg" xmlns:xlink="http://www.w3.org/1999/xlink" xml:space="preserve" xmlns:serif="http://www.serif.com/" style="fill-rule:evenodd;clip-rule:evenodd;stroke-linejoin:round;stroke-miterlimit:2;">
    <g transform="matrix(1,0,0,1,-16894.9,-5527.6)">
        <g transform="matrix(6.12323e-17,-1,1,6.12323e-17,13737.3,23551.8)">
            <g transform="matrix(1,0,0,1,-1470.12,-1523.42)">
                <rect x="18365" y="4681" width="1129.33" height="1129.33" style="fill:white;"/>
            </g>
            <g transform="matrix(0.406729,0,0,1,9577.27,-1482.95)">
                <g transform="matrix(1.11461e-16,1.8203,-4.12939,2.52852e-16,37664.2,-27028.7)">
                    <path d="M17778,4392.92L17770.6,4390.92L17745.9,4390.92L17685.9,4557.06L17619.2,4407.6L17621.8,4402.93L17621.8,4393.59L17549.1,4384.92L17575.8,4442.96L17628.5,4589.08L17649.9,4639.12L17650.5,4645.8L17717.2,4640.46L17802,4417.61L17820,4390.92L17778,4392.92Z" style="fill-rule:nonzero;"/>
                </g>
                <g transform="matrix(1.50548e-16,-1,3.27587,8.15854e-17,4234.26,22908.4)">
                    <path d="M17715.9,4399.6L17703.2,4406.27L17709.2,4408.27L17709.2,4887.33L17790,4898.01L17796,4827.28L17796,4399.6L17715.9,4399.6Z" style="fill-rule:nonzero;"/>
                </g>
            </g>
        </g>
    </g>
</svg>
