<?xml version="1.0" encoding="UTF-8" standalone="no"?>
<!DOCTYPE svg PUBLIC "-//W3C//DTD SVG 1.1//EN" "http://www.w3.org/Graphics/SVG/1.1/DTD/svg11.dtd">
<svg width="100%" height="100%" viewBox="0 0 1834 1834" version="1.1" xmlns="http://www.w3.org/2000/svg" xmlns:xlink="http://www.w3.org/1999/xlink" xml:space="preserve" xmlns:serif="http://www.serif.com/" style="fill-rule:evenodd;clip-rule:evenodd;stroke-linejoin:round;stroke-miterlimit:2;">
    <g transform="matrix(1,0,0,1,6339.24,-2630.57)">
        <g>
            <g transform="matrix(1,0,0,1,106.758,134.569)">
                <rect x="-6446" y="2496" width="1833.94" height="1833.94"/>
            </g>
            <g transform="matrix(1,0,0,1,-6096,2763)">
                <path d="M1341.73,359.738L1304.13,264.938L1234.93,202.938L1187.13,151.538L1206.33,108.738L1297.33,102.138L1339.93,88.138L1312.33,63.538L1268.13,48.138L1196.53,2.138L1112.33,45.338L1150.13,210.138L1217.13,269.738L1262.93,317.538L1251.13,461.938L1130.33,500.738L847.325,419.538L473.925,526.138L306.125,564.138L126.525,586.538L5.725,697.938L7.325,766.738L116.525,843.738L163.525,837.938L256.725,795.938L340.725,804.538L396.325,835.938L520.925,875.738L546.925,894.738L405.125,1024.34L345.525,1092.34L333.125,1122.14L189.125,1328.54L146.925,1357.74L92.525,1380.14L94.525,1428.14L84.925,1467.34L69.725,1535.74L86.125,1566.94L107.125,1554.34L120.125,1527.34L171.525,1465.34L384.925,1175.14L425.925,1138.74L473.925,1080.94L588.925,987.938L677.725,948.738L587.525,1107.94L584.725,1161.94L638.325,1188.54L658.125,1179.34L666.525,1174.94L674.725,1170.74L693.525,1162.14L762.925,1140.14L809.925,1125.54L908.325,1095.14L931.525,1090.54L943.725,1099.94L961.325,1131.74L994.525,1139.54L1023.13,1147.54L1031.33,1154.54L1049.73,1163.74L1070.13,1159.34L1073.13,1139.34L1067.73,1128.54L1062.73,1120.74L1048.33,1097.94L1006.93,1035.34L940.125,1009.74L676.725,1089.54L792.725,940.138L846.525,915.738L1065.33,853.138L1131.13,686.138L1154.33,642.338L1304.93,507.538L1341.73,359.738Z" style="fill:white;fill-rule:nonzero;"/>
            </g>
        </g>
    </g>
</svg>
