<?xml version="1.0" encoding="UTF-8" standalone="no"?>
<!DOCTYPE svg PUBLIC "-//W3C//DTD SVG 1.1//EN" "http://www.w3.org/Graphics/SVG/1.1/DTD/svg11.dtd">
<svg width="100%" height="100%" viewBox="0 0 1834 1834" version="1.1" xmlns="http://www.w3.org/2000/svg" xmlns:xlink="http://www.w3.org/1999/xlink" xml:space="preserve" xmlns:serif="http://www.serif.com/" style="fill-rule:evenodd;clip-rule:evenodd;stroke-linejoin:round;stroke-miterlimit:2;">
    <g transform="matrix(1,0,0,1,5186.73,-22204.6)">
        <g>
            <g transform="matrix(1,0,0,1,1259.27,19708.6)">
                <rect x="-6446" y="2496" width="1833.94" height="1833.94"/>
            </g>
            <g transform="matrix(1,0,0,0.635934,1466.82,8414.86)">
                <path d="M-6126.19,23735.1L-6227.18,23777.1L-6357.68,23314.1L-6367,23031.3L-6150.56,22354.6L-6121.53,22506.2L-6266.02,22973.8L-6266.02,23331.2L-6126.19,23735.1Z" style="fill:white;fill-rule:nonzero;"/>
                <g transform="matrix(1,0,0,1.13708,215.447,-3138.88)">
                    <path d="M-6125.19,23800.7L-6227.18,23777.1L-6357.68,23314.1L-6367,23031.3L-6198.43,22396.5L-6122.4,22396.5L-6266.02,22973.8L-6266.02,23331.2L-6125.19,23800.7Z" style="fill:white;fill-rule:nonzero;"/>
                </g>
                <g transform="matrix(6.12323e-17,1.57249,-0.635934,6.12323e-17,8970.1,32146.8)">
                    <path d="M-6126.19,23735.1L-6227.18,23777.1L-6357.68,23314.1L-6367,23031.3L-6150.56,22354.6L-6121.53,22506.2L-6266.02,22973.8L-6266.02,23331.2L-6126.19,23735.1Z" style="fill:white;fill-rule:nonzero;"/>
                </g>
                <g transform="matrix(1,0,0,1.70394,-422.95,-16221.1)">
                    <path d="M-5248.37,23627.9L-5378.88,23627.9L-5378.88,22555.9L-5281,22555.9L-5248.37,23627.9Z" style="fill:white;fill-rule:nonzero;"/>
                </g>
                <g transform="matrix(6.12323e-17,1.57249,-1.08359,1.04336e-16,19285.7,31481.7)">
                    <path d="M-5248.37,23627.9L-5378.88,23627.9L-5378.88,22555.9L-5281,22555.9L-5248.37,23627.9Z" style="fill:white;fill-rule:nonzero;"/>
                </g>
                <g transform="matrix(4.99718e-17,1.28331,-0.930795,8.96236e-17,15765.6,29529.9)">
                    <path d="M-5248.37,23627.9L-5378.88,23627.9L-5378.88,22555.9L-5281,22555.9L-5248.37,23627.9Z" style="fill:white;fill-rule:nonzero;"/>
                </g>
                <g transform="matrix(4.99718e-17,1.28331,-0.930795,8.96236e-17,15765.6,30407.8)">
                    <path d="M-5248.37,23627.9L-5358.05,23646.3L-5378.88,22555.9L-5269.97,22608.5L-5248.37,23627.9Z" style="fill:white;fill-rule:nonzero;"/>
                </g>
                <g transform="matrix(1,0,0,1,-400,0)">
                    <path d="M-4946.96,22517.1L-4845.98,22475.1L-4715.47,22938.1L-4706.15,23220.9L-4922.59,23897.6L-4951.62,23746L-4807.13,23278.4L-4807.13,22921L-4946.96,22517.1Z" style="fill:white;fill-rule:nonzero;"/>
                </g>
                <g transform="matrix(1,0,0,1,-260.171,0)">
                    <path d="M-5334.81,22327.8L-5229.92,22282L-5054.84,23077.2L-5045.51,23359.9L-5261.96,24036.6L-5306.03,23924.4L-5146.5,23417.4L-5146.5,23060.1L-5334.81,22327.8Z" style="fill:white;fill-rule:nonzero;"/>
                </g>
                <g transform="matrix(6.12323e-17,1.57249,-0.635934,6.12323e-17,8970.1,31517.8)">
                    <path d="M-4946.96,22517.1L-4845.98,22475.1L-4715.47,22938.1L-4706.15,23220.9L-4922.59,23897.6L-4951.62,23746L-4807.13,23278.4L-4807.13,22921L-4946.96,22517.1Z" style="fill:white;fill-rule:nonzero;"/>
                </g>
            </g>
        </g>
    </g>
</svg>
