<?xml version="1.0" encoding="UTF-8" standalone="no"?>
<!DOCTYPE svg PUBLIC "-//W3C//DTD SVG 1.1//EN" "http://www.w3.org/Graphics/SVG/1.1/DTD/svg11.dtd">
<svg width="100%" height="100%" viewBox="0 0 532 588" version="1.1" xmlns="http://www.w3.org/2000/svg" xmlns:xlink="http://www.w3.org/1999/xlink" xml:space="preserve" xmlns:serif="http://www.serif.com/" style="fill-rule:evenodd;clip-rule:evenodd;stroke-linejoin:round;stroke-miterlimit:2;">
    <g transform="matrix(1,0,0,1,-11819.4,-3378.49)">
        <g>
            <path d="M12071.4,3379.49C12084.5,3376.44 12098.1,3381.18 12111.8,3382.68C12124.3,3384.06 12137.2,3387.38 12149.5,3392.13C12160.2,3396.29 12171.9,3397.82 12182.9,3401.46C12193.3,3404.88 12204,3407.72 12213.3,3413.51C12224.2,3420.26 12235.1,3427.32 12247.2,3431.43C12264.7,3437.36 12278.5,3447.98 12289.3,3462.22C12296.1,3471.23 12300,3481.59 12302.1,3493.59C12304.5,3506.99 12305.7,3520.7 12308.8,3534.09C12310.3,3540.5 12311.9,3547.22 12312.5,3554.02C12313.3,3563.1 12316.3,3571.78 12319.8,3580.29C12322.3,3586.48 12324,3592.99 12326.1,3599.36C12328.4,3606.58 12330.9,3613.77 12333.1,3621.05C12334.5,3625.85 12336.2,3630.74 12336.6,3635.68C12337.6,3648 12343.1,3658.85 12346.9,3670.27C12350.5,3680.93 12353.4,3691.73 12348.3,3702.83C12348,3703.48 12347.8,3704.3 12347.9,3704.97C12349.7,3715.14 12345.6,3724.77 12344.5,3734.62C12343.3,3745.25 12338.2,3755.45 12334.7,3765.8C12332,3773.96 12329,3782.04 12326.3,3790.22C12322.8,3800.89 12316.9,3810.27 12311,3819.73C12304.1,3831.03 12297.4,3842.52 12290.1,3853.58C12282.5,3865.06 12273.8,3875.69 12261.9,3883.22C12255,3887.58 12248.8,3893.02 12241.7,3897C12233,3901.88 12224,3906.19 12214.8,3909.91C12204.7,3913.96 12194.4,3917.49 12184,3920.43C12173,3923.54 12162.4,3927.72 12151.9,3932.17C12141.3,3936.69 12130.6,3941.29 12119.8,3945.24C12112.4,3947.89 12104.6,3949.15 12097.2,3951.62C12089.1,3954.35 12080.3,3954.8 12072.5,3959.07C12069,3961.01 12064.8,3960.63 12060.8,3961.89C12045.7,3966.69 12029.6,3966.94 12014.2,3964.72C12003,3963.11 11991.2,3960.71 11980.9,3956.24C11970.9,3951.84 11960.5,3948.11 11950.3,3944.3C11930.5,3936.91 11917,3922.38 11904,3907.56C11893.7,3895.87 11884.4,3882.8 11878,3868.41C11875.8,3863.39 11875.2,3856.84 11875,3851.35C11874.4,3835.3 11870.3,3819.84 11868.3,3804.08C11865.5,3782.05 11866.3,3760.14 11867.4,3738.37C11867.9,3728.9 11868,3719.03 11869.5,3709.53C11871.7,3696.14 11873.3,3682.69 11875.2,3669.3C11876.6,3658.74 11877.3,3647.78 11880.4,3637.65C11885.2,3621.97 11884.9,3605.34 11890.6,3589.92C11891.7,3586.91 11891.7,3583.43 11891.9,3580.15C11892,3579.51 11890.9,3578.5 11890.1,3578.14C11888.6,3577.48 11887.3,3578.11 11886.1,3579.3C11872.7,3593.01 11861,3608.12 11854,3626.11C11849.4,3638.08 11844.9,3650.11 11839.1,3661.56C11836.7,3666.3 11832.1,3666.9 11827.8,3664.08C11821.8,3660.12 11818.5,3654.8 11819.6,3646.96C11823.7,3617.45 11821.6,3587.7 11822.8,3558.09C11823.1,3550.98 11829.5,3544.78 11833.6,3538.4C11842,3525.53 11851.6,3513.58 11863.8,3504.51C11877,3494.59 11885.5,3480.64 11897.3,3469.49C11904.2,3462.89 11908.1,3452.96 11915.8,3446.84C11928.8,3436.45 11940.4,3424.12 11955,3415.67C11969.6,3407.17 11984.2,3398.38 11999.4,3390.99C12006.8,3387.39 12015.5,3386.28 12023.8,3384.79C12039.2,3382 12054.4,3377.7 12071.4,3379.49ZM12270.3,3699.27C12271.9,3697.85 12271.8,3696.63 12271.2,3695.7C12261.5,3678.75 12263.1,3661.21 12268.9,3643.67C12271.2,3636.48 12272,3629.08 12273.1,3621.74C12274.8,3610.15 12265.8,3600.75 12254,3600.88C12247.1,3600.95 12240.9,3603.74 12234.7,3606.28C12224,3610.65 12214.3,3617.32 12203.2,3620.92C12192.2,3624.5 12181.3,3628.26 12169.9,3630.47C12166.2,3631.18 12161.8,3632.88 12159.6,3628.9C12157.1,3624.33 12161.4,3621.5 12164.3,3618.69C12167.2,3615.81 12170.3,3613.11 12173.2,3610.24C12179.1,3604.5 12185.3,3599.04 12190.7,3592.82C12198.2,3584.1 12206.1,3575.68 12208.6,3563.61C12212.8,3542.84 12192.5,3523.21 12172.2,3529.9C12159.6,3534.05 12146.8,3538.97 12136.9,3548.42C12120.2,3564.42 12099.3,3571.17 12077.4,3573.47C12050.4,3576.32 12023.5,3579.11 11997.6,3587.77C11970.5,3596.86 11953.7,3614.8 11951.3,3644.27C11950.7,3652.08 11950.4,3660 11950.9,3667.81C11952.4,3690.56 11952.9,3713.27 11950.6,3735.98C11949.8,3743.59 11951.1,3750.85 11953.2,3758.08C11955.7,3767.07 11962.6,3773.08 11968.2,3780.02C11969.9,3782.14 11972.8,3783.1 11975.1,3780.89C11977.8,3778.36 11975.3,3776.06 11973.9,3774.06C11972.4,3771.93 11970.3,3770.25 11968.8,3768.12C11960.6,3756.51 11961.9,3745.62 11972.6,3736.86C11974.9,3735.02 11974.5,3733.03 11973.9,3730.89C11972.8,3726.57 11971.5,3722.29 11970.4,3717.98C11965.7,3700.6 11963.8,3683.27 11973.3,3666.78C11980.1,3654.86 11986.8,3642.79 11994.7,3631.59C12006.7,3614.5 12023,3603.5 12044.6,3602.29C12049.9,3602 12057.7,3600.4 12059.2,3607.08C12060.4,3612.74 12055.2,3618.01 12049.9,3621.07C12038.7,3627.49 12031.4,3637.61 12025.7,3648.35C12012,3673.76 12005.9,3701.15 12008.6,3730.06C12011.7,3762.23 12027.2,3788.97 12047.5,3812.85C12064.3,3832.51 12081.2,3851.9 12093.6,3874.69C12094.5,3876.25 12095.2,3878.17 12097.9,3878.1C12101.2,3872.68 12096.9,3866.09 12099.6,3859.72C12104.8,3862.93 12102.7,3869.35 12107.3,3872.04C12108.4,3860.16 12104.3,3848.97 12104.6,3837.32C12113.2,3849.66 12110.9,3865.44 12116.9,3879.99C12119.9,3873.43 12118.9,3867.66 12120.4,3862.48C12124.7,3862.52 12122.7,3868.9 12128.2,3868.83L12128.2,3850.03C12133.4,3847.35 12131.5,3854.95 12136,3853.09C12134.5,3828.75 12129.8,3804.98 12124.9,3781.23C12119.2,3753.99 12119.7,3727.12 12130.5,3700.97C12134.3,3691.66 12139.9,3684.33 12149.4,3679.91C12167.4,3671.54 12183.9,3660.71 12198.9,3647.48C12206.1,3641.05 12214.1,3635.38 12221.8,3629.54C12224.9,3627.21 12228.8,3625.57 12232,3628.74C12235.7,3632.26 12232.6,3636.15 12230.6,3638.79C12226.6,3643.81 12221.2,3647.16 12215.4,3649.92C12211,3651.98 12207.2,3654.58 12204,3659.52C12203.6,3660.09 12203.6,3660.85 12204.1,3661.39C12204.5,3661.92 12205.2,3662.12 12205.9,3661.86C12211.5,3659.65 12216.2,3657.76 12220.9,3656.08C12232.8,3651.86 12240.5,3655.94 12243.5,3668.18C12244.9,3673.6 12245.3,3679.29 12246.8,3684.64C12248.6,3690.59 12250.2,3696.88 12256.3,3700.33C12258.1,3698.81 12255.1,3692.37 12254.8,3691.01C12254.4,3688.78 12253.7,3686.32 12256.3,3685.16C12258.9,3684.01 12260.2,3686.43 12261.8,3687.9C12264,3689.87 12266.9,3698.14 12270.3,3699.27ZM12213,3687.64L12181.4,3757.78L12194.3,3752.75L12203,3749.25C12202.6,3749.82 12202.3,3750.41 12201.9,3751.01C12193.1,3765.71 12180.6,3785.78 12180.6,3785.78L12172.7,3798.9L12187.1,3793.89L12196.9,3790.38C12195.8,3792.49 12172.3,3843.64 12172.3,3843.64L12219.9,3771.05L12206.6,3775.67L12197.5,3778.7C12201.5,3771.86 12206.5,3763.4 12210.7,3756.28C12215.7,3747.86 12219.8,3741.33 12219.8,3741.33L12227.7,3728.21L12213.4,3733.78L12203.5,3737.52C12203.5,3737.52 12225.6,3693.64 12225.6,3693.64L12228.6,3687.31L12213,3687.64ZM12235.6,3732.03L12230.1,3768.08L12240.6,3759.17L12246.9,3753.53C12246.4,3755.78 12246,3758.14 12245.5,3760.49C12243.1,3771.7 12240.5,3782.83 12240.5,3782.83L12237.6,3797.1L12249.2,3788.35L12253.4,3785.2C12252.9,3788.2 12248.2,3831.64 12248.2,3831.64L12267,3773.31L12270.3,3758.75L12258.4,3767.71L12253.9,3771.11C12254.4,3768.38 12254.9,3765.46 12255.5,3762.54C12257.8,3751.32 12260.5,3728.6 12260.5,3728.6L12243.9,3741.31C12243.9,3741.31 12244.5,3729.84 12244.5,3729.84L12244.9,3722.85L12236,3725.04L12235.6,3732.03ZM12262.7,3718.35L12276.7,3735.48L12283,3725.75C12283.9,3728.33 12290.3,3752.99 12290.3,3752.99L12294,3762.35L12298.4,3755.89L12301.7,3750.83C12302.2,3752.27 12302.8,3753.85 12303.5,3755.51C12308.3,3767.21 12315,3780.67 12315,3780.67C12315,3780.67 12311.9,3763.7 12308.9,3751.43C12307.1,3744.51 12305.3,3739.21 12305.3,3739.21L12302.9,3731.93L12298.6,3738.27L12295.1,3743.22C12293.2,3738.01 12283.7,3705.34 12283.7,3705.34L12273.3,3718.19C12273.3,3718.19 12265.7,3709.34 12265.7,3709.34L12259.7,3714.36L12262.7,3718.35ZM12191.1,3579.5C12191,3586.09 12182.9,3594.02 12176.3,3593.93C12171.2,3593.86 12168.8,3590.81 12168.6,3586.15C12168.4,3580.97 12178.7,3571.21 12183.8,3571.32C12187.9,3571.41 12191.1,3575.02 12191.1,3579.5ZM12167.6,3566.75C12167.1,3572.47 12158,3581.77 12152.7,3582.58C12148.7,3583.2 12145,3582.11 12142.8,3578.98C12140.4,3575.59 12143.5,3572.8 12145.5,3570.3C12149.2,3565.52 12153.6,3561.71 12160.1,3561.09C12164.9,3560.64 12167,3562.9 12167.6,3566.75Z" style="fill:white;fill-rule:nonzero;"/>
        </g>
    </g>
</svg>
