<?xml version="1.0" encoding="UTF-8" standalone="no"?>
<!DOCTYPE svg PUBLIC "-//W3C//DTD SVG 1.1//EN" "http://www.w3.org/Graphics/SVG/1.1/DTD/svg11.dtd">
<svg width="100%" height="100%" viewBox="0 0 175 98" version="1.1" xmlns="http://www.w3.org/2000/svg" xmlns:xlink="http://www.w3.org/1999/xlink" xml:space="preserve" xmlns:serif="http://www.serif.com/" style="fill-rule:evenodd;clip-rule:evenodd;stroke-linejoin:round;stroke-miterlimit:2;">
    <g transform="matrix(1,0,0,1,-1922.83,314.046)">
        <g transform="matrix(0.127362,0,0,0.127362,1915.55,-403.488)">
            <g transform="matrix(1,0,0,1,312.967,1290.33)">
                <path d="M0,-313.518C-0.624,-313.151 -1.248,-312.783 -1.872,-312.416C-7.327,-277.39 -7.142,-240.65 -21.731,-207.482C-23.789,-202.672 -27.531,-200.583 -32.743,-201.781C-47.018,-205.138 -61.217,-208.823 -75.536,-212.001C-72.35,-203.255 -61.834,-201.203 -56.945,-193.936C-49.997,-185.13 -43.309,-185.186 -32.913,-188.305C-9.81,-194.649 14.054,-199.66 37.858,-202.92C27.052,-240.067 21.152,-280.655 0,-313.518M-21.501,-130.379C-12.967,-104.925 -2.669,-76.747 24.477,-68.681C30.077,-67.028 33.472,-63.206 36.564,-58.136C48.483,-38.59 60.846,-19.308 73.429,-0.181C80.143,9.687 94.584,18.506 87.735,32.182C69.211,69.089 29.844,90.629 12.241,128.299C4.145,145.104 -1.983,160.563 -13.964,175.746C-38.112,140.815 -55.227,103.581 -75.358,66.552C-110.827,3.168 -133.962,-65.705 -162.089,-132.435C-165.636,-142.528 -170.766,-156.407 -163.471,-165.718C-147.494,-178.262 -131.788,-191.071 -114.843,-202.332C-133.815,-237.249 -170.409,-232.779 -171.94,-261.922C-172.893,-273.204 -174.91,-284.403 -175.634,-295.691C-176.297,-306.024 -175.934,-316.429 -175.843,-326.8C-175.734,-332.203 -173.115,-338.266 -178.095,-342.362C-197.077,-360.885 -218.343,-378.406 -227.777,-404.024C-238.651,-431.722 -251.994,-459.66 -255.8,-489.264C-254.156,-488.927 -252.309,-488.962 -250.903,-488.193C-222.228,-470.937 -191.164,-458.191 -159.507,-447.313C-152.822,-445.112 -146.63,-440.22 -141.29,-435.374C-114.624,-413.205 -82.99,-399.042 -50.62,-387.784C-26.084,-376.795 1.112,-369.925 21.077,-350.966C53.371,-322.327 92.227,-303.541 129.554,-282.625C131.133,-281.736 132.691,-279.665 133.029,-277.907C136.58,-250.191 145.19,-223.313 148.081,-195.563C148.02,-172.368 152.494,-174.265 128.503,-175.605C95.064,-170.741 59.971,-169.122 27.422,-163.131C20.136,-161.363 12.312,-161.82 4.527,-160.672C19.681,-157.941 35.048,-154.517 50.42,-153.921C79.034,-151.127 111.409,-175.889 136.382,-153.791C161.106,-132.32 185.706,-110.648 209.775,-88.446C220.119,-77.697 231.956,-67.737 217.019,-52.274C210.614,-44.745 203.714,-37.582 196.559,-30.755C177.455,-12.598 169.868,13.389 153.014,33.152C147.153,40.06 142.312,39.977 136.233,32.522C122.381,15.537 108.146,-1.137 94.33,-18.151C81.808,-33.719 70.572,-50.303 58.667,-66.339C54.484,-71.047 46.169,-76 51.937,-82.94C60.941,-94.636 67.732,-106.058 75.521,-119.138C73.408,-119.466 72.624,-119.806 71.945,-119.66C18.514,-106.464 27.823,-111.02 -21.501,-130.379" style="fill:white;fill-rule:nonzero;"/>
            </g>
            <g transform="matrix(1,0,0,1,969.936,1292.34)">
                <path d="M0,-172.143C-11.697,-165.982 -23.364,-159.886 -34.958,-153.655C-36.143,-153.019 -37.084,-151.69 -37.816,-150.487C-57.689,-117.806 -76.379,-86.569 -96.765,-53.774C-122.085,-76.181 -137.807,-104.805 -154.094,-133.107C-165.513,-132.538 -177.09,-131.962 -188.667,-131.385C-188.865,-130.935 -189.062,-130.485 -189.26,-130.034C-145.244,-108.108 -163.074,-116.851 -154.656,-73.585C-153.656,-68.039 -149.805,-64.033 -145.003,-60.498C-135.62,-53.589 -126.828,-45.864 -117.976,-38.26C-116.724,-37.185 -115.908,-34.89 -115.927,-33.171C-116.029,-21.298 -118.295,-8.912 -114.662,2.635C-113.088,7.427 -114.357,11.443 -116.381,15.216C-128.005,36.883 -139.528,58.618 -151.812,79.912C-163.495,98.149 -177.002,115.224 -185.409,135.427C-186.789,138.181 -187.804,139.108 -190.92,136.927C-213.11,119.944 -238.616,107.899 -259.026,88.974C-274.231,77.649 -275.086,60.856 -270.585,43.681C-269.357,21.899 -270.743,-0.009 -269.935,-21.794C-269.315,-35.384 -259.416,-42.907 -249.684,-50.393C-240.032,-57.817 -230.905,-65.973 -220.907,-72.881C-212.865,-78.438 -212.342,-84.669 -214.561,-93.423C-217.306,-104.253 -218.268,-115.536 -220.057,-126.981C-231.817,-123.974 -244.887,-119.875 -254,-130.402C-258.889,-136.446 -268.47,-142.35 -265.129,-151.342C-264.546,-152.597 -264.809,-154.286 -264.835,-155.773C-265.147,-173.871 -266.395,-192.012 -265.51,-210.05C-264.894,-222.587 -260.031,-229.96 -245.698,-230.724C-220.99,-231.274 -196.513,-233.593 -172.146,-237.604C-160.027,-238.496 -147.843,-238.663 -135.804,-240.634C-134.744,-240.726 -133.332,-239.755 -132.485,-238.883C-122.474,-228.572 -112.489,-218.234 -102.645,-207.764C-101.295,-206.328 -100.072,-204.189 -99.931,-202.291C-98.376,-181.295 -94.449,-160.811 -86.853,-140.377C-83.112,-157.025 -81.782,-173.656 -79.951,-190.528C-79.18,-199.641 -74.644,-206.858 -70.577,-214.535C-63.75,-227.42 -57.303,-240.51 -50.907,-253.616C-48.416,-260.24 -24.374,-263.623 -16.605,-267.8C5.076,-275.643 27.499,-280.826 50.125,-284.444C77.755,-289.281 101.866,-300.562 127.516,-311.251C131.761,-290.682 133.762,-270.051 142.204,-250.634C152.42,-234.864 140.056,-220.461 135.175,-205.751C130.606,-194.543 120.797,-189.609 110.432,-185.821C88.692,-176.539 64.717,-178.01 41.647,-174.571C28.939,-163.142 36.701,-133.039 36.54,-116.729C93.628,-117.847 74.041,-119.277 89.277,-48.041C91.735,-24.727 108.758,2.174 88.648,22.198C72.028,37.701 52.067,47.915 33.625,60.525C13.247,74.435 -3.803,90.3 -22.526,106.987C-43.362,67.216 -64.215,28.356 -84.799,-11.425C-88.153,-17.909 -90.238,-24.851 -85.793,-32.422C-77.635,-43.91 -75.126,-60.207 -63.445,-68.694C-56.368,-74.437 -34.907,-82.543 -32.931,-90.16C-31.686,-97.849 -30.177,-105.583 -29.994,-113.33C-29.678,-136.447 -9.309,-152.406 0,-172.143" style="fill:white;fill-rule:nonzero;"/>
            </g>
            <g transform="matrix(1,0,0,1,1204.33,789.516)">
                <path d="M0,662.411C-19.618,625.443 -37.702,587.698 -54.891,549.545C-57.14,542.296 -61.629,532.423 -56.104,525.66C-42.22,503.659 -34.304,476.813 -14.901,458.981C-7.657,451.941 0.425,445.7 2.168,434.989C-25.864,445.16 -48.942,463.196 -74.98,477.14C-87.238,484.101 -98.574,493.056 -114.074,496.023C-127.184,460.228 -136.469,423.036 -147.021,386.409C-147.545,384.531 -147.083,381.724 -145.962,380.142C-136.103,366.245 -126.449,352.154 -115.708,338.956C-106.131,329.598 -91.224,325.177 -80.72,316.652C-75.299,312.33 -71.015,306.568 -66.3,301.376C-54.771,287.722 -41.138,276.171 -32.095,260.504C-43.781,264.021 -63.457,278.115 -70.226,260.977C-77.876,238.641 -76.772,215.259 -76.116,192.034C-74.977,181.975 -77.413,168.245 -67.526,162.073C-23.588,136.64 22.251,114.6 66.521,89.858C101.917,67.806 136.081,43.555 171.877,22.036C186.859,11.23 197.823,1.585 217.255,0.159C219.745,-0.261 222.771,-0.201 221.395,3.952C212.204,31.671 203.128,59.428 193.689,87.062C186.532,104.141 179.785,121.167 176.802,139.568C173,150.626 174.818,165.522 165.043,173.365C143.156,189.095 116.59,192.922 90.644,196.336C86.166,197.426 81.925,200.494 78.181,203.439C44.408,231.192 11.927,261.144 -15.6,295.132C-16.488,296.274 -16.838,299.107 -16.071,300.067C-9.536,308.242 -6.76,318.088 -2.996,327.552C2.368,341.04 8.746,354.136 13.775,367.738C16.444,374.954 17.282,382.866 18.741,390.502C19.339,393.628 23.325,395.402 27.617,394.879C40.562,393.299 49.108,385.821 55.832,375.247C67.278,358.403 78.898,341.29 85.385,321.752C88.122,307.557 118.51,297.618 131.524,288.307C135.076,311.933 137.125,334.427 138.684,358.028C139.694,385.548 145.048,413.609 132.79,439.513C110.164,492.609 68.969,535.505 40.953,585.781C27.479,611.017 16.189,637.607 2.223,662.672C1.482,662.585 0.741,662.498 0,662.411" style="fill:white;fill-rule:nonzero;"/>
            </g>
            <g transform="matrix(1,0,0,1,564.328,1021.82)">
                <path d="M0,412.663C-14.245,392.89 -30.588,375.053 -48.634,358.7C-59.294,348.718 -68.627,337.864 -74.831,324.515C-78.757,317.45 -86.566,312.124 -80.471,303.69C-68.623,286.275 -21.536,202.714 2.682,228.125C13.631,238.722 32.865,247.351 29.008,265.615C23.394,286.343 34.047,302.446 40.337,322.431C48.704,308.215 51.287,293.55 57.492,278.66C61.09,269.361 59.739,261.492 52.75,254.198C42.671,243.677 33.051,232.705 22.758,222.403C-5.124,198.475 -27.82,169.905 -52.574,142.94C-92.663,101.98 -86.036,106.206 -95.128,50.543C-96.465,37.766 -96.618,24.793 -97.179,11.942C-97.342,5.072 -95.501,3.674 -88.481,2.722C-68.41,0 -49.418,3.175 -30.275,9.859C0.597,20.458 32.573,27.642 65.216,29.866C81.015,32.095 96.683,35.306 112.511,37.242C122.437,38.155 127.368,46.696 127.684,55.579C128.211,77.863 128.478,100.153 128.771,122.441C128.865,129.606 126.674,131.98 119.212,131.697C98.033,130.98 77.081,127.425 57.709,118.684C54.79,117.548 51.85,115.48 49.886,113.057C40.739,101.562 32.114,89.627 23.437,77.767C17.573,70.028 12.868,87.279 10.908,91.133C6.072,106.24 1.497,121.437 -2.812,136.702C-5.596,147.243 -4.781,154.019 5.42,159.53C18.47,150.885 32.779,144.837 46.603,137.608C50.682,135.579 54.643,134.231 59.656,135.632C75.649,139.88 92.098,143.894 108.102,147.666C120.791,146.679 126.289,156.426 132.135,164.495C134.361,167.567 132.954,173.56 132.572,178.17C130.727,194.853 129.028,211.635 126.626,228.236C124.322,241.345 121.117,254.298 118.922,267.422C117.867,273.73 112.692,275.994 108.792,278.907C91.766,291.624 79.788,307.886 70.473,326.867C63.537,341.001 54.901,354.362 46.264,367.572C32.099,383.638 15.356,397.122 0,412.663" style="fill:white;fill-rule:nonzero;"/>
            </g>
            <g id="RSMC-LINK-R">
                <g transform="matrix(1,0,0,1,1291.88,774.313)">
                    <path d="M0,-56.752C-21.06,-57.891 -50.238,-41.243 -49.762,-19.137C-48.045,-4.421 -41.583,11.826 -29.666,20.987C7.984,37.644 35.295,-7.791 29.158,-40.22C27.891,-50.138 8.284,-57.964 0,-56.752M-65.064,-20.823C-70.717,-74.277 39.052,-95.96 42.99,-36.049C45.236,-4.468 27.314,34.601 -6.587,39.208C-15.944,37.989 -25.41,37.055 -34.533,34.794C-41.002,33.19 -45.713,27.945 -49.12,22.291C-57.973,9.408 -65.508,-4.557 -65.064,-20.823" style="fill:white;fill-rule:nonzero;"/>
                </g>
                <g transform="matrix(1,0,0,1,1269.24,770.073)">
                    <path d="M2.379,-23.803C1.975,-12.407 -1.013,-9.02 10.774,-12.592C15.623,-13.814 21.403,-14.533 22.866,-20.918C15.444,-25.413 10.296,-25.845 2.379,-23.803M18.488,-4.235C21.077,-3.096 22.331,-2.544 23.803,-1.896C22.323,5.192 19.049,12.767 17.551,19.938C16.959,20.073 18.143,19.803 17.551,19.938C15.898,9.581 15.989,-0.495 3.242,-3.746C4.164,3.342 5.385,19.164 4.785,19.288C-1.147,6.04 -9.621,-7.647 -12.84,-21.782C-14.194,-27.726 -15.515,-28.803 -10.1,-31.872C2.04,-39.915 39.812,-43.185 34.811,-20.424C33.627,-11.325 27.925,-5.755 18.488,-4.235" style="fill:white;fill-rule:nonzero;"/>
                </g>
            </g>
        </g>
    </g>
</svg>
