<?xml version="1.0" encoding="UTF-8" standalone="no"?>
<!DOCTYPE svg PUBLIC "-//W3C//DTD SVG 1.1//EN" "http://www.w3.org/Graphics/SVG/1.1/DTD/svg11.dtd">
<svg width="100%" height="100%" viewBox="0 0 1834 1834" version="1.1" xmlns="http://www.w3.org/2000/svg" xmlns:xlink="http://www.w3.org/1999/xlink" xml:space="preserve" xmlns:serif="http://www.serif.com/" style="fill-rule:evenodd;clip-rule:evenodd;stroke-linejoin:round;stroke-miterlimit:2;">
    <g transform="matrix(1,0,0,1,3671.68,-2630.57)">
        <g>
            <g transform="matrix(1,0,0,1,2774.32,134.569)">
                <rect x="-6446" y="2496" width="1833.94" height="1833.94"/>
            </g>
            <g transform="matrix(1.11421,0,0,1.11421,1546.44,-892.004)">
                <path d="M-3605.98,3974.26L-3616.2,3975.97L-3634.09,3969.16L-3253.42,3371.33L-3537,3371.33L-3570.22,3442.86L-3644.31,3562.09L-3674.96,3635.33L-3746.5,3768.18L-3986.65,3378.14L-4520.79,3357.7L-4127.35,3955.53L-4520.79,4607.86L-4257.64,4607.86L-3994.5,4221.23L-3979.17,4238.26L-3986.83,4253.59L-3945.96,4255.29L-3948.51,4279.14L-3928.07,4287.65L-3902.52,4291.06L-3710.91,4572.09L-3700.69,4602.75L-3667.48,4611.27L-3562.73,4611.27L-3199.77,4595.94L-3605.98,3974.26Z" style="fill:white;fill-rule:nonzero;"/>
                <g transform="matrix(0.862348,0,0,0.862348,-771.23,675.304)">
                    <path d="M-3105.66,4440.34L-3450.56,3828.89L-3601.3,3597.25L-3603.85,3570L-3759.7,3350.29L-3752.03,3329.85L-3772.47,3326.44L-3772.47,3300.9L-3787.8,3297.49L-3803.13,3271.94L-3808.24,3241.28L-4058.61,3234.47L-4058.61,3261.72L-3935.98,3476.33L-3935.98,3489.95L-3348.37,4440.34L-3105.66,4440.34Z" style="fill-rule:nonzero;"/>
                </g>
            </g>
        </g>
    </g>
</svg>
