<?xml version="1.0" encoding="UTF-8" standalone="no"?>
<!DOCTYPE svg PUBLIC "-//W3C//DTD SVG 1.1//EN" "http://www.w3.org/Graphics/SVG/1.1/DTD/svg11.dtd">
<svg width="100%" height="100%" viewBox="0 0 1130 1130" version="1.1" xmlns="http://www.w3.org/2000/svg" xmlns:xlink="http://www.w3.org/1999/xlink" xml:space="preserve" xmlns:serif="http://www.serif.com/" style="fill-rule:evenodd;clip-rule:evenodd;stroke-linejoin:round;stroke-miterlimit:2;">
    <g transform="matrix(1,0,0,1,-16894.9,-4693.44)">
        <g>
            <g transform="matrix(1,0,0,1,29.0041,2.72848e-12)">
                <g transform="matrix(4.53344e-17,-1.8203,0.819099,1.23314e-16,13775.4,37426.8)">
                    <g>
                        <text x="17522.4px" y="4892px" style="font-family:'ChineseRocksRg-Regular', 'Chinese Rocks';font-size:667.216px;fill:white;">V</text>
                    </g>
                </g>
                <g transform="matrix(6.12323e-17,-1,1.33061,8.14764e-17,11236.3,23013.7)">
                    <path d="M17802,4763.23L17803.3,4738.54L17801.3,4691.17L17801.3,4473.66L17792,4393.59L17770.6,4395.59L17715.2,4395.59L17710.6,4420.28L17710.6,4494.34L17706.6,4507.02L17711.9,4513.69L17707.9,4521.03L17706.6,4535.04L17710.6,4537.71L17708.6,4540.38L17706.6,4584.41L17708.6,4612.44L17704.6,4619.11L17709.2,4625.78L17709.2,4686.5L17706.6,4691.84L17710.6,4807.93L17710.6,4851.3L17706.6,4860.64L17715.2,4892.67L17800,4892.67L17797.3,4890.67L17797.3,4865.98L17801.3,4866.65L17801.3,4785.24L17806.6,4765.9L17802,4763.23Z" style="fill:white;fill-rule:nonzero;"/>
                </g>
            </g>
            <g transform="matrix(1,0,0,1,-1470.12,12.4387)">
                <rect x="18365" y="4681" width="1129.33" height="1129.33" style="fill:none;"/>
            </g>
        </g>
    </g>
</svg>
