<?xml version="1.0" encoding="UTF-8" standalone="no"?>
<!DOCTYPE svg PUBLIC "-//W3C//DTD SVG 1.1//EN" "http://www.w3.org/Graphics/SVG/1.1/DTD/svg11.dtd">
<svg width="100%" height="100%" viewBox="0 0 1000 1000" version="1.1" xmlns="http://www.w3.org/2000/svg" xmlns:xlink="http://www.w3.org/1999/xlink" xml:space="preserve" xmlns:serif="http://www.serif.com/" style="fill-rule:evenodd;clip-rule:evenodd;stroke-linecap:square;stroke-miterlimit:1.5;">
    <g transform="matrix(1,0,0,1,1.13687e-13,-12284)">
        <g id="PROJECT_SPARTACUS_WAR_LOG_" transform="matrix(0.244141,0,0,0.244141,-435.791,9284.98)">
            <rect x="1785" y="12284" width="4096" height="4096" style="fill:rgb(172,182,192);"/>
            <clipPath id="_clip1">
                <rect x="1785" y="12284" width="4096" height="4096"/>
            </clipPath>
            <g clip-path="url(#_clip1)">
                <g id="BACKGROUND_STROKE" transform="matrix(1,0,0,1,617,0)">
                    <rect x="1168" y="12284" width="4096" height="4096" style="fill:rgb(172,182,192);stroke:black;stroke-width:85.33px;"/>
                </g>
                <g id="WAR_LOG_-" serif:id="WAR_LOG_#">
                    <g transform="matrix(7.67317,0,0,4.096,-15973.2,-38031.3)">
                        <rect x="2325" y="13244" width="150" height="20"/>
                    </g>
                    <g transform="matrix(4.096,0,0,4.096,-5577,-37973.9)">
                        <text x="1825px" y="13247.9px" style="font-family:'ArialUnicodeMS', 'Arial Unicode MS', sans-serif;font-size:22.222px;fill:rgb(172,182,192);">W<tspan x="1846.44px 1861.73px 1878.25px 1922.08px 1934.9px 1952.65px 1970.41px 2014.24px 2027.07px 2039.89px 2052.72px 2065.54px 2078.37px " y="13247.9px 13247.9px 13247.9px 13247.9px 13247.9px 13247.9px 13247.9px 13247.9px 13247.9px 13247.9px 13247.9px 13247.9px 13247.9px ">AR LOG #00001</tspan></text>
                    </g>
                </g>
                <g id="WAR_LOG_-1" serif:id="WAR_LOG_#" transform="matrix(1,0,0,1,2781.28,0)">
                    <g transform="matrix(6.48594,0,0,4.096,-13034.8,-38031.3)">
                        <rect x="2325" y="13244" width="150" height="20"/>
                    </g>
                    <g transform="matrix(4.096,0,0,4.096,-5405.63,-37973.9)">
                        <text x="1825px" y="13247.9px" style="font-family:'ArialUnicodeMS', 'Arial Unicode MS', sans-serif;font-size:22.222px;fill:rgb(172,182,192);">I<tspan x="1831.64px 1869.01px 1884.3px 1903.28px 1940.65px 1955.93px 1971.22px 1986.51px 2001.8px 2018.32px 2036.07px " y="13247.9px 13247.9px 13247.9px 13247.9px 13247.9px 13247.9px 13247.9px 13247.9px 13247.9px 13247.9px 13247.9px "> AM ASSANGE</tspan></text>
                    </g>
                </g>
                <g id="NEST-SCROLLCONTENT-HERE" transform="matrix(4.18702,0,0,4.096,-5294.71,-38031.3)">
                    <rect x="1730" y="12324" width="900" height="900" style="fill:rgb(172,182,192);"/>
                </g>
            </g>
        </g>
    </g>
</svg>
