<?xml version="1.0" encoding="utf-8"?>
<!-- Generator: Adobe Illustrator 27.7.0, SVG Export Plug-In . SVG Version: 6.00 Build 0)  -->
<svg version="1.1" id="Layer_1" xmlns:serif="http://www.serif.com/"
	 xmlns="http://www.w3.org/2000/svg" xmlns:xlink="http://www.w3.org/1999/xlink" x="0px" y="0px" viewBox="0 0 400 400"
	 style="enable-background:new 0 0 400 400;" xml:space="preserve">
<style type="text/css">
	.st0{fill-rule:evenodd;clip-rule:evenodd;}
	.st1{fill:#010101;}
	.st2{fill:#FEFEFE;}
	.st3{fill:#FFFFFF;}
	.st4{fill:#FDFDFD;}
	.st5{fill:#FCFCFC;}
	.st6{fill:#030303;}
	.st7{fill:#020202;}
	.st8{fill:#070707;}
	.st9{fill-opacity:0;}
</style>
<g transform="matrix(1,0,0,1,294.417,-1153)">
	<g id="RSMC" transform="matrix(1,0,0,1,1851.58,2812)">
		<rect id="background" x="-2146" y="-1659" class="st0" width="400" height="400"/>
		<g id="full-logo" transform="matrix(1,0,0,1,-1988.45,-1569.35)">
			<g id="logo">
				<g transform="matrix(1,0,0,1,1353.96,795.529)">
					<path class="st1" d="M-1177.3-691.9c0.8-4.7,2.3-9.7-0.6-14c-3-7.6-11.2-8.8-18.3-6.9c-2.8,0.5-2.9-3.1-2.2-4.8
						c0.6-2.5,1.2-5.1,1-7.7c0-5.5,0.9-11,1.6-16.5c0.6-3.4,1.4-6.7,1.1-10.3c-0.9-13.4,0.9-27.4-4.4-40.1
						c-3.4-9.2-9.2-17.2-15.5-24.6c-5-6.7-10.9-12.8-17.8-17.7c-4.9-2.5-9.7-5.3-14.6-7.8c-5.3-2.4-10.8-4.3-15.7-7.3
						c-3.8-2.3-7.8-3.9-12.1-5c-11.6-2.4-22.8-6.9-34.9-6.3c-9.2-0.1-18.5,0.2-27.4,2.7c-8.9,2.2-17.8,4.5-26.3,7.8
						c-3.2,1.4-6,3.6-8.8,5.7c-2.4,1.7-5.2,3.1-7.4,5.1c-32.4,28.6-47.3,53.5-46.6,97.6c0.3,4.5,0.4,9,0.9,13.4
						c0.5,1.4,0.9,2.3-0.3,3.4c-3.9,3.9-7.7,7.9-11.3,11.9c-3,1.9-9.7-0.7-13.2-1.1c-0.4-0.1-1-0.2-1.1,0c-0.7,0.9-1.5,1.7-1.8,2.7
						c-1.7,5.5-3,11.2-4.7,16.7c-0.1,0.3-0.5,0.6-0.8,0.8c-1.7,1.1-3.7,0.5-5.5,0.7c-2.4,0.3-4.4-0.6-6.4-1.6
						c0.8,12.5,7.6,23.6,12.4,34.9c3.5,4,6.4,8.7,5.4,14.2c-0.7,4.5,0.3,8.8,2.7,12.5c7.4,12.3,7.6,6.8-4.6,17.9
						c4.1,6.3,6.3,14,9,21c2.3,5,4.1,10.2,6.5,15.1c8.9,17.1,21.5,32.4,28.9,50.2c3.9-6.4,9-12.1,13.6-17.9
						c5.2-5.7,6.2-7.1,10.6,0.2c4.7,7.3,6.2,16.6,11.1,23.6c3.4,1.5,7.2,0.4,10.7,0.4c6.3,0,12.6-0.4,18.9-1.1
						c22.9-0.9,45.8-0.6,68.6,0.4c10.5,0.4,21.1,0.9,31.6,0.5c1.6,0.1,3-0.2,3.9-1.7c3.3-3.8,2.5-8.8,3.3-13.5
						c0.6-4.9,1.4-9.8,2.4-14.7c0.3-4,5.4-9.4,8.6-4.9c6.3,8.2,10.6,17.3,15.9,26.2c5.4-9.2,10-18,15.4-27
						c7.7-11.7,16.5-22.9,20.3-36.7c2.4-5.8,2.7-12,2-18.2c-0.9-9.5-5.2-18.6-5.3-28.2c0.7-3.3,6.8-5,9.4-6.9
						c0.3-0.2,0.6-0.5,0.7-0.9c0.9-3.4,2-6.8,2.7-10.2c0.3-5,1.8-9.8,4.4-14c4.1-7.6,6-16.1,5.6-24.7c-6.5,1.9-12.7,4.5-19,6.7
						C-1175.8-691.3-1176.6-691.1-1177.3-691.9 M-1193.3-718c5.3-2,11.6-0.4,16,3c4.8,4.2,4.6,10.8,5.7,16.6
						c3.5-1.2,20.1-10.2,20.2-2.9c1,11.7-3.5,23-8.7,33.3c-1.4,3.4-1.7,7.4-2.5,11c-1,4.5,0.1,10.4-4.2,13.4c-1.6,1.1-3.3,2-5,2.9
						c-2.1,1.1-2.2,1.3-1.7,3.7c0.6,4.2,1.3,8.3,2.2,12.4c1.2,5.8,2.2,11.6,2.4,17.6c-0.6,19.5-13.9,35.6-23.6,51.6
						c-4,6.5-7.5,13.3-11.6,19.7c-2.8,3.7-4.2,8-6,12.2c-1.7,2.5-3.6-1.7-4.5-3c-5.4-9.3-9.9-19.1-15-28.6c-1.5,1.2-1.2,3-1.5,4.6
						c-1,6.4-2.1,12.8-2.9,19.3c-0.2,4.9-1.8,9.8-5.8,12.9c-0.9,0.8-2.4,1.1-3.7,1.3c-10.6,1.1-21.3,0.9-32,0.3
						c-25.1-1-50.3-2.8-75.3-0.2c-5,0.4-10,0.4-15,0.7c-5.4,0.6-12.6,1.2-14.8-5c-3.9-8.7-6.8-17.4-10.3-26.4
						c-5.7,9.2-13.8,16.2-18.3,26.2c-5.7-8.2-12.1-16-16.7-24.9c-5.4-9.6-12.3-18.3-17.2-28.2c-5-11.3-10.6-22.4-15.1-33.8
						c-0.8-2.1-2.3-3.8-3.2-5.8c-1.9-3-1.6-4.7,1.5-6.6c1.7-1.2,3.4-2.4,5.1-3.7c0.6-0.6,1.9-1.4,1.9-1.9c-1.1-3.6-4.7-6.3-5.2-10.3
						c-0.5-3.7,0.3-7.5,0.5-11.2c0.1-5.3-5.9-7.8-7.8-12.5c-1.6-2.4-2.9-5-4.2-7.6c-1.8-2.6-2.4-5.6-3.1-8.5
						c-1.4-6.2-3-12.4-3.9-18.7c-0.3-2.7,0.6-4.1,3.3-4.6c1.4-0.3,2.7,0.3,4,0.6c2.6,0.5,5.2,0.9,7.8,1.4c1.8-6.5,3.9-12.8,7.1-18.8
						c1.4-2.6,4.8-1.2,7.1-1.1c2.8,0.4,5.6,0.7,8.4,0.8c2.7-1.9,4.8-5.3,7.3-7.6c0.8-0.9,1-1.7,0.8-2.9c-1.2-6.8-0.9-13.6-0.9-20.4
						c0.8-23.4,7.7-47.3,21.8-66.2c16.1-21.3,38.3-39.3,64.2-46.8c13.5-2.2,26.9-5,40.7-4.1c6.1,0,12.3,0.4,18,2.7
						c8.8,2.7,18.3,3.1,26.3,8.1c4.4,2.4,9.1,4,13.7,5.8c5.3,2.4,10.4,5.5,15.6,8c5.6,3,9.8,7.8,14.4,12
						c6.5,7.1,12.5,14.7,17.9,22.7c4,6.4,7.3,13.5,8.9,20.9c1,6.2,1.2,12.5,1.5,18.8c0,8.5,1.4,17.1-0.7,25.4
						c-1.3,7.6-1.9,15.4-4.1,22.8C-1193.5-718-1193.4-718-1193.3-718"/>
				</g>
				<g transform="matrix(1,0,0,1,653.402,799)">
					<path class="st2" d="M-631.6-697.7c-0.1-0.1-0.1-0.2-0.2-0.2c-0.2,0.2-0.1,0.3,0.1,0.4C-631.7-697.6-631.7-697.7-631.6-697.7
						 M-565.4-533.6l0.5-0.1c0.5-4,1.1-8.1,1.5-12.1c0.1-1.3-1.4-2.2-2.6-1.7c-1,0.4-2.5,0.4-2.2,1.9
						C-567.7-541.6-566.6-537.6-565.4-533.6 M-558.3-544L-558.3-544c0.1,2.1,1.2,9.4,2.8,10.5c0.8-1,0.5-2.3,0.8-3.5
						c0.6-3,1.2-6,1.7-9c0.1-0.7,0.4-1.4-0.8-2c-1.3-0.6-2.3,0-3.4,0.1C-559-547.6-558.1-545.3-558.3-544 M-545.8-533.2
						c0.1,0,0.3,0,0.4,0c0.5-2.5,0.7-5,1.1-7.5c0.7-4.6,3.5-10-4.1-7.5c-2,1.6,0.4,5.4,0.8,7.4
						C-546.8-538.4-546.5-535.7-545.8-533.2 M-602.6-540.2c1.5-1.2,4.3-1.6,4.6-3.9c0.9-5.2-6.1-0.3-7.6,0.9
						c-1.6-0.9-3.2-1.7-4.7-2.7c-1.4-1-4.8-0.8-5,1.1c0.5,2.7,2.7,4.1,5,5.2c-0.6,1.3-3.8,4.6-2.9,5.7c1.2,1,4.3-2.5,5.5-3.2
						c1.4-1.6,5,4.2,7,4.5C-599.9-534.9-602-537.7-602.6-540.2 M-663-534.8c0.2,0,0.3,0,0.5,0c0.7-2.2,0.9-4.5,1.4-6.7
						c0.2-1,2-1.8,2.9-1.4c0.9,0.4,2.3,0.5,2.7,1.4c0.5,2.1,0.8,4.2,1.4,6.2c0.1,0,0.3,0,0.4,0c1.5-6.7,4.6-12.6-5.6-11.5
						c-3.4,0.8-3.1-0.7-5.8-0.8c-3.2,0.2-8.5,1.1-8.8,5.1c0,2.6,0.9,6.1,2.5,8.1c1-1.4,0.9-3.2,1-4.9c-0.1-3.1,2.8-4.2,5.3-3.4
						c0.2,0.1,0.4,0.4,0.4,0.6C-664.4-539.5-663.8-537.1-663-534.8 M-582.9-543.9c-1.7-1-3.4-1.9-5.1-3c-1.5-0.9-4.5-0.8-4.9,1
						c0.6,3,3.2,4.7,5.6,6c-0.9,1.6-1.9,3.2-2.8,4.7c-0.5,1,0.2,1.4,0.6,1.8c1.5-1,4.4-4.7,5.9-4.1c2.2,1,4.2,2.8,6.6,3.2
						c0-0.6,0.2-1.3,0-1.9c-0.7-1.3-1.5-2.7-2.3-4.1c3.6-0.6,5.8-1.6,5.2-5.9C-577.5-547.2-580.2-545.5-582.9-543.9 M-645.1-534.3
						c0.2,0,0.4-0.1,0.6-0.1c0.6-2.6-0.5-7.4,2.6-8.6c1.9-0.4,3.8-0.6,5.6,0.6c0.4,1.5,0.1,8,1.9,8c0.6-5,0.2-9.7,6.9-8.2
						c1.2,0.1,1.8,0.8,1.9,2.1c0.1,2.1,0.5,4.2,1.1,6.2c0.1,0,0.3,0,0.4,0c0.8-1.6,1.1-3.4,1.5-5.1c0.8-4.5,0.2-5.7-3.6-7.7
						c-2.5-1.3-5.3-0.6-8.1,0.5c-1.9-1.4-4.1-2-6.5-0.8c-2.1,0.6-4.7,1.5-5,4C-645.9-540.4-646.1-537.2-645.1-534.3 M-697.8-665.2
						c0.1,0,0.3-0.1,0.4-0.1c0.2-1.3-0.2-2.6-0.7-3.7c-1.7-4-1.4-8.2-1.4-12.3c0-2.3,0.1-4.6,0.2-6.8c0-0.8-0.2-1.1-1.1-1.2
						c-6.2-1.3-2.4-1.8-8.1,2.2c-0.8,0.5-1.2,1.1-0.8,2.1C-706.7-677.8-703.2-670.8-697.8-665.2 M-504.8-702.2
						c-0.1,3.6,1.6,6.7,3.5,9.5c0.8,1.3,1.8,2.4,3.2,2.8c2,0.5,4.1,0.7,6.2,1c7.5-1,11.5-9.7,11-16.6
						C-481.8-718.8-506.1-714-504.8-702.2 M-715.9-685.2c0.7-8.8,1.1-17.4,2.4-26c0.1-0.6-0.2-0.9-0.8-0.9
						c-4.2,0.4-8.4,1.1-12.7,1.5c-4.2-0.2-8.5-0.1-12.7-0.7c-2.1-0.3-4.1-0.8-6.1-1.5c-1.3-0.4-2-0.4-2.6,0.9
						c-2.6,5.3-3.9,11.2-4.4,17c0,0.9,0.3,1.8,0.1,2.6s0.3,1.1,0.7,1.2c8,1.6,16,3.1,23.8,5.8c2.8,0.3,5.9,0.3,8.7-0.1
						C-718.3-685.5-717.2-685.9-715.9-685.2 M-705-717.4c-0.7,1.2-1.1,6.6-2,7.7c-1.6,1.7,0,7.7,1.4,12.7c2.4,4.4,4.3,5,9.1,4
						c4.1,0.3,8.3,0.4,12.3,1.2c3,0.8,6-0.1,9,0c2.4,0.2,3.7-1.2,4.1-3.3c0.5-1.5,2.1-0.1,3.1-0.4c1.2-0.2,2.6,0.4,3.5-1
						c-0.6,4.1-0.2,3.9-4.3,4.6c-2.6,0.4-4.2,2.4-6.6,2.9c-4,0.8-8.2,1.4-12.2,0.9c-2.7-0.5-5.3-1.2-8-1.9c-0.8-0.2-0.8-0.1-0.8,0.6
						c0.7,8.1-0.5,16.8,2.5,24.6c0.1,0,0.3-0.1,0.4-0.1c0.2-6.2-0.8-12-1.2-18.3c1.1,1.6,2,3,2,4.9c0.2,4.5,0.1,9,1.5,13.3
						c0.1,0,0.3,0,0.4-0.1c-0.2-3.8-0.3-7.6-0.5-11.4c1.5,4.2,2.1,8.5,2.5,13c0.1,0,0.2,0,0.3,0c0.1-0.3,0.2-0.5,0.2-0.8
						c0.1,0.1,0.2,0.2,0.3,0.3c0.1-4.8-0.6-9.6,0.4-14.5c0.8,2.2,0.4,4.6,1,6.9c0.7,3.3,1.5,6.7,2.7,9.9c2.3,7.3,6.7,7.4,13.4,8.9
						c3.8,0.8,7.6,1.7,11.4,2.2c0.6,0.1,0.9-0.2,0.9-0.7c0.1-1.4,0.4-2.9,0.2-4.3c-0.6-3.7-0.2-7.4-0.4-11.1
						c-0.3-2.2-0.7-4.4-0.8-6.6c-0.4-11.6-0.9-23.5-5.4-34.4c-0.6-1.5-1.5-0.3-2-1.9c-1.2-2.1-3.1-3.8-4.6-5.8
						c-1.1-1.4-2.2-2.7-4-3.3c-3.6-0.9-7.1-2.3-10.6-3.6c-2.9-1.1-5.6,0.7-8.3,1.3c-1.7-3.5-6.4-3-9.2-5.2c-1.6-1-3.1-1.2-4.9-1.1
						c-3.5,0.4-7-1.3-10.5-0.5c-4.2,0.6-6.9,3.7-10,6.2c-3.9,1.5-8.3,9.5-1.6,9.6c2.5-0.7,4.8-2,6.9-3.5c2.5-1.2,5-2.8,7.7-3.6
						c1.8,0.3,3.7,0.3,5.4,0.9C-708.4-717.2-706.8-717.3-705-717.4 M-651.3-551.6c3.4-3.4,7.1-6.4,10.2-10c1.9-2.9,3.8-5.9,5.4-9
						c2.1-4.2,4.7-7.8,8.5-10.6c0.9-0.6,2-1.1,2.2-2.5c0.5-2.9,1.2-5.8,1.7-8.7c0.5-3.7,0.9-7.4,1.3-11.1c0.1-1,0.4-2.3-0.1-3
						c-1.3-1.8-2.5-3.9-5.3-3.7c-3.5-0.8-7.2-1.7-10.7-2.7c-1.1-0.3-2,0-2.9,0.4c-3.1,1.6-6.2,2.9-9.1,4.8c-2.3-1.2-2.4-2.7-1.8-5
						c1-3.4,2-6.7,3-10.1c0.4-0.9,1.5-4.7,2.8-3c1.9,2.6,3.8,5.3,5.8,7.8c0.4,0.5,1.1,1,1.7,1.2c4.3,1.9,8.9,2.7,13.6,2.9
						c1.6,0.1,2.1-0.5,2.1-2c-0.1-4.9-0.1-9.9-0.2-14.8c-0.1-2-1.2-3.9-3.4-4.1c-3.5-0.4-7-1.1-10.5-1.6c-7.2-0.5-14.3-2.1-21.1-4.4
						c-4.2-1.5-8.4-2.2-12.9-1.6c-1.6,0.2-2,0.5-1.9,2c0.1,2.8,0.2,5.7,0.5,8.5c2,12.3,0.5,11.4,9.4,20.4c5.5,6,10.5,12.3,16.7,17.6
						c2.3,2.3,4.4,4.7,6.6,7c1.5,1.6,1.8,3.4,1,5.4c-1.4,3.3-1.9,6.5-3.8,9.7c-1.4-4.4-3.7-8-2.5-12.6c0.9-4-3.4-5.9-5.8-8.3
						c-5.3-5.6-15.8,12.9-18.4,16.7c-1.3,1.9,0.4,3,1.2,4.6c1.4,3,3.4,5.4,5.8,7.6C-658.1-560-654.5-556-651.3-551.6 M-509.8-547.8
						c0.2,0,0.3,0,0.5,0.1c3.1-5.5,5.6-11.4,8.6-17c6.2-11.1,15.3-20.6,20.3-32.3c2.7-5.7,1.5-11.9,1.3-18
						c-0.3-5.2-0.8-10.2-1.6-15.4c-2.9,2.1-9.6,4.2-10.2,7.4c-1.4,4.3-4,8.1-6.5,11.8c-1.5,2.3-3.4,4-6.2,4.3c-0.9,0.1-1.8-0.3-2-1
						c-0.3-1.7-0.5-3.4-1.1-5c-1.1-3-2.5-5.9-3.7-8.9c-0.8-2.1-1.4-4.3-2.9-6.1c-0.2-0.2-0.1-0.8,0.1-1.1
						c6.1-7.5,13.3-14.1,20.7-20.3c0.8-0.7,1.8-1.3,2.8-1.6c5.7-0.8,11.6-1.6,16.5-5.1c2.2-1.7,1.8-5,2.6-7.5
						c0.7-4.1,2.2-7.8,3.7-11.6c2.1-6.1,4.1-12.2,6.1-18.4c0.3-0.9-0.4-0.9-0.9-0.8c-4.3,0.3-6.7,2.4-10,4.8
						c-7.9,4.8-15.5,10.1-23.3,15c-9.8,5.5-19.9,10.3-29.6,16c-2.2,1.4-1.6,4.4-1.9,6.6c-0.1,5.1-0.4,10.3,1.3,15.2
						c1.5,3.8,5.9,0.7,8.4-0.1c-2,3.5-5,6-7.6,9c-1,1.1-2,2.4-3.2,3.4c-2.3,1.9-5.6,2.9-7.7,4.9c-1.4,2.1-7.2,8.5-6.9,10.5
						c2.3,8.1,4.4,16.3,7.3,24.2c3.4-0.7,5.9-2.6,8.6-4.2c5.8-3.1,10.9-7.1,17.1-9.3c-0.4,2.4-2.2,3.8-3.8,5.3
						c-4.3,3.9-6,9.9-9.1,14.7c-1.2,1.5-0.2,3.7,0.3,5.3C-518.2-564.3-514.2-556-509.8-547.8 M-561.6-621.1c-2.1,4.4-6.6,7.9-6.6,13
						c0,1.7-0.4,3.4-0.6,5.1c-0.4,1.7-5.2,3.5-6.7,4.7c-2.6,1.9-3.1,5.5-4.9,8c-1,1.7-0.5,3.2,0.2,4.6c4.6,8.8,9.2,17.4,13.8,26.2
						c4.1-3.7,7.9-7.2,12.4-10.3c4.1-2.8,8.5-5,12.2-8.5c4.4-4.4,0.7-10.4,0.1-15.5c-0.7-4.1-1.3-8.2-2-12.2c-0.4-2.4-1.2-3-3.6-3
						c-1.9,0-3.9,0-6.1,0c0-3.6-1.7-10.2,1.1-12.8c5.1-0.8,10.4-0.4,15.2-2.5c2.3-0.8,4.5-1.9,5.5-4.4c1.1-3.3,3.8-6.4,1.6-9.9
						c-1.9-4.3-2.3-8.9-3.2-13.4c-5.7,2.4-11,4.9-17.1,5.9c-5,0.8-10,1.9-14.8,3.7c-1.7,0.9-7,1.7-7.6,3.1c-1.4,2.9-2.8,5.8-4.3,8.6
						c-0.9,1.7-1.9,3.3-2.1,5.3c-0.4,3.7-0.7,7.4-1.5,11.1c-1.7-4.5-2.5-9-2.9-13.7c0-0.4-0.3-0.9-0.6-1.2c-2.2-2.3-4.4-4.6-6.6-6.9
						c-0.2-0.2-0.5-0.4-0.7-0.4c-2.7,0.4-5.4,0.5-8,0.7c-5.4,0.9-10.8,1.4-16.3,1.5c-3.2,0.2-4.2,1.8-4.4,4.6c-0.2,4,0.1,8,0.1,12
						c0,0.3,0.1,0.7-0.1,1c-0.7,2,1.4,3.3,2.5,4.6c2,2.3,4.9,1.4,7.5,0.8c0.4,2.5,0.6,5,1.2,7.4c0.5,1.9,0.4,3.3-1.4,4.5
						c-2.2,1.5-4.2,3.3-6.4,5s-4.3,3.3-4.5,6.3c-0.2,4.8,0.1,9.7-0.1,14.5c-1,3.8-0.8,7.5,2.6,10c4.5,4.2,10.2,6.8,15.1,10.6
						c0.7,0.5,0.9,0.3,1.2-0.3c1.9-4.5,4.8-8.2,7.4-12.3c2.7-4.7,5.3-9.5,7.8-14.3c1.2-1.8-0.2-4-0.1-6c0-1.6,0.2-3.1,0.2-4.7
						c0-0.4-0.2-0.9-0.5-1.1c-2-1.7-3.9-3.4-6-4.9c-1.1-0.8-1.9-1.7-2.1-2.9c-1.9-9.5,2.1-7.7-7.7-12.5c0-0.1,0.1-0.2,0.1-0.3
						c2.6-0.1,5.1-0.3,7.6-0.4c3.6,6.3,7.1,12.6,12.7,17.5c4.5-7.2,8.6-14.2,13-21.4c0.2-0.3,0.4-0.6,0.6-0.7
						C-566.8-618.4-564.2-619.8-561.6-621.1 M-711.7-612.3c10.9,4.3,8.9,5.3,20.7,2.4c0.2,0,0.3,0,0.8,0.1c-1.7,2.9-3.2,5.4-5.2,8
						c-1.3,1.5,0.6,2.6,1.5,3.7c2.6,3.5,5.1,7.2,7.9,10.7c3.1,3.8,6.2,7.4,9.3,11.2c1.3,1.6,2.4,1.7,3.7,0.1
						c3.7-4.4,5.4-10.1,9.6-14.1c1.6-1.5,3.1-3.1,4.5-4.8c3.3-3.4,0.7-5.6-1.6-8c-5.3-4.9-10.8-9.7-16.2-14.4
						c-5.5-4.9-12.7,0.6-19,0c-3.4-0.1-6.8-0.9-10.1-1.5c1.7-0.3,3.5-0.2,5.1-0.5c7.2-1.3,15-1.7,22.4-2.8c5.1,0.3,4.4,0.8,4.3-4.4
						c-0.6-6.1-2.5-12.1-3.3-18.2c-0.1-0.4-0.4-0.8-0.8-1c-8.3-4.6-16.8-8.8-24-15.1c-4.4-4.2-10.4-5.7-15.9-8.1
						c-7.2-2.5-14.2-5.6-20-10.5c-1.2-1.1-2.6-2.2-4-2.6c-7-2.4-13.9-5.2-20.2-9c-0.3-0.2-0.7-0.2-1.1-0.2
						c0.8,6.5,3.8,12.7,6.2,18.8c2.1,5.7,6.8,9.5,11,13.6c1.1,0.9,0.5,2.2,0.5,3.4c0,2.3-0.1,4.6,0,6.9c0.2,2.5,0.6,5,0.8,7.5
						c0.4,6.5,8.4,5.4,12.6,13.2c-3.7,2.5-7.2,5.3-10.8,8.1c-1.6,2.1-0.5,5.1,0.3,7.4c6.2,14.8,11.3,30,19.2,44
						c4.5,8.2,8.2,16.4,13.6,24.1c2.6-3.4,4-6.8,5.8-10.5c3.9-8.3,12.6-13.1,16.7-21.3c1.5-3-1.7-5-3.2-7.2
						c-2.8-4.2-5.5-8.5-8.2-12.8c-0.7-1.1-1.4-2-2.7-2.3C-707.5-600.5-709.8-606.7-711.7-612.3 M-700.3-790.2
						c3.4-13.8,13.7-23.8,24.6-32.1c11.5-9.5,24.8-17.1,39.2-20.9c16.4-4.6,33.5-0.7,49.9,2c22.8,3.9,37,12.3,54.8,26.4
						c1.7,1.3,3.5,2.4,5.3,3.7c0.9,0.6,1.7,0.5,2.5-0.3c1.5-1.5,4.5-1.9,6-0.8c3.9,3.4,15.4,11.8,9.7,17.1c0.9,5.1-6.7,14.9-9,19.8
						c-2.6,5.1-4.8,10.5-7.2,15.8c-2.5,3.1-3.2,0.5-5.6,3.8c-3.6,4.7-7,9.6-10.4,14.4c-2,2.6-3.8,5.2-4.7,8.5
						c-1.4,4.8-2.6,9.6-3,14.6c-0.2,2.3,3.4,2.4,5,3.5c4.9,2.7,8.1,7.6,11.4,11.9c3,4,6.8,7.8,7.4,13.1c0.2,1.8,0.2,3.5,1.1,5.1
						c3.1,5.4,12.1-14,13.7-16.3c5.8-12.3,8.1-25.8,9.4-39.2c1.6-13.4,2.7-26.9,1.7-40.3c-1.7-6.8-3.5-17.5-8.3-22.6
						c-2.2-2.2-3.4-5.4-5.4-7.8c-5-6.1-9.4-12.8-15.7-17.7c-11.5-9.1-25.1-15.1-38.7-20.3c-18.1-6.7-37.3-11.5-56.7-9.3
						c-9.1,1.8-18.4,3.3-27.5,5.2c-13.5,4.1-24.9,12.8-35.6,21.6c-3.7,2.9-7.1,6.1-9.9,9.8c-9.4,11.5-14.4,25.4-20,38.9
						c-1.5,3.4-2.7,6.9-3.2,10.7c-0.2,4.7-2.3,9.2-2.8,13.8c0.6,6.7,0.1,13.5,0.9,20.2c0.1,2.7,0.3,7.3,3.9,7
						c2.6,0.1,5.2,0.7,7.8,0.6c1.3-0.1,2.5-0.1,3.7,0.3c2,0.7,4,1.4,6,2.3c2.7,1.5,5.5,3.4,8.8,2.6c4.3-1.2,8.9-2.1,13.2-2.1
						c1,0.4,3.8,2.2,3.3-0.2c-0.2-0.9-0.8-1.8-0.9-2.7c-0.3-1.9-0.5-3.9-0.7-5.8c-0.2-3.3,0.2-7,0.3-10.3c0.5-5.3-1-10.5-1.4-15.8
						c-0.8-7.2-1-14.6,0.5-21.7c3.7-6.3,8.7-11.8,15.5-14.9c4-2.4,8.3-3.8,12.5-5.7c5-2.1,10.4-4,15.6-5.3
						c7.3-0.9,14.8-0.2,22.1-0.3c5.7,0.1,11.2,1.6,16.5,3.7c7.9,3,9.4,2.6,15.3,9.2c3,3,4.5,7,6.2,10.8c1.9,4.5,4.9,8.8,4.9,13.8
						c-0.3,5.2-6.6,1.2-9.6,3.2c5.1,4.7,5.9,9.9,8.1,16c1.7,3.9,2.6,8,3.3,12.2c0.5,3,0.6,6.1,2.4,8.7c2-6.2,2.9-13,4.5-19.4
						c0.7-3.2,1.8-6.2,3.9-8.9c2.6-3.4,5.4-6.7,7.7-10.4c0.1-0.2-0.1-0.6-0.2-0.8c-0.8-1.4-1.1-2.8,0-4.3c1.5-1.7-1.1-3.3-1.7-4.9
						c-1.8-3.5-4.1-6.6-6.7-9.5c-7.5-8.3-16.7-14.7-26.9-19.2c-7.1-3.1-15.1-3.8-22.8-4c-5.5-0.2-10.9-0.6-16.4-0.2
						c-4.2,0.2-8.5-0.2-12.6,0.9c-2.7,0.8-5.3,1.7-7.9,2.6c-8,2.6-16.5,3.2-24.6,5.9C-678.8-800.3-689.6-795.7-700.3-790.2
						 M-667.1-733.8c-1.1-0.5-0.8-3.7-1.7-4.7c-0.3,3.6,0.1,6.8,1.4,10c-5.1-6.9-3.2-15.8-2.5-23.7c0.1-2.8,1.5-5.6,0-8.4
						c-0.1,1.1-0.3,2.1-0.3,2.7c-1.3-5.5-3.4-12-2.1-17.9c2.5-11.8,9.9-17.2,21.2-19.4c-0.4-0.2-0.7-0.3-1.1-0.5
						c2.7-2.6,6.2-3.1,9.5-4.4c3.9-2,5.3-1.1,9.4-0.3c-3.9,1-8,0.8-11.6,3.1h3.4c-1.1,0.6-2,1-2.9,1.4c1.4,0.8,3.2,0.5,4.7,0.6
						c3.7,0.1,6.5,2.2,9.8,3.7c-3.6-0.1-6.9-0.2-10.3-0.4c0,0.1,0,0.3-0.1,0.4c5.8,3.2,12.8,0.7,18.6,3.8c3.9,2.1,8,4.1,11.1,7.2
						c2.4,2.7,4.4,5.7,7.2,8c0.1-0.1,0.2-0.2,0.3-0.3c-0.6-1.1-1.1-2.2-1.7-3.3c0-0.1,0.1-0.1,0.1-0.2c2.8,2.8,6,5,7.6,8.7
						c4.8,9.4,11.6,18,13.6,28.5c-2.1-2.7-2.6-6.3-5.8-8.6c0.3,2.1,1.2,3.6,1.5,5.6c0.2,4.8,0.5,9.6-0.2,14.4
						c-0.8,7-3.1,13-4.6,19.9c-0.4-4.9,1.1-9.3,1.2-13.9c-2.6,11.2-5.2,22.4-11.7,32.1c-1,1.8-1.6,3.9-3.2,5.5
						c-0.3,0.3-0.4,0.9-0.3,1.3c0.2,0.9,1.3,1.4,1.9,0.5c1.5-2.3,2.8-4.7,4.2-7c0.1,0,0.2,0.1,0.2,0.1c-0.8,1.9-1.6,3.8-2.4,5.8
						c2.4-2.7,4.3-6,6.5-8.9c0.1,0.1,0.3,0.2,0.4,0.2c-2.1,3.7-4.1,7.5-6.1,11c4.2,3.5,12.3-0.2,17.1-1.4c6-1.5,10.9-5.2,16.2-8.2
						c4-2.4,7.7-5,10.4-9c0.7-1.1,1.9-1.8,2.9-2.7c0,1.4-1,2.3-1.3,3.6c-0.8,1.6-3,3-4.2,4.4c0.3,0.1,0.5,0.1,0.6,0
						c3.6-2.5,7-7.2,11.4-8c-3.2,2.8-6.1,5.7-9.4,8.3c-4.3,2.7-8.4,5.9-12.7,8.5c-8.3,3.9-17.5,5.9-25.7,9.7
						c3.8,1.8,7.8,2.8,10.9,5.6c-0.8-0.2-1.6-0.5-2.4-0.7c-0.1,0.1-0.2,0.1-0.2,0.2c1.2,1.9,3.5,2.7,4.9,4.5
						c-0.1,0.1-0.2,0.2-0.3,0.4c-3.7-2.8-7.3-6.1-11.9-7.4c-1.7-0.7-3.2-1.8-4.9-2.6c-0.1,0.1-0.2,0.2-0.3,0.4
						c1.3,1.7,3.3,2.9,4.6,4.5c1.5,2.5,2.8,5.1,4.1,7.7c-0.1,0.1-0.1,0.1-0.2,0.2c-2.1-2.8-4.5-5.5-6.8-8.3
						c-0.2-0.3-0.6-0.4-0.9-0.6c-0.1,0.1-0.2,0.2-0.3,0.3c2.8,4.2,4.4,8.4,5.2,13.5c-0.3-0.1-0.3-0.1-0.4-0.2
						c-1.7-4.5-3.2-9.2-6.3-13c-1.4-1.8-3.2-3.5-4.8-5.1c-2.8-3-5.7-5.7-9.5-7.4c-9-5.3-17.2-12.1-26.1-17.5
						c-4-4.2-8.4-8.3-13.3-11.4c-0.1,0.1,0.1-0.1,0,0c4.1,3.7,6.9,8.3,8.3,13.7c-2.4-3.8-4.4-8.1-8.1-10.9
						c2.3,5.1,4.3,10.5,4.6,16.1c-0.5-1.4-0.9-2.8-1.4-4.2c-0.2,0,0.1,0-0.1,0c0.5,4.2,0.4,8.5,0.7,12.7c-2-4.8-1.5-9.8-2.2-14.7
						c-2-6.7-4.5-14.7-11.4-17.8c-6.6-2.1-12.6-8.6-19.9-6.1c0,0.1,0-0.1,0,0c8.5,0.6,15.3,6,20.4,12.4c3.6,3.7,4.7,8.3,5.3,13.1
						c0.3,6.5,1.3,13,2,19.5c-0.3,5.9-0.6,12.2,2.8,17.4c-0.3-5.2-2.2-10.2-1.1-15.2c0.5,1.1,1,2.5,1.6,4c0.9-0.4,0.2-6.6,0.4-8
						c0-1.6-0.8-3.2,0-5c0.5,5,0.8,9.8,3.1,14.4c1-2.7-0.2-5.1-0.2-7.6c3.8,8.2,3.5,17.5,5.1,26.2c0.5,3.8,2.8,6.5,5.5,8.9
						c0.9,0.8,1.2-0.6,1.1-1.3c0.2-5.2,0-10.5,0.3-15.7c0.6,4.9,2.1,19,4.2,4.8l0,0c0.2,3.2,0.3,6.4,0.5,9.7c0.1,0,0.2,0.1,0.3,0.1
						c1.3-5.5,1.1-11.4,2-17c0.7,4,0.6,8.1,2.2,12l-0.1-6.2c0,0,0.1,1,0.2,0.9c1.1,5.5,3.2,10.6,5.8,15.5c0.2,0.4,0.7,0.7,1.1,1.1
						c0.1-0.1,0.3-0.1,0.4-0.2c-1-5.3-1.6-10.6-0.9-16c1.2,1.6,0.6,3.8,3,4.7c0.2-0.6,0.3-1.2,0.6-1.8c1.5,3.9,4.8,6.3,7.7,9.2
						c0.4,0.4,1,0.9,1.5,1c6.5,0.8,13-0.4,19.5-0.8c6.2-0.9,12.8-0.5,18.5-3.4c7.5-2.8,12.6-9,17.9-14.7c1.4-1.5,1.5-3.6,1.9-5.5
						c1.1-4.4,1.3-8.6,1.7-13.1c0.5,3.1,0.9,6,1.3,8.8c0.1,0,0.2,0,0.3,0c0.3-3.4,0.6-6.8,0.9-10.2c0.1,0,0.2,0,0.3,0
						c0.5,3.4,1,6.8,1.4,10.2c0.7-2.3-0.1-5,0.1-7.4c-0.1-4.8,0.8-9.4,0.4-14.3c0.9,2.7,1.7,5.3,2.6,7.9c0.1,0,0.2-0.1,0.4-0.1v-5.4
						h0.3c1.1,2.9,1.8,5.9,2.2,8.9c0.2-5.7-1.1-11.4-0.5-17.5c1,2.4,2,4.3,2.6,6.8c0.4,2.2,0.2,4.5,1.7,6.5c0.8,1.1,0.8,2.8,1.1,4.2
						c0.1-0.1,0.3-0.2,0.7-0.4c0.4,2.1,0.8,4.1,1.2,6.1v-9.6c0.1,0,0.2,0,0.3,0c2,4.6,1.7,9.4,1,14.3c2.2-1.8,3.6-4.1,5.6-6
						c3.3-2.5,0.5-5.6,0-8.8c-0.8-3.1-1.5-6.2-3.5-8.9c-1.1-1.5-2.3-2.9-3.1-4.5c-1.8-3.7-4.1-6.8-7.8-8.7
						c-4.2-1.6-6.7-6.7-11.6-6.3c0.6-4.2,1.8-8.3,3.2-12.3c1.6-8.7,4.9-16.9,11-23.6c2.9-3.2,5.5-6.5,7.4-10.5
						c3.9,1.9,4.5-0.2,5.5-3.6c1.7-3.4,3.3-6.7,5.1-10c2.8-5,5.7-9.8,8.5-14.8c0.9-1.6,1.2-3.5,0.3-5.3c-0.1-0.3,0-0.8,0.2-1.1
						c2.4-4-1.4-7.9-4.2-10.4c-1.4-1.2-3.5-1.7-5.4-2.3c-2.8-1-3.6,2.5-4.9,4.3c-3.5-3.9-7.6-7.1-11.9-10c-3.6-2.7-7.2-5.5-10.7-8.3
						c-9.9-7.7-22.4-10-33.9-14.3c0,0-0.1,0.2,0,0c-12.4-1-24.6-3.3-37.1-3.6c-6.8,0.5-13.4,1.7-20,3.2c-4.2,0.8-8.2,1.9-12,3.8
						c-4.5,2.3-8.9,4.8-13.2,7.4c-8.2,4.7-15.8,10.5-22.1,17.5c-3.1,4-6.6,7.9-9.7,11.9c-0.6,0.6-0.3,1.1,0.1,1.6
						c1,1.3,3.6-1.5,4.8-1.8c6-3.6,12.5-6,19-8.4c13.2-6.4,27.8-8.2,42.1-10.6c6.4-1.7,12.9-1.6,19.5-1.5c5.9,0.3,11.9-0.3,17.8,0.8
						c9.9,2.3,19.3,5.8,27.6,11.7c8,4.8,13.3,12.7,18.4,20.2c1.4,1.9,2.6,3.8,2.8,6.2c1.4,4.5-3,3.2,0.5,6.9
						c-13.1,12.8-16.6,30.4-20.7,47.7c-1.7-5.1-2.4-10.3-3-15.5c-0.7-3.3-1.7-6.6-2.5-9.9c-0.8-2.9-2.1-5.5-3.5-8.1
						c-2.7-5.2-5-10.6-7.1-16l0.3-0.2c2.5,0.9,4.6,2.4,7.3,2.7c3.9,0.6,2.7-2.7,2.2-4.9c-1-2.8-2.3-5.6-3.5-8.4
						c-1.4-4.2-3.5-8-7-10.7c-3.3-3.1-6.8-5.8-11.1-7.3c-1.9-0.8-3.9-1.7-6.1-1.4c-2.6-0.8-5.2-1.9-7.9-2.4
						c-4.1-0.7-8.4-1.1-12.6-1.2c-3.4-0.8-6.6-0.2-9.9,0.4c-4,0.7-7.9,1.6-11.8,2.6c-1.8,0.4-3,1.8-5,2.1c-3.2,0.4-6.2,1.6-8.9,3.4
						c-2.2,1.5-4.2,3.2-6.8,3.8c-6.1,1.4-8.3,7.9-11.8,12.4c-1.1,1.7-1.7,3.5-1.6,5.6c0,4,0.3,8,0.1,11.9c0.2,5.9,0.9,11.9,1.3,17.8
						c0,7.6-1.1,15.7,2.5,22.7c2.3,4.1,7.3,4,10.8,6.6c3.7,2.8,7.8,5.2,11.6,7.9c0.1-0.1-0.1,0.1,0,0c-1.8-3.2-4.4-5.9-7.1-8.4
						c-3.6-4.6-5.5-9.9-5.1-15.8c1,5.4,3.7,10.1,6.1,15c0.1,0.2,0.5,0.3,0.9,0.5c-0.6-2.4-1.1-4.5-1.7-6.6c1.9,4.6,4.2,8.9,7,13
						c-0.3-0.9-0.5-1.8-0.8-2.6c5.9,10.8,6.1,11.4,17.1,17.6c-0.9-2.2-2.4-4.1-3.6-6.2c0-0.1,0.1-0.1,0.1-0.2
						c1.7,2.1,3.2,4.3,5.2,6.2c2,1.8,3,4.6,5.8,5.8c-1.4-2.7-3.9-4.6-4.8-7.7c0.7,0.6,0.9,0.9,1.4,1.2c-0.3-0.9-0.7-1.7-1.1-2.6
						c0.1-0.1,0.1-0.1,0.2-0.2c3.7,4.6,6.4,10.3,10.9,14.3c2,1.2,4.1,2.2,6,3.5c2,1.5,3.7-2.5,4.4-3.9c2.8-7.4,7.8-13.9,10.1-21.5
						c0.6-2.5,1.8-4.9,1.7-7.7c0-1.3,0.5-2.6,0.8-3.9c1.4-5.7,2.6-11.4,3.5-17.2c0.2-1.3,0.4-2.6,0.2-3.8c-1.1-7.1-4-13.4-7.9-19.4
						c-3.5-5.2-6.7-11-11.9-14.5c-2.7-2.2-5.8-3.6-9.1-4.6c-4.9-1.7-9.9-3.3-15-4.3c-4.2-1.3-8.4-2.8-12.9-2.6c-2.4,0-4.9,0-7.2-0.5
						c-8.6-1.4-15,6.7-15.2,14.6c-0.3,6.2,2.8,11.9,3.7,17.9c0.1,0-0.1,0,0,0c0.1-5.1-1.1-10.1-0.6-15.2c5.4,9.8,2.6,16.3,1.7,26.4
						c0,5.5,0.8,11.1,1.9,16.4c-2-2.4-2.1-5.6-3.1-8.5c0.1,0.7,0.1,1.4,0.2,2.2C-667-733.9-667-733.8-667.1-733.8 M-476.7-695.3
						c0.7,0.8,1.5,0.6,2.5,0.2c6.4-2.3,12.5-4.8,19-6.7c0.4,8.7-1.5,17.1-5.6,24.7c-2.7,4.3-4.1,9-4.4,14c-0.7,3.4-1.8,6.8-2.7,10.2
						c-0.1,0.3-0.4,0.7-0.7,0.9c-2.6,1.9-8.7,3.7-9.4,6.9c0.1,9.6,4.4,18.7,5.3,28.2c0.7,6.2,0.5,12.4-2,18.2
						c-3.8,13.8-12.5,25-20.3,36.7c-5.4,9-10,17.8-15.4,27c-5.3-8.9-9.6-18-15.9-26.2c-3.2-4.6-8.4,0.9-8.6,4.9
						c-1,4.9-1.8,9.8-2.4,14.7c-0.8,4.6,0,9.7-3.3,13.5c-0.9,1.6-2.3,1.8-3.9,1.7c-10.5,0.4-21.1,0-31.6-0.5
						c-22.9-1-45.8-1.3-68.6-0.4c-6.3,0.6-12.6,1.1-18.9,1.1c-3.6,0-7.4,1.1-10.7-0.4c-4.8-7-6.4-16.3-11.1-23.6
						c-4.4-7.3-5.5-5.9-10.6-0.2c-4.7,5.9-9.8,11.5-13.6,17.9c-7.4-17.9-20.1-33.1-28.9-50.2c-2.4-4.9-4.2-10.1-6.5-15.1
						c-2.7-7.1-4.9-14.7-9-21c12.2-11.1,12-5.6,4.6-17.9c-2.4-3.8-3.4-8.1-2.7-12.5c0.9-5.5-1.9-10.2-5.4-14.2
						c-4.8-11.4-11.6-22.4-12.4-34.9c2,1,4,2,6.4,1.6c1.9-0.2,3.8,0.4,5.5-0.7c0.3-0.2,0.7-0.5,0.8-0.8c1.7-5.5,3.1-11.2,4.7-16.7
						c0.3-1,1.1-1.9,1.8-2.7c0.2-0.2,0.8-0.1,1.1,0c3.4,0.4,10.3,2.9,13.2,1.1c3.7-4.1,7.5-8,11.3-11.9c1.3-1.1,0.7-1.9,0.3-3.4
						c-0.5-4.5-0.6-8.9-0.9-13.4c-0.8-44.1,14.2-69.1,46.6-97.6c2.2-2,5-3.3,7.4-5.1c2.8-2,5.6-4.3,8.8-5.7
						c8.5-3.4,17.4-5.6,26.3-7.8c8.9-2.5,18.2-2.8,27.4-2.7c12-0.6,23.3,3.9,34.9,6.3c4.3,1.1,8.3,2.7,12.1,5c5,3,10.5,4.9,15.7,7.3
						c4.9,2.5,9.7,5.3,14.6,7.8c6.8,4.9,12.8,11,17.8,17.7c6.4,7.4,12.1,15.4,15.5,24.6c5.3,12.7,3.5,26.7,4.4,40.1
						c0.3,3.5-0.6,6.9-1.1,10.3c-0.6,5.5-1.6,11-1.6,16.5c0.2,2.6-0.4,5.2-1,7.7c-0.7,1.7-0.6,5.3,2.2,4.8c7.1-2,15.4-0.7,18.3,6.9
						C-474.5-705-475.9-700.1-476.7-695.3"/>
				</g>
				<g transform="matrix(1,0,0,1,874.719,241.756)">
					<path class="st1" d="M-804-108.3c0-0.3-0.1-0.2-0.3-0.2C-804.4-108.3-804.2-108.3-804-108.3 M-743.8-247c4.5-1.6,2.8,1,5.6,0.8
						c1.4,1.5,2.7,2.7,3.9,4c0.1-0.1,0.3-0.3,0.2-0.6c-0.4-3.6-3.1-4.8-6.2-5.9C-742.6-249.7-742.8-249.4-743.8-247 M-763.9-216.8
						c0.1,0,0.2,0.1,0.4,0.1c0.7-0.9,1.5-1.2,2.7-0.9c2.2,0.7,4.8,0.9,6.5,2.5c1.7,1.9,7.7,8.1,2.8,9.3c0.1,0.1,0.1,0.3,0.2,0.4
						c2-0.3,2.7-2.1,3.4-3.7c2.1-5.2,4.3-10.2,7.4-14.9c2.1-3.2,4.1-6.4,6.2-9.5c0.5-0.8,0.7-1.5-0.1-2.2
						c-2.2-5.1-6.5-8.1-11.5-10.2c0,0.4,0,0.7,0.1,0.8c2.2,2.2-0.5,5.6-1.2,7.9c-2.9,5.8-6,11.5-8.8,17.3
						C-758.9-214.4-762.1-222.9-763.9-216.8 M-838.7-164.2c0.4-1-1.5-1.8,0-2.7c1-0.6,1.5-0.3,2.7,1.6c0.7-0.5,1.4-0.9,2.1-1.3
						c-0.4-1-2.2-2.7-0.8-3.4c1.4-0.6,1.7,0.8,2.4,1.8c1.7-2.9,3.4-6.3,0.2-8.8c-1.7-1.4-4.1-1.9-4.7-4.2c0.9-0.4,1.9-1,2.9-0.7
						c2.5,0.9,5,0.8,7.5,0.4c2.5-0.4,3.8-0.4,4.7-3.8c0.6-3.1,3-5.6,2.2-8.9c-0.5-2.2-0.8-4.5-1.9-6.5c-2.4-4.2-4.5-8.5-7.8-12
						c-0.1-0.2-0.4-0.3-0.6-0.3c-5.3-0.4-10.5-0.5-15.8-0.6c-2.6,0-4.9,0.8-7.6,0c3.6-1.4,7-2.8,10.9-1.8c1.4,0.4,2.7,0,4.1-0.5
						c-0.7-0.3-1.5-0.8-2.2-0.8c-1.8,0-3.3-0.6-4.9-1.3c-6.9-2.9-13.9-5.2-20.8-8.1c-4.4-1.6-4.9-1.4-8.8,1.4
						c-3.1,1.7-3.5,5.6-3.6,8.8c0,0.9,1.2,2.2,2.2,2.2c2.5,0.1,5,0,7.6,0c-1,2.4-6.2,3-8.3,5.3c-5.5,3.9-5.2,4.7-3.6,11
						c1.4,4.1,4,8.1,3.3,12.6c-0.2,2.5,0.3,4.6,2.1,6.4c0.6,0.6,1.5,1,1.8,1.7c0.8,1.7,2,2.8,3.3,3.9c3.1,2.8,5.3,1.5,8.9,0.4
						c0.2-2.3-3-0.4-3.4-2.3c5.5-2.2,5.7-1.1,7.2,4.1c1.1,2.5,2.4,4.9,3.5,7.4c0.1-1.2,0.1-1.7,1.2-2.4c1.8,1.4-0.7,4.2,2.9,3.7
						c0-0.9-0.3-2.2,0.6-2.8c0.5-0.2,1.1-0.1,1.2,0.7c0.1,0.5,0.4,0.9,0.4,1.4c0.1,1.7,2.2-0.2,3-0.3c0-0.8-0.9-1.8,0.3-2.2
						c0.7-0.2,1.5-0.3,1.7,0.4C-842-162.9-839.8-164.2-838.7-164.2 M-914.2-241.3c7.2-3.9,14.7-7.2,22.3-10.4
						c6-3.1,12.5-5.3,19.1-6.7c10.2-2,20.5-3.9,30.8-5.2c7.1-0.3,14.2,0.1,21.2,0.2c5.3-0.1,10.4,1.6,15.5,2.9
						c6.3,1.1,11.6,4.4,17.1,7.5c11.1,5.6,23.9,19.9,26.1,32.2c1.2,0.1,2.3,0,3.6,0.1c2.7-8,6.7-15.3,11.2-22.4
						c-4.1-3.7-8.3-7.2-12.5-10.7c-2.4-2.6-4.8-5.3-7.4-7.6c-8-6.9-18.8-8.8-28.4-12.6c-8.9-3.8-18.7-3.5-28.2-4.8
						c-4-0.4-8-0.9-12-0.9c-2.1-0.4-4.2-0.7-6.4-0.4c-7,0.6-13.9,1.6-20.7,3.3c-10.7,2.3-19.8,8.7-29,14.3
						c-8.7,5.9-15.9,13.7-22.8,21.6L-914.2-241.3z M-814.1-229.6c0.1,0.1,0.3,0.2,0.4,0.2c-1.6-2.1-4-3.6-5.9-5.4
						c-1.3-1.1-2.5-2.5-4.2-3.2c-1.5-0.7-2.9-1.7-4.3-2.7c-0.7-0.5-1.2-1.5-1.9-1.8c-2.7-1.4-5.5-2.2-8.6-2.4c2.5-1.3,5.2-1,7.8-0.3
						c11,2.5,20.8,9.7,26.9,19.1c-4-1.5-5.8-5.5-9-8c1,2.4,3,4.3,4.3,6.6c0.7,1.1,1.1,2.5,2,3.4c1.6,1.4,2.8,3.3,5,4
						c2.1,0.7,3.9,1.9,6.1,3.1c-0.5-1.5-0.3-2.6-0.8-4c-0.7-1.9-1.6-3.8-2.3-5.7c-2.1-6.9-8-10.7-13.7-14.3
						c-0.1,0.1-0.1,0.2-0.2,0.3c1.9,1.5,3.6,3,4.7,5.6c-2.4-1-3.6-2.9-5.6-4.1c-2.7-1.7-6.1-2.6-8.7-4.3c-8.2-6.2-19.5-3-29-2.4
						c0.3,0.3,0.6,0.5,0.9,0.5c6.4,0.9,13.6,2.1,18.2,7c-0.1,0.1-0.2,0.3-0.3,0.4c-1.5-0.6-2.9-1.3-4.4-1.9
						c-0.1,0.1-0.1,0.2-0.2,0.3c4.2,3.6,8.4,7.2,12.5,10.8c-0.8-1.6-2.1-3-2.5-4.8c5,4.1,9,9.1,13.1,14.1c-0.8-3.4-2.6-6.4-4.1-9.6
						c2.3,1,3.1,3.5,4.5,5.4c3.1,5,5.6,10.3,9.3,15c5.1,6.1,5.2,14.2,7.1,21.6c1.2,4.6,2.3,9.2,2.3,14.1c-1-1.6-2-3.2-3-4.8
						c0.2,3.7,0.9,7.5,1.1,11.2c0.4,2.1,0.3,4.1-0.4,6.1c-2.5,6.1-6.6,11.4-10.7,16.5l0.2,0.2c4.1-3,7-7.3,10.4-11
						c2.9-3.1,2.4-7.4,3.8-11.2c0.1,0,0.1,0,0.2,0c0.2,1.5,0.4,2.9,0.6,4.4c0.1,0,0.3,0,0.4,0c1.8-6,0.1-12.2,0.5-18.3
						c-0.1,0-0.3,0-0.4,0c-0.3,0.9-0.6,1.8-0.9,2.7c0.7-6.9-1.6-13.1-3.6-19.4v5.6c-1-0.4-1.5-6.4-1.8-7.7
						c-0.5-3.8-1.8-7.3-3.3-10.8c-2.3-4.6-4.2-9.6-7.9-13.2c-2-2.2-4.2-4.2-5.9-6.6c0.1-0.1,0.1-0.1,0.2-0.2
						C-814.7-229.8-814.4-229.7-814.1-229.6 M-771.2-202.4c-4.9,8.2-6.8,17.7-9.8,26.7c-2.1,5.5-2.4,11.4-4.7,16.9
						c-3.6,8.9-9.1,16.8-11.4,26.2c1.4-1.1,3.1-1.3,3.8-3c2.1-4.6,3.8-9.3,6.4-13.7c0.2,0.1,0.3,0.1,0.5,0.2
						c-1.3,4.2-2.7,8.3-4,12.5c1-0.4,1.6-1,1.9-2.2c0.5-1.9,1.3-3.7,2-5.6c0.2,0.1,0.4,0.1,0.5,0.2c-0.5,1.9-1,3.9-1.6,6
						c1.6-0.8,4.4-1.7,5.2-3.4c1-2.4,2.1-4.8,2.9-7.3c2.5-9.2,5.5-18.3,8.2-27.4c-0.5,0.7-1,1.2-1.4,1.8c0-0.1-0.1-0.1-0.1-0.2
						c0.5-1.1,1.1-2.2,1.7-3.5c-0.5,0.2-0.8,0.4-1.2,0.6c0.6-1.1,1-2,1.5-2.9c-0.9-0.5-0.1-1.1,0.1-1.5
						c3.9-10.2,11.9-17.6,18.1-26.4c-0.3-0.5-0.7-1.1-1.1-1.7c-3.1,4.7-5.7,9.3-9.4,13.4c-0.1-0.1-0.2-0.2-0.3-0.2
						c2-5.3,5.7-9.7,8.9-14.3c-0.8-1.9-2.9-1.7-4.5-2.4c-2.5,4.1-4.6,8.4-8,12.2c1-4.8,4.9-8.4,6.8-12.9
						c-7.2,7.8-10.6,18.3-15.4,27.7C-776-192.2-772.9-197.4-771.2-202.4c0,0,0.1,0,0.2-0.1v-0.1L-771.2-202.4z M-859.1-167.9
						c-0.1-0.2-0.3-0.4-0.4-0.7l-0.2,0.1c2,4.3,2.8,9.5,6.3,13c2.7,2.4,5.5,4.8,8.3,7.2c1,0.9,2.1,1.5,3.5,1.2
						c7.1-0.6,8.8-1.5,14.4-5.9c1.6-1.3,3.3-2.7,3.5-5.1c0.3-5.1,2.8-9.7,3.2-14.8c0.2-1.6,1.9-6.4-1.4-5.2
						c-7.9,4.3-2.6,3.1-3.5,9.2c-0.2,1.3-0.3,2.6-0.4,3.9c-2.4-0.3-2.2-2.8-3.8-3.5c-0.4,0.9-0.8,1.7-1.2,2.6
						c0.6,0.7,0.2,1.8,0.1,2.6c-0.7-0.4-1.5-0.6-1.8-1.5c-3.2,2.7-1.4,1.3-2.9,4.6c-2.1-1.9-2.4-2-5-1c0.5,1.3,0.1,2.3-0.5,3.3
						c-1.2,0.8-1.9-1.3-2.7-2c-4.6,0.4-2.5,0.4-3.8,2.6c-0.1,0-0.2,0.1-0.3,0.1c-1.4-2.8-1-2.9-4.2-3.4c0,0.6,0,1.7-0.8,2.1
						c-1.3-0.8,0.1-1.9-2.3-3.4C-856-163.9-857.1-166.2-859.1-167.9 M-794.7-150.9c-0.1,0.1-0.2,0.3-0.3,0.4l0.1,0.1
						c0.1-0.1,0.2-0.3,0.3-0.4c0-0.1,0-0.2,0-0.3C-794.5-151-794.6-151-794.7-150.9 M-793.8-149.6c0.1-0.1,0.2-0.2,0.2-0.3l-0.1-0.1
						c-1.1,1.8-3,3-4.5,4.4c-0.1,0-0.1-0.1-0.2-0.1c0.9-1.3,1.9-2.7,2.8-4c-0.1-0.1-0.2-0.2-0.3-0.3c-2.2,2.4-4.2,5.1-7,6.9
						c0.5-0.8,1-1.6,1.5-2.4c-5.2,4.5-7.5,10.6-9.7,16.8c2.6-3.8,5.2-7.5,8.3-11c0.1,0,0.1,0.1,0.2,0.1c-1,2.5-2,4.9-3.1,7.4
						c0.1,0,0.2,0.1,0.3,0.1c1.8-3.1,3.5-6.3,6.3-8.7c-0.8,1.8-1.7,3.7-2.7,5.4c-0.4,0.6-0.4,1,0.4,1.4
						C-797.6-138.3-796.2-144.3-793.8-149.6 M-771.1-178.8c-0.1,0.2-0.1,0.3-0.2,0.5c0.1,0,0.1,0,0.2,0c0-0.3,0.1-0.6,0.3-0.8
						c0,0-0.1,0-0.1-0.1C-771-179.1-771-179-771.1-178.8 M-850.4-100.4l0.1,6.2c-1.6-3.8-1.5-7.9-2.2-12c-1,5.6-0.7,11.5-2,17
						c-0.1,0-0.2-0.1-0.3-0.1c-0.2-3.2-0.3-6.4-0.5-9.7c-2,14.2-3.6,0-4.2-4.8c-0.3,5.2-0.2,10.5-0.3,15.7c0.1,0.7-0.2,2.1-1.1,1.3
						c-2.7-2.4-5-5.1-5.5-8.9c-1.6-8.7-1.3-18-5.1-26.2c0.1,2.5,1.2,4.9,0.2,7.6c-2.3-4.6-2.7-9.4-3.1-14.4c-0.8,1.8-0.1,3.4,0,5
						c-0.2,1.4,0.5,7.6-0.4,8c-0.6-1.5-1.2-2.9-1.6-4c-1.1,4.9,0.7,9.9,1.1,15.2c-3.4-5.2-3-11.5-2.8-17.4c-0.7-6.5-1.6-13-2-19.5
						c-0.6-4.8-1.7-9.5-5.3-13.1c-5.1-6.4-11.9-11.5-20.3-12.1c0-0.1-0.1-0.2-0.1-0.3c7.4-2.4,13.3,4.1,19.9,6.1
						c6.8,3.2,9.4,11.1,11.4,17.8c0.7,4.9,0.3,10,2.2,14.7c-0.3-4.2-0.1-8.5-0.6-12.7c0.2,0-0.2,0,0,0c0.5,1.4,0.9,2.8,1.4,4.2
						c-0.3-5.5-2.2-10.7-4.4-15.7c0-0.1,0.1-0.1,0.1-0.2c3.5,2.9,5.4,7,7.8,10.7c-1.4-5.3-4.1-9.9-8.3-13.7c0.1-0.1-0.1,0.1,0,0
						c5,3.1,9.3,7.2,13.3,11.4c9,5.4,17.1,12.1,26.1,17.5c3.8,1.7,6.7,4.4,9.5,7.4c1.7,1.7,3.4,3.3,4.8,5.1c3.1,3.8,4.6,8.5,6.3,13
						c0,0,0.1,0,0.4,0.2c-0.8-5.1-2.4-9.3-5.2-13.5c0.1-0.1,0.2-0.2,0.3-0.3c0.3,0.2,0.7,0.3,0.9,0.6c2.4,3,5.1,5.8,7.2,8.9l0.2-0.1
						c-1.7-2.7-2.9-5.7-4.6-8.4c-1.3-1.6-3.3-2.8-4.6-4.5c0.1-0.1,0.2-0.2,0.3-0.4c1.6,0.9,3.2,2,4.9,2.6c4.6,1.3,8.1,4.6,11.9,7.4
						c0.1-0.1,0.2-0.2,0.3-0.4c-1.4-1.8-3.7-2.6-4.9-4.5c0.1-0.1,0.2-0.1,0.2-0.2c0.8,0.2,1.6,0.5,2.4,0.7c-3.1-2.8-7-3.9-10.9-5.6
						c8.3-3.8,17.4-5.8,25.7-9.7c4.3-2.6,8.4-5.8,12.7-8.5c3.3-2.5,6.1-5.4,9.4-8.3c-4.4,0.8-7.8,5.5-11.4,8c-0.1,0.1-1,0.6-1.3,0.5
						c1.2-1.5,4.1-3.3,4.9-4.9c0.2-1.3,1.2-2.2,1.3-3.6c-1,0.9-2.2,1.6-2.9,2.7c-2.6,4-6.4,6.6-10.4,9c-5.3,3-10.2,6.7-16.2,8.2
						c-4.8,1.2-12.8,4.9-17.1,1.4c2-3.6,4-7.3,6.1-11c-0.1-0.1-0.3-0.2-0.4-0.2c-2.1,2.9-4.1,5.8-6.2,8.7c0-0.1-0.1-0.1-0.1-0.2
						c0.8-1.8,1.5-3.6,2.3-5.4c-0.1,0-0.2-0.1-0.2-0.1c-1.5,2.3-2.8,4.7-4.2,7c-0.6,0.9-1.7,0.4-1.9-0.5c-0.1-0.4,0-1,0.3-1.3
						c1.6-1.6,2.2-3.6,3.2-5.5c6.5-9.7,9-20.9,11.7-32.1c0,4.6-1.6,9-1.2,13.9c1.4-7,3.7-13,4.6-19.9c0.7-4.8,0.4-9.6,0.2-14.4
						c-0.3-2-1.2-3.5-1.5-5.6c3.2,2.3,3.8,5.9,5.8,8.6c-2-10.6-8.7-19.2-13.6-28.5c-1.8-3.7-5-6.1-7.9-8.9c0.5,1.3,1.2,2.5,1.8,3.7
						c-0.1,0.1-0.2,0.2-0.3,0.3c-2.8-2.3-4.8-5.3-7.2-8c-3.2-3.1-7.3-5.1-11.1-7.2c-5.8-3.1-12.9-0.6-18.6-3.8c0-0.1,0-0.3,0.1-0.4
						c3.4,0.1,6.7,0.2,10.3,0.4c-3.3-1.5-6.1-3.6-9.8-3.7c-1.6-0.1-3.3,0.2-4.7-0.6c0.9-0.5,1.8-0.9,2.9-1.4h-3.4
						c3.6-2.3,7.7-2.1,11.6-3.1c-4.1-0.8-5.5-1.7-9.4,0.3c-3.4,1.2-6.8,1.8-9.5,4.4c0.5,0.2,0.7,0.3,1.1,0.5
						c-11.3,2.2-18.7,7.6-21.2,19.4c-1.3,5.9,0.7,12.4,2.1,17.9c0.1-0.6,0.2-1.5,0.3-2.7c1.5,2.8,0.1,5.6,0,8.4
						c-0.6,7.9-2.5,16.8,2.5,23.7c-1.3-3.1-1.7-6.4-1.4-10c0.9,1.1,0.6,4.2,1.7,4.7c0,0.1,0.1,0.3,0.1,0.4h0.1
						c-0.2-0.9-0.2-1.8-0.3-2.6c1,2.9,1.1,6.1,3.1,8.5c-1.1-5.4-1.9-11-1.9-16.4c0.9-10.2,3.7-16.7-1.7-26.4
						c-0.5,5.1,0.7,10.1,0.6,15.2c-0.1,0,0.1,0,0,0c-0.9-6-4-11.7-3.7-17.9c0.2-7.9,6.6-16,15.2-14.6c2.3,0.5,4.8,0.5,7.2,0.5
						c4.5-0.2,8.7,1.3,12.9,2.6c5.1,1,10.1,2.5,15,4.3c3.3,1,6.4,2.5,9.1,4.6c5.3,3.6,8.5,9.3,11.9,14.5c3.9,5.9,6.8,12.3,7.9,19.4
						c0.3,1.2,0,2.6-0.2,3.8c-1,5.8-2.1,11.5-3.5,17.2c-0.3,1.3-0.8,2.6-0.8,3.9c0.1,2.7-1.1,5.1-1.7,7.7c-2.4,7.6-7.3,14-10.1,21.5
						c-0.7,1.5-2.4,5.3-4.4,3.9c-1.9-1.3-4-2.3-6-3.5c-4.6-4.2-7.5-10-11.3-15c-0.1,0-0.1,0.1-0.2,0.1c0.6,0.9,1,1.9,1.4,2.9
						c0,0.1-0.1,0.1-0.1,0.2c-0.3-0.3-0.6-0.5-1.1-1c0.9,3.2,3.4,5,4.8,7.7c-2.8-1.2-3.8-4-5.8-5.8c-2.1-1.8-3.5-4.4-5.5-6.4
						c1.1,2.3,2.8,4.2,3.7,6.6c-11-6.2-11.2-6.8-17.1-17.6c0.3,0.9,0.5,1.8,0.8,2.6c-2.8-4.1-5.2-8.4-7-13c0.5,2.1,1.1,4.2,1.7,6.6
						c-0.4-0.2-0.8-0.3-0.9-0.5c-2.4-4.9-5.1-9.6-6.1-15c-0.4,6,1.5,11.2,5.1,15.8c2.7,2.5,5.2,5.2,7.1,8.4c-0.1,0.1,0.1-0.1,0,0
						c-3.8-2.7-7.9-5.1-11.6-7.9c-3.4-2.6-8.5-2.5-10.8-6.6c-3.6-7-2.5-15.1-2.5-22.7c-0.3-5.9-1.1-11.9-1.3-17.8
						c0.3-3.9-0.1-7.9-0.1-11.9c-0.1-2.1,0.5-3.9,1.6-5.6c3.4-4.5,5.6-11.1,11.8-12.4c2.6-0.6,4.7-2.3,6.8-3.8
						c2.7-1.8,5.8-3,8.9-3.4c2-0.3,3.3-1.6,5-2.1c3.9-1,7.9-1.9,11.8-2.6c3.3-0.6,6.6-1.2,9.9-0.4c4.2,0.1,8.4,0.5,12.6,1.2
						c2.7,0.5,5.3,1.6,7.9,2.4c2.2-0.3,4.2,0.6,6.1,1.4c4.3,1.5,7.8,4.2,11.1,7.3c3.5,2.7,5.7,6.5,7,10.7c1.2,2.8,2.4,5.5,3.5,8.4
						c0.4,2.2,1.6,5.5-2.2,4.9c-2.7-0.2-4.8-1.8-7.3-2.7l-0.3,0.2c2.2,5.4,4.4,10.8,7.1,16c1.4,2.6,2.8,5.2,3.5,8.1
						c0.9,3.3,1.8,6.6,2.5,9.9c0.6,5.3,1.3,10.4,3,15.5c4.1-17.3,7.6-34.8,20.7-47.7c-3.5-3.7,0.9-2.3-0.5-6.9
						c-0.2-2.4-1.4-4.3-2.8-6.2c-5.1-7.5-10.4-15.4-18.4-20.2c-8.3-5.8-17.7-9.4-27.6-11.7c-5.8-1-11.9-0.5-17.8-0.8
						c-6.6-0.1-13.1-0.2-19.5,1.5c-14.3,2.4-28.9,4.2-42.1,10.6c-6.5,2.4-13,4.9-19,8.4c-1.3,0.4-3.7,3-4.8,1.8
						c-0.4-0.5-0.7-1-0.1-1.6c3.2-4,6.6-7.8,9.7-11.9c6.4-7,14-12.8,22.1-17.5c4.3-2.6,8.7-5.1,13.2-7.4c3.8-1.9,7.8-3.1,12-3.8
						c6.6-1.5,13.3-2.7,20-3.2c12.5,0.3,24.7,2.5,37.1,3.6c-0.1,0.2,0,0,0,0c11.5,4.3,24,6.6,33.9,14.3c3.6,2.8,7.1,5.6,10.7,8.3
						c4.4,2.9,8.5,6.1,11.9,10c1.2-1.9,2.1-5.3,4.9-4.3c1.9,0.6,3.9,1.1,5.4,2.3c2.8,2.5,6.6,6.5,4.2,10.4c-0.2,0.3-0.3,0.8-0.2,1.1
						c0.8,1.9,0.6,3.7-0.3,5.3c-2.8,5-5.7,9.8-8.5,14.8c-1.8,3.3-3.5,6.6-5.1,10c-1,3.3-1.6,5.5-5.5,3.6c-2,4-4.5,7.2-7.4,10.5
						c-6,6.6-9.4,14.8-11,23.6c-1.5,4-2.6,8.1-3.2,12.3c4.9-0.4,7.4,4.8,11.6,6.3c3.7,1.9,6,5,7.8,8.7c0.8,1.6,2,3.1,3.1,4.5
						c2,2.7,2.7,5.8,3.5,8.9c0.5,3.2,3.3,6.3,0,8.8c-2.1,1.9-3.4,4.2-5.6,6c0.7-4.9,1-9.7-1-14.3c-0.1,0-0.2,0-0.3,0v9.6
						c-0.4-2.1-0.8-4-1.2-6.1c-0.3,0.2-0.5,0.3-0.7,0.4c-0.4-1.4-0.3-3.1-1.1-4.2c-1.5-2-1.3-4.3-1.7-6.5c-0.6-2.4-1.6-4.4-2.6-6.8
						c-0.5,6,0.7,11.7,0.5,17.5c-0.4-3.1-1.1-6.1-2.2-8.9h-0.3v5.4c-0.1,0-0.2,0.1-0.4,0.1c-0.8-2.6-1.7-5.2-2.6-7.9
						c0.4,4.9-0.5,9.5-0.4,14.3c-0.2,2.4,0.6,5.1-0.1,7.4c-0.5-3.4-1-6.8-1.4-10.2c-0.1,0-0.2,0-0.3,0c-0.3,3.4-0.6,6.8-0.9,10.2
						c-0.1,0-0.2,0-0.3,0c-0.4-2.9-0.9-5.8-1.3-8.8c-0.4,4.5-0.6,8.7-1.7,13.1c-0.4,1.9-0.6,4-1.9,5.5c-5.3,5.7-10.4,11.9-17.9,14.7
						c-5.7,2.9-12.3,2.5-18.5,3.4c-6.5,0.4-13,1.6-19.5,0.8c-0.5-0.1-1.1-0.5-1.5-1c-2.9-2.9-6.1-5.3-7.7-9.2
						c-0.3,0.6-0.4,1.2-0.6,1.8c-2.4-0.9-1.7-3.1-3-4.7c-0.6,5.3,0,10.7,0.9,16c-0.1,0.1-0.3,0.1-0.4,0.2c-0.4-0.4-0.9-0.6-1.1-1.1
						c-2.5-4.9-4.6-10-5.7-15.3C-850.3-99.7-850.4-100-850.4-100.4"/>
				</g>
				<g transform="matrix(1,0,0,1,997.266,498.16)">
					<path d="M-899.5-480.3c-2.4-1.2-5.7,0.8-6-3c-0.3-1.3,0-2.9-1.2-3.8c-1.7,1.7,0.8,6.2-1.7,7.1c-1,0.3-2.2,0.3-3,1.1
						c0.7,1.3,2.2,1,3.4,1.2c0.8,0.1,1.4,0.2,1.4,1.2c0,1.4,0.7,2.8,1.1,4.1c0.1,0,0.3,0,0.4-0.1c0.4-1.2,0.3-2.6,0.3-3.8
						C-904.5-481.2-900.2-477.2-899.5-480.3 M-857.4-419.8c1-0.3,2-0.5,3-0.8c1.7-0.6,1.4-3.1-0.6-2.3c-3.2,1.1-2.9-3.3-3.5-5.3
						c-0.6,0.2-0.9,0.3-1.2,0.4c-0.2,1.6,0.6,5.3-0.6,6.3c-0.8,0.7-4.2,0.8-3.2,2.3c1.1,1.7,3.9-0.8,4.2,2c0.1,1.1,0.1,2.2,0.2,3.3
						c0.1,0.8,1.1,1.8,1.5,1.5C-856.4-414.1-857.5-417.7-857.4-419.8 M-1046.7-432.9c1.7-5-1.9-5.8,5-7.1c1.2-0.2,0.6-1.6-0.2-1.8
						c-2.1-0.3-4.3,1.4-4.7-2c-0.4-2.5,0.1-5-0.7-7.4h-0.4c-1.2,1.1-0.8,4.2-0.8,5.8c0.4,4-3.1,3.9-5.9,4.2c-0.4,2.9,6-0.2,6.2,2.4
						C-1047.8-437.3-1048.3-433.4-1046.7-432.9 M-863.6-425.6c1.4-1.7-0.3-5.4,2.2-6.3c1.5-0.6,3.3-0.3,4.4-1.6
						c-0.5-1-1.3-1.1-2.4-1c-1.7,0-2.2-0.5-2.3-2.3c-0.1-2.1-0.2-4.1-0.5-6.2c0-0.4-0.6-0.7-1-1c-0.4,0.5-1.2,0.9-1,1.7
						c0,1.9,0,3.8,0,5.7c0,1-0.4,1.6-1.5,1.6c-1.2,0.1-4.8,0-3.2,1.9c1.3,1.2,2.8,0.6,4.5,0.6c-0.1,1.3-0.2,2.6-0.3,3.8
						C-864.5-427.6-865-426.4-863.6-425.6 M-1031.9-461.9c-1.2,0.6-2.3,1.4-3.6,1.8c-1.8,0.6-4.9-1-5.2-2.8c-0.5-2.6-1-10.1,3.4-8.8
						c0.4,0,0.9,0.4,1-0.3c0.4-1.4-3.3-2.1-4.3-1.9c-8.7,2.8-1.5,20.4,4.7,16.7C-1033.9-458.4-1032.4-459.8-1031.9-461.9
						 M-1044.2-489.4c10.7-5.4,21.6-10.1,32.8-14.3c8-2.7,16.5-3.3,24.6-5.9c2.6-0.9,5.2-1.8,7.9-2.6c4.1-1,8.4-0.7,12.6-0.9
						c5.5-0.4,10.9,0,16.4,0.2c7.7,0.2,15.7,0.9,22.8,4c10.2,4.5,19.5,10.9,26.9,19.2c2.6,2.8,4.9,6,6.7,9.5
						c0.6,1.6,3.2,3.2,1.7,4.9c-1.1,1.4-0.9,2.8,0,4.3c0.9,1-1.9,3.6-2.4,4.6c-1.7,2.2-3.4,4.4-5.1,6.6c-2,2.6-3.2,5.7-3.9,8.9
						c-1.6,6.4-2.5,13.2-4.5,19.4c-1.8-2.6-1.9-5.7-2.4-8.7c-0.7-4.2-1.6-8.2-3.3-12.2c-2.2-6.1-3-11.3-8.1-16c3.1-2,9.2,2,9.6-3.2
						c0-5-3-9.3-4.9-13.8c-1.7-3.8-3.2-7.8-6.2-10.8c-5.9-6.6-7.4-6.2-15.3-9.2c-5.3-2.2-10.8-3.7-16.5-3.7
						c-7.4,0.1-14.8-0.6-22.1,0.3c-5.3,1.3-10.6,3.2-15.6,5.3c-4.2,1.9-8.6,3.2-12.5,5.7c-6.7,3-11.8,8.6-15.5,14.9
						c-1.5,7.1-1.3,14.5-0.5,21.7c0.4,5.3,1.9,10.4,1.4,15.8c-0.1,3.3-0.5,7-0.3,10.3c0.2,1.9,0.4,3.9,0.7,5.8
						c0.2,0.9,0.8,1.8,0.9,2.7c0.4,2.4-2.2,0.6-3.3,0.2c-4.4,0-9,1-13.2,2.1c-3.3,0.8-6.1-1.1-8.8-2.6c-2-0.8-4-1.5-6-2.3
						c-1.2-0.4-2.4-0.4-3.7-0.3c-2.6,0.1-5.2-0.5-7.8-0.6c-3.7,0.3-3.8-4.4-3.9-7c-0.8-6.7-0.3-13.5-0.9-20.2
						c0.6-4.6,2.6-9.1,2.8-13.8c0.4-3.8,1.7-7.2,3.2-10.7c5.6-13.5,10.6-27.5,20-38.9c2.8-3.7,6.2-6.9,9.9-9.8
						c10.7-8.8,22.1-17.5,35.6-21.6c9.1-1.9,18.4-3.4,27.5-5.2c19.4-2.2,38.6,2.5,56.7,9.3c13.6,5.2,27.2,11.2,38.7,20.3
						c6.3,4.9,10.6,11.6,15.7,17.7c1.9,2.5,3.2,5.6,5.3,7.8c4.8,5.1,6.7,15.9,8.3,22.6c0.9,13.4-0.1,27-1.7,40.3
						c-1.3,13.4-3.6,26.9-9.4,39.2c-1.6,2.6-10.5,21.7-13.7,16.3c-0.9-1.6-0.9-3.4-1.1-5.1c-0.5-5.3-4.4-9-7.4-13.1
						c-3.3-4.3-6.6-9.2-11.4-11.9c-1.5-1-5.3-1.3-5-3.5c0.3-5,1.6-9.8,3-14.6c0.9-3.3,2.7-5.9,4.7-8.5c3.4-4.8,6.8-9.7,10.4-14.4
						c2.4-3.3,3.2-0.7,5.6-3.8c2.4-5.3,4.5-10.7,7.2-15.8c2.4-5,9.8-14.6,9-19.8c5.7-5.3-5.9-13.9-9.7-17.1c-1.5-1.2-4.4-0.7-6,0.8
						c-0.8,0.8-1.6,0.9-2.5,0.3c-1.8-1.2-3.6-2.4-5.3-3.7c-17.8-14.1-32-22.5-54.8-26.4c-16.4-2.7-33.5-6.6-49.9-2
						c-14.4,3.8-27.8,11.4-39.2,20.9C-1030.5-513.2-1040.8-503.2-1044.2-489.4"/>
				</g>
				<g transform="matrix(1,0,0,1,312.967,1290.33)">
					<path d="M-366.5-1144.2c-0.1,0.1-0.3,0.2-0.4,0.2c-1.2,7.7-1.2,15.9-4.4,23.2c-0.5,1.1-1.3,1.5-2.4,1.3
						c-3.2-0.7-6.3-1.6-9.5-2.3c0.7,1.9,3,2.4,4.1,4c1.5,1.9,3,1.9,5.3,1.2c5.1-1.4,10.4-2.5,15.6-3.2
						C-360.5-1127.9-361.8-1136.9-366.5-1144.2 M-371.2-1103.7c1.9,5.6,4.2,11.9,10.2,13.6c1.2,0.4,2,1.2,2.7,2.3
						c2.6,4.3,5.4,8.6,8.2,12.8c1.5,2.2,4.7,4.1,3.2,7.2c-4.1,8.2-12.8,12.9-16.7,21.3c-1.8,3.7-3.1,7.1-5.8,10.5
						c-5.3-7.7-9.1-16-13.6-24.1c-7.8-14-13-29.2-19.2-44c-0.8-2.2-1.9-5.3-0.3-7.4c3.5-2.8,7-5.6,10.8-8.1
						c-4.2-7.7-12.3-6.7-12.6-13.2c-0.2-2.5-0.7-5-0.8-7.5c-0.1-2.3-0.1-4.6,0-6.9c0-1.2,0.6-2.5-0.5-3.4c-4.2-4.1-8.9-8-11-13.6
						c-2.4-6.1-5.4-12.3-6.2-18.8c0.4,0.1,0.8,0.1,1.1,0.2c6.3,3.8,13.2,6.6,20.2,9c1.5,0.5,2.8,1.6,4,2.6c5.9,4.9,12.9,8,20,10.5
						c5.4,2.4,11.4,3.9,15.9,8.1c7.1,6.3,15.7,10.5,24,15.1c0.3,0.2,0.7,0.7,0.8,1c0.8,6.1,2.7,12.1,3.3,18.2c0,5.1,1,4.7-4.3,4.4
						c-7.4,1.1-15.2,1.4-22.4,2.8c-1.6,0.4-3.3,0.3-5.1,0.5c3.4,0.6,6.7,1.4,10.1,1.5c6.3,0.6,13.5-4.9,19,0
						c5.5,4.7,10.9,9.5,16.2,14.4c2.3,2.4,4.9,4.6,1.6,8c-1.4,1.7-2.9,3.2-4.5,4.8c-4.2,4-5.9,9.8-9.6,14.1
						c-1.3,1.5-2.4,1.5-3.7-0.1c-3.1-3.8-6.2-7.4-9.3-11.2c-2.8-3.4-5.3-7.1-7.9-10.7c-0.9-1-2.8-2.1-1.5-3.7c2-2.6,3.5-5.1,5.2-8
						c-0.5-0.1-0.6-0.1-0.8-0.1C-362.4-1098.4-360.3-1099.4-371.2-1103.7"/>
				</g>
				<g transform="matrix(1,0,0,1,969.936,1292.34)">
					<path d="M-878.2-1114.5c-2.6,1.4-5.2,2.7-7.7,4.1c-0.3,0.1-0.5,0.4-0.6,0.7c-4.4,7.2-8.5,14.1-13,21.4
						c-5.6-5-9.1-11.3-12.7-17.5c-2.5,0.1-5.1,0.3-7.6,0.4c0,0.1-0.1,0.2-0.1,0.3c9.7,4.8,5.8,2.9,7.7,12.5c0.2,1.2,1.1,2.1,2.1,2.9
						c2.1,1.5,4,3.2,6,4.9c0.3,0.2,0.5,0.7,0.5,1.1c0,2.6-0.5,5.4,0.3,7.9c0.3,1.1,0.1,1.9-0.4,2.8c-2.6,4.8-5.1,9.6-7.8,14.3
						c-2.6,4-5.6,7.8-7.4,12.3c-0.3,0.6-0.5,0.8-1.2,0.3c-4.9-3.8-10.5-6.4-15.1-10.6c-3.4-2.5-3.6-6.2-2.6-10
						c0.3-4.8,0-9.7,0.1-14.5c0.1-3,2.3-4.7,4.5-6.3c2.1-1.6,4.2-3.4,6.4-5c1.8-1.2,1.9-2.6,1.4-4.5c-0.6-2.4-0.8-4.9-1.2-7.4
						c-2.6,0.7-5.5,1.6-7.5-0.8c-1.1-1.3-3.2-2.6-2.5-4.6c0.1-0.3,0.1-0.7,0.1-1c-0.1-4-0.3-8-0.1-12c0.1-2.8,1.2-4.4,4.4-4.6
						c5.5-0.1,10.9-0.6,16.3-1.5c2.7-0.2,5.4-0.2,8-0.7c0.2,0,0.5,0.2,0.7,0.4c2.2,2.3,4.4,4.6,6.6,6.9c0.3,0.3,0.6,0.8,0.6,1.2
						c0.3,4.6,1.2,9.2,2.9,13.7c0.8-3.7,1.1-7.4,1.5-11.1c0.2-2,1.2-3.6,2.1-5.3c1.5-2.8,2.9-5.7,4.3-8.6c0.6-1.5,5.9-2.2,7.6-3.1
						c4.8-1.7,9.8-2.9,14.8-3.7c6.1-1.1,11.4-3.6,17.1-5.9c0.9,4.5,1.4,9.1,3.2,13.4c2.3,3.5-0.5,6.7-1.6,9.9
						c-1,2.5-3.2,3.6-5.5,4.4c-4.8,2.1-10.1,1.7-15.2,2.5c-2.8,2.5-1.1,9.2-1.1,12.8c12.6-0.2,8.3-0.6,11.7,15.2
						c0.5,5.2,4.3,11.1-0.1,15.5c-3.7,3.4-8.1,5.7-12.2,8.5c-4.5,3.1-8.3,6.6-12.4,10.3c-4.6-8.8-9.2-17.4-13.8-26.2
						c-0.7-1.4-1.2-3-0.2-4.6c1.8-2.5,2.4-6.1,4.9-8c1.6-1.3,6.3-3.1,6.7-4.7c0.3-1.7,0.6-3.4,0.6-5.1
						C-884.7-1106.6-880.2-1110.1-878.2-1114.5"/>
				</g>
				<g transform="matrix(1,0,0,1,1204.33,789.516)">
					<path d="M-1060.7-538.3c-4.3-8.2-8.3-16.5-12.1-25c-0.5-1.6-1.5-3.8-0.3-5.3c3.1-4.9,4.8-10.8,9.1-14.7
						c1.6-1.6,3.4-2.9,3.8-5.3c-6.2,2.2-11.3,6.2-17.1,9.3c-2.7,1.5-5.2,3.5-8.6,4.2c-2.9-7.9-5-16.1-7.3-24.2c-0.1-0.4,0-1,0.2-1.4
						c2.2-3.1,4.3-6.2,6.7-9.1c2.1-2.1,5.4-3,7.7-4.9c1.2-1,2.1-2.2,3.2-3.4c2.5-3,5.6-5.6,7.6-9c-2.6,0.8-6.9,3.9-8.4,0.1
						c-1.7-4.9-1.4-10.1-1.3-15.2c0.3-2.2-0.3-5.3,1.9-6.6c9.7-5.6,19.9-10.5,29.6-16c7.8-4.9,15.4-10.2,23.3-15
						c3.3-2.4,5.7-4.5,10-4.8c0.6-0.1,1.2-0.1,0.9,0.8c-2,6.1-4,12.3-6.1,18.4c-1.6,3.8-3.1,7.5-3.7,11.6c-0.8,2.4-0.4,5.7-2.6,7.5
						c-4.8,3.5-10.7,4.3-16.5,5.1c-1,0.2-1.9,0.9-2.8,1.6c-7.5,6.1-14.6,12.8-20.7,20.3c-0.2,0.3-0.3,0.9-0.1,1.1
						c1.4,1.8,2.1,4,2.9,6.1c1.2,3,2.6,5.9,3.7,8.9c0.6,1.6,0.8,3.3,1.1,5c0.1,0.7,1,1.1,2,1c2.9-0.3,4.8-2,6.2-4.3
						c2.5-3.7,5.1-7.5,6.5-11.8c0.6-3.1,7.3-5.3,10.2-7.4c0.8,5.2,1.2,10.2,1.6,15.4c0.2,6.1,1.4,12.3-1.3,18
						c-5,11.7-14.1,21.2-20.3,32.3c-3,5.6-5.5,11.5-8.6,17C-1060.4-538.3-1060.6-538.3-1060.7-538.3"/>
				</g>
				<g transform="matrix(1,0,0,1,564.328,1021.82)">
					<path d="M-562.3-774.5c-3.1-4.4-6.8-8.3-10.8-11.9c-2.4-2.2-4.4-4.6-5.8-7.6c-0.9-1.6-2.6-2.7-1.2-4.6
						c2.6-3.9,13-22.3,18.4-16.7c2.4,2.3,6.7,4.3,5.8,8.3c-1.2,4.6,1.1,8.1,2.5,12.6c1.9-3.1,2.4-6.4,3.8-9.7c0.8-2.1,0.5-3.8-1-5.4
						c-2.2-2.3-4.4-4.8-6.6-7c-6.2-5.3-11.2-11.6-16.7-17.6c-8.9-9.1-7.4-8.1-9.4-20.4c-0.3-2.8-0.3-5.7-0.5-8.5
						c0-1.5,0.4-1.8,1.9-2c4.4-0.6,8.6,0.1,12.9,1.6c6.8,2.3,13.9,3.9,21.1,4.4c3.5,0.5,7,1.2,10.5,1.6c2.2,0.2,3.3,2.1,3.4,4.1
						c0.1,4.9,0.2,9.9,0.2,14.8c0,1.6-0.5,2.1-2.1,2c-4.7-0.2-9.3-0.9-13.6-2.9c-0.6-0.3-1.3-0.7-1.7-1.2c-2-2.5-3.9-5.2-5.8-7.8
						c-1.3-1.7-2.3,2.1-2.8,3c-1.1,3.3-2.1,6.7-3,10.1c-0.6,2.3-0.4,3.8,1.8,5c2.9-1.9,6-3.2,9.1-4.8c0.9-0.4,1.8-0.7,2.9-0.4
						c3.5,0.9,7.2,1.8,10.7,2.7c2.8-0.2,4,1.9,5.3,3.7c0.5,0.7,0.2,2,0.1,3c-0.4,3.7-0.8,7.4-1.3,11.1c-0.5,2.9-1.2,5.8-1.7,8.7
						c-0.2,1.4-1.4,1.9-2.2,2.5c-3.8,2.8-6.4,6.4-8.5,10.6c-1.5,3.1-3.4,6.1-5.4,9C-555.2-780.9-558.9-777.9-562.3-774.5"/>
				</g>
				<g transform="matrix(1,0,0,1,486.843,891.614)">
					<path class="st1" d="M-501.9-799.7c-1.4-1.6-3.3-5-4.4-1.2C-504.9-800.4-503.9-798.9-501.9-799.7 M-508.6-799.1
						c0.5,1.5-0.4,3.7,1.7,3.6c1.1,0,1-0.6,1.1-1.3C-505.4-798.8-507.2-798.3-508.6-799.1 M-522.8-812.2c-2.1,0.5-4.2,0.9-6.1,1.4
						c0.6,0.4,1.4,0.8,2,1.2c1.6-0.6,3.2-1.1,4.7-1.7C-522.3-811.6-522.6-811.9-522.8-812.2 M-503.8-796.7c-0.1,0.8-0.1,1.7-0.2,2.7
						c0.7,0,2.8,1.3,3,0.1C-501-795.7-501-797.1-503.8-796.7 M-535-808.9c-2.8,0.7-3.3,6.1,0.3,4.3
						C-535-806.1-535.1-807.4-535-808.9 M-515.4-799.8c0.5,1.1,2.3,3.9,3.5,3.7c0.6-1,1.7-2.2,0.1-2.8
						C-513-799.3-514.2-800-515.4-799.8 M-510.5-786.7c1.1-0.4,3.9-0.2,3.5-1.9c-0.8-1.2-2.9-0.9-4.2-1.2c-1-0.1-1.5,0.3-1.5,1.3
						C-512.7-787.2-512.2-786.8-510.5-786.7 M-564-807.3c0.1,0.1,0.1,0.2,0.2,0.3c2.2-1.2,4.4-2.3,6.4-3.4c-1-0.7-2-1.4-3.1-2.2
						C-562.2-811.4-562.8-809.1-564-807.3 M-528.2-808.2c-0.8-1.4-3.9-0.6-4.8,0.1c0,0.9,0,2,0.5,2.8c0.5,0.9,3.6,0.7,4.1,0.3
						C-528.3-806.2-528.2-807.1-528.2-808.2 M-529.3-813.3c-2.2-0.9-4.8-1.9-7.5-2.9c-0.2,1.4-0.4,2.8-0.6,4.3
						c0.7,0.2,1.4,0.6,1.9,0.5C-533.5-811.7-531.1-812.8-529.3-813.3 M-514.6-787.2c0.8-1.7,0.4-3.2-1.8-3.2c-0.3,0-0.7-0.1-1-0.3
						c-2.4-1-2.4-1-3.4,1.2C-522.6-786.5-516.1-787.6-514.6-787.2 M-551.7-813.4c-0.1-1.7-0.2-3.3-0.3-5.2c-2.1,1.5-4.2,2.9-6.4,4.4
						C-555.4-810.8-554.9-812.2-551.7-813.4 M-533.8-803.6c-0.8,0.3-2.3,0.7-2.7,1.5c-1.4,4.4,0.6,8.5,1.8,12.7
						c0.8-0.2,1.4-0.4,1.9-0.5C-533.8-794.2-536.5-799.7-533.8-803.6 M-514.2-802.9c0.7,1.2,4.4,2,5.4,1.5c0.5-0.4,0.3-1.7,0.7-2.3
						c0.3-1.2-1.1-3.6-2.4-3.8C-512.6-807.3-513.7-804.8-514.2-802.9 M-548.9-817.6c0.1,0.9-0.3,2.5,0.3,3.4
						c0.9,0.2,1.8,0.6,2.6,0.5c2.2-0.5,4.2,0.3,6.3,0.8c0.1-1.3,0.2-2.5,0.3-3.6c0.1-0.7-0.2-0.9-0.7-0.9
						C-543.1-817.4-546-817.5-548.9-817.6 M-514.2-809.3c-1.8-1.3-3.8-1.5-5.8-0.8c-0.9,0.5-9.3,2.8-6.5,4.1
						c3.8,1.6,4.3,0.1,7.5,0.4C-516.1-804.4-515.3-807.3-514.2-809.3 M-530.5-803c-3.1-0.2-2.8,2.8-2.2,4.9c0.7,2.5,1.3,5.1,2.3,7.5
						c0.5,1.2,2.6,1.3,2.9,0.1c-0.2-3.9-0.9-7.7-1.2-11.6C-528.6-803.2-529.7-803-530.5-803 M-526.2-803.9c-0.5,3.2,0.2,6.3,0.2,9.5
						c0.1,1.9,0.6,3.7,1.9,5.1c4.3-2.4,2.2-6.1,2.3-9.8C-521.6-802.1-523.9-802.6-526.2-803.9 M-538.5-810c-1.7,0.2-3.3,0.3-4.9-0.8
						c-1.6-0.7-3.6-0.7-5.4-0.9c-2.6,0.8-5.2,2.4-7.7,3.6c-2.1,1.5-4.4,2.8-6.9,3.5c-6.7-0.1-2.3-8.1,1.6-9.6
						c3.1-2.5,5.8-5.6,10-6.2c3.5-0.8,7,0.9,10.5,0.5c1.7-0.1,3.3,0.1,4.9,1.1c2.8,2.1,8.3,2.2,10.9,4.7c2.7-0.6,3.8-1.9,6.6-0.8
						c3.5,1.3,7,2.7,10.6,3.6c1.8,0.6,2.9,1.9,4,3.3c1.5,2,3.3,3.7,4.6,5.8c0.5,1.6,1.4,0.4,2,1.9c4.4,10.9,4.9,22.8,5.4,34.4
						c0.1,2.2,0.6,4.4,0.8,6.6c0.2,3.7-0.2,7.4,0.4,11.1c0.2,1.4-0.1,2.8-0.2,4.3c0,1.6-4,0-5,0.1c-2.5-0.5-4.9-1-7.3-1.5
						c-6.7-1.4-11.2-1.6-13.4-8.9c-1.1-3.2-1.9-6.6-2.7-9.9c-0.6-2.3-0.2-4.7-1-6.9c-1,4.9-0.3,9.7-0.4,14.5
						c-0.1-0.1-0.2-0.2-0.3-0.3c-0.1,0.3-0.2,0.5-0.2,0.8c-0.1,0-0.2,0-0.3,0c-0.4-4.4-1-8.7-2.5-13c0.2,3.8,0.3,7.6,0.5,11.4
						c-0.1,0-0.3,0-0.4,0.1c-1.4-4.3-1.3-8.9-1.5-13.3c0-1.9-0.9-3.2-2-4.9c0.4,6.3,1.4,12.1,1.2,18.3c-0.1,0-0.3,0.1-0.4,0.1
						c-3-7.7-1.8-16.4-2.5-24.6c0-0.7,0-0.7,0.8-0.6c2.7,0.6,5.3,1.3,8,1.9c4,0.4,8.2-0.1,12.2-0.9c2.4-0.5,4.1-2.5,6.6-2.9
						c4-0.7,3.7-0.5,4.3-4.6c-0.9,1.3-2.4,0.7-3.5,1c-0.8,0.2-1.6-0.3-2.4-0.3c-1.9,1.4-0.2,4-4.8,4.1c-3-0.1-6,0.8-9,0
						c-4-0.7-8.2-0.8-12.3-1.2c-4.8,0.9-6.7,0.4-9.1-4c-0.8-1.5-1-3.4-1.5-3.3c-2.3,0.4-5.7,2.6-6.9,0.5c-0.8-3.3,0.6-4.6,2-6.1
						c1.6-1.7,2.9-1.7,5-3.9C-539.6-803.4-539.2-808.9-538.5-810"/>
				</g>
				<g transform="matrix(1,0,0,1,354.252,803.408)">
					<path class="st1" d="M-398.6-669.6c-5.4-5.6-8.9-12.6-11.4-19.9c-0.9-2.7-3.5-8.8-2.7-9.4c5.8-4,5.5,3.7,11.7,5.1
						c0.9,0.1,1.2,0.4,1.1,1.2c-0.1,2.3-0.2,4.6-0.2,6.8c0,4.2-0.4,8.3,1.4,12.3c0.5,1.2,0.9,2.4,0.7,3.7
						C-398.3-669.7-398.5-669.6-398.6-669.6"/>
				</g>
				<g transform="matrix(1,0,0,1,592.608,1448.19)">
					<path class="st1" d="M-584.3-1183.5c-1-2.9-0.8-6.1-0.7-9.2c0.3-2.5,2.9-3.4,5-4c2.4-1.1,4.6-0.6,6.5,0.8
						c2.7-1.1,5.5-1.8,8.1-0.5c3.8,2,4.4,3.2,3.6,7.7c-0.4,1.7-0.7,3.5-1.5,5.1c-0.1,0-0.3,0-0.4,0c-0.6-2-1-4.1-1.1-6.2
						c0-1.3-0.7-2-1.9-2.1c-6.7-1.5-6.3,3.2-6.9,8.2c-1.8,0-1.4-6.5-1.9-8c-1.8-1.2-3.7-1-5.6-0.6c-3.1,1.1-2,6-2.6,8.6
						C-583.9-1183.5-584.1-1183.5-584.3-1183.5"/>
				</g>
				<g transform="matrix(1,0,0,1,873.865,1499.68)">
					<path class="st1" d="M-803.3-1244.6c2.7-1.6,5.4-3.3,8.8-2.2c0.6,4.3-1.6,5.3-5.2,5.9c0.8,1.4,1.6,2.8,2.3,4.1
						c0.2,0.5-0.1,1.3,0,1.9c-2.5-0.4-4.4-2.2-6.6-3.2c-1.5-0.6-4.4,3.1-5.9,4.1c-0.4-0.4-1.1-0.8-0.6-1.8c0.9-1.6,1.9-3.2,2.8-4.7
						c-2.4-1.3-5-2.9-5.6-6c0.5-1.8,3.5-1.9,4.9-1C-806.8-1246.6-805-1245.6-803.3-1244.6"/>
				</g>
				<g transform="matrix(1,0,0,1,511.574,1453.59)">
					<path class="st1" d="M-521.2-1189.3c-0.8-2.4-1.4-4.8-1.7-7.3c0-0.2-0.2-0.6-0.4-0.6c-2.5-0.8-5.5,0.3-5.3,3.4
						c-0.1,1.7,0,3.4-1,4.9c-1.6-2-2.4-5.5-2.5-8.1c0.3-4,5.6-4.9,8.8-5.1c2.7,0.1,2.5,1.6,5.8,0.8c10.2-1,7,4.7,5.6,11.5
						c-0.1,0-0.3,0-0.4,0c-0.6-2-0.9-4.2-1.4-6.2c-0.4-0.9-1.8-1-2.7-1.4s-2.7,0.4-2.9,1.4c-0.5,2.2-0.7,4.5-1.4,6.7
						C-520.9-1189.4-521-1189.4-521.2-1189.3"/>
				</g>
				<g transform="matrix(1,0,0,1,784.591,1479.45)">
					<path class="st1" d="M-733.8-1220.6c0.7,2.5,2.7,5.3,1.9,7.6c-2-0.3-5.6-6.1-7-4.5c-1.2,0.7-4.3,4.1-5.5,3.2
						c-0.8-1.1,2.3-4.4,2.9-5.7c-2.3-1.1-4.5-2.5-5-5.2c0.1-1.9,3.6-2.1,5-1.1c1.5,1,3.1,1.8,4.7,2.7c1.5-1.2,8.5-6.1,7.6-0.9
						C-729.5-1222.2-732.3-1221.8-733.8-1220.6"/>
				</g>
				<g transform="matrix(1,0,0,1,1041.67,1445.94)">
					<path class="st1" d="M-934.1-1180.2c-1-3.9-1.5-7.9-3-11.7c-0.8-3.6,0.6-3.5,3.6-4c1-0.2,2.4,1,2.2,2c-0.3,2.1-0.8,4.1-1.2,6.1
						c-0.4,2.5-0.7,5-1.1,7.5C-933.8-1180.2-933.9-1180.2-934.1-1180.2"/>
				</g>
				<g transform="matrix(1,0,0,1,985.114,1495.31)">
					<path class="st1" d="M-890-1240.3c0.2-1.3-0.7-3.6,1.1-3.9c1.1-0.1,2.1-0.7,3.4-0.1c1.2,0.6,0.9,1.3,0.8,2c-0.5,3-1.2,6-1.7,9
						c-0.3,1.2,0.1,2.5-0.8,3.5C-888.8-1230.9-889.9-1238.2-890-1240.3C-890.1-1240.3-890-1240.3-890-1240.3"/>
				</g>
				<g transform="matrix(1,0,0,1,952.904,1450.91)">
					<path class="st1" d="M-864.9-1185.5c-1.2-4-2.3-7.9-2.8-12c-0.3-1.5,1.2-1.4,2.2-1.9c1.3-0.5,2.8,0.4,2.6,1.7
						c-0.4,4-1,8.1-1.5,12.1L-864.9-1185.5z"/>
				</g>
				<g transform="matrix(1,0,0,1,549.035,717.919)">
					<path class="st1" d="M-550.3-628.6l-0.2-0.4c0.1,0.1,0.2,0.1,0.3,0.2C-550.2-628.7-550.3-628.7-550.3-628.6"/>
				</g>
				<g transform="matrix(1,0,0,1,787.669,837.415)">
					<path class="st1" d="M-736.2-722.1c-0.1,0.1-0.2,0.1-0.3,0.2c0.1-0.1,0.1-0.3,0.2-0.4C-736.3-722.2-736.3-722.1-736.2-722.1"/>
				</g>
				<g transform="matrix(1,0,0,1,669.195,768.297)">
					<path class="st1" d="M-643.9-668.6c0.1,0.1,0.1,0.3,0.2,0.4c-0.1-0.1-0.2-0.1-0.3-0.2C-644-668.5-644-668.6-643.9-668.6"/>
				</g>
				<g transform="matrix(1,0,0,1,653.402,773.369)">
					<path class="st1" d="M-631.6-672.1C-631.6-672-631.7-672-631.6-672.1c-0.3,0-0.4-0.1-0.2-0.3
						C-631.8-672.3-631.7-672.2-631.6-672.1"/>
				</g>
				<g transform="matrix(1,0,0,1,375.341,234.167)">
					<path class="st3" d="M-415.1-233.9c7-7.7,14-15.4,22.6-21.3c9.2-5.6,18.3-12,29-14.3c6.8-1.6,13.7-2.6,20.7-3.3
						c2.2-0.3,4.3,0.1,6.4,0.4c4,0,8,0.5,12,0.9c9.5,1.2,19.2,1,28.2,4.8c9.6,3.8,20.4,5.7,28.4,12.6c2.7,2.4,5,5,7.4,7.6
						c4.2,3.6,8.4,7,12.5,10.7c-4.6,7.1-8.6,14.4-11.2,22.4c-1.3,0-2.4,0.1-3.6-0.1c-2.2-12.3-15.1-26.7-26.1-32.2
						c-5.4-3.1-10.8-6.4-17.1-7.5c-5.1-1.2-10.2-2.9-15.5-2.9c-7.1-0.1-14.2-0.5-21.2-0.2c-10.3,1.2-20.6,3.1-30.8,5.2
						c-6.6,1.4-13.1,3.6-19.1,6.7c-7.6,3.2-15.1,6.5-22.3,10.4C-414.9-233.8-415-233.8-415.1-233.9"/>
				</g>
				<g transform="matrix(1,0,0,1,660.906,447.244)">
					<path class="st3" d="M-637.5-381.1c3.2-2.6,0.7-2.9,4.9-0.6c3.4,1.7,1.7-9.5,0.1-10.5c-1.3-1.1-5.9-7.6-6.9-3.8
						c-1.8,0.4-2.3,0.8-1.6,2.5c1,2.4,1.4,4.9,1.7,7.5C-639-384.2-638.8-382.5-637.5-381.1 M-661.7-398.5c-0.3,3.7,4,8.7,7,10.6
						c2.9,2.1,3.7-2.6,8.4-3.6c2.4-1,1.5-5,2.2-7.2c0.4-3.3,1.9-7.5-1.1-10.2c-3.3-2.2-8.6,1.6-11.7,3
						C-659.9-404.3-662-402-661.7-398.5 M-635.3-406.4c2.1,4.5,2.6,8.7,7.4,10.9c6.8,4.8,17.7-1,13.6-9.7c-0.8-1.7-2.2-3.2-3-4.9
						c-1.2-2.6-3.4-3.3-5.8-3.5c-5.4-0.4-17.6,1.6-12.7,9.3C-635.7-405-635.5-405.6-635.3-406.4 M-624.9-369.7
						c-1.1,0-3.3,1.3-3.8-0.3c-0.2-0.8-1-0.7-1.7-0.4c-1.2,0.3-0.3,1.4-0.3,2.2c-2.6,0.8-2.7,2.2-3.4-1.2c-0.1-0.8-0.6-0.9-1.2-0.7
						c-0.9,0.5-0.6,1.9-0.6,2.8c-3.6,0.5-1.2-2.3-2.9-3.7c-1.1,0.6-1.1,1.2-1.2,2.4c-1.1-2.5-2.4-4.9-3.5-7.4
						c-1.4-5.2-1.6-6.3-7.2-4.1c0.4,1.9,3.6-0.1,3.4,2.3c-3.5,1.1-5.8,2.4-8.9-0.4c-1.4-1.1-2.6-2.3-3.3-3.9
						c-0.3-0.7-1.2-1.1-1.8-1.7c-1.8-1.8-2.3-3.9-2.1-6.4c0.6-4.5-2-8.5-3.3-12.6c-1.5-6.4-1.9-7.1,3.6-11c2.1-2.3,7.3-2.8,8.3-5.3
						c-2.7,0-5.2,0-7.6,0c-0.9,0-2.2-1.3-2.2-2.2c0-3.2,0.4-7.1,3.6-8.8c3.9-2.8,4.4-3,8.8-1.4c6.8,2.9,13.9,5.2,20.8,8.1
						c1.6,0.7,3.1,1.3,4.9,1.3c0.7,0,1.5,0.4,2.2,0.8c-1.3,0.5-2.7,0.9-4.1,0.5c-3.9-1-7.3,0.4-10.9,1.8c2.7,0.8,4.9,0,7.6,0
						c2.7,0,5.5,0.2,8.2,0.2c2.5,0.1,5,0.3,7.6,0.5c0.2,0,0.5,0.2,0.6,0.3c1,1.2,2.2,2.4,3.1,3.8c2.8,4.7,6,9.2,6.7,14.7
						c0.8,3.3-1.6,5.8-2.2,8.9c-0.9,3.4-2.2,3.4-4.7,3.8s-5.1,0.5-7.5-0.4c-1-0.3-2,0.3-2.9,0.7c0.7,2.3,3.1,2.8,4.7,4.2
						c3.1,2.5,1.4,5.9-0.2,8.8c-0.6-1-1-2.5-2.4-1.8c-1.4,0.8,0.4,2.4,0.8,3.4c-0.7,0.4-1.4,0.9-2.1,1.3c-1.2-1.9-1.7-2.3-2.7-1.6
						C-626.4-371.5-624.5-370.7-624.9-369.7"/>
				</g>
				<g transform="matrix(1,0,0,1,835.693,684.257)">
					<path class="st2" d="M-773.6-676.5c3,2.5,4.9,6.3,8.7,7.8c-6.1-9.4-15.9-16.6-26.9-19.1c-2.6-0.7-5.4-1-7.8,0.3
						c3,0.3,5.9,1.1,8.6,2.4c0.8,0.3,1.2,1.3,1.9,1.8c1.4,1,2.8,2,4.3,2.7c3.7,2.3,6.6,5.6,10,8.3c-0.1,0.1-0.1,0.1-0.2,0.2
						c-0.3-0.1-0.6-0.2-0.9-0.3c-0.1,0.1-0.1,0.1-0.2,0.2c1.7,2.4,3.9,4.4,5.9,6.6c3.7,3.6,5.6,8.6,7.9,13.2c1.5,3.5,2.8,7,3.3,10.8
						c0.3,1.4,0.8,7.3,1.8,7.7v-5.6c1.9,6.3,4.3,12.5,3.6,19.4c0.3-0.9,0.6-1.8,0.9-2.7c0.1,0,0.3,0,0.4,0
						c-0.4,6.2,1.3,12.3-0.5,18.3c-0.1,0-0.3,0-0.4,0c-0.2-1.5-0.4-2.9-0.6-4.4c-0.1,0-0.1,0-0.2,0c-1.4,3.8-0.9,8.1-3.8,11.2
						c-3.4,3.8-6.3,8-10.4,11l-0.2-0.2c4.1-5.1,8.2-10.4,10.7-16.5c0.6-2,0.8-4,0.4-6.1c-0.2-3.7-0.9-7.5-1.1-11.2
						c1,1.6,2,3.2,3,4.8c0-4.9-1.1-9.5-2.3-14.1c-1.9-7.4-2-15.4-7.1-21.6c-4.6-6-7.6-13-12-19.2c-0.4-0.5-1.1-0.9-1.7-1.2
						c1.5,3.2,3.3,6.2,4.1,9.6c-4-5-8.1-10-13.1-14.1c0.4,1.8,1.6,3.2,2.5,4.8c-4.2-3.6-8.4-7.2-12.5-10.8c0.1-0.1,0.1-0.2,0.2-0.3
						c1.5,0.6,2.9,1.3,4.4,1.9c0.1-0.1,0.2-0.3,0.3-0.4c-4.6-4.9-11.8-6.1-18.2-7c-0.3,0-0.6-0.2-0.9-0.5c9.5-0.6,20.7-3.8,29,2.4
						c2.7,1.7,6,2.6,8.7,4.3c2.1,1.3,3.2,3.2,5.6,4.1c-0.9-2.2-2.5-3.5-3.9-4.9c0.1-0.1-0.1,0.1,0,0c5.6,3.2,11,7.1,13.1,13.4
						c0.7,1.9,1.6,3.8,2.3,5.7c0.5,1.4,0.3,2.5,0.8,4c-2.2-1.1-4.1-2.4-6.1-3.1c-2.3-0.7-3.5-2.6-5-4c-0.9-0.8-1.3-2.3-2-3.4
						c-1.3-2.1-3-4-4.1-6.2C-773.7-676.4-773.7-676.4-773.6-676.5"/>
				</g>
				<g transform="matrix(1,0,0,1,1017.12,643.023)">
					<path class="st4" d="M-914.9-579C-915-578.9-914.9-579-914.9-579 M-922.2-576.2c-0.8,3-1.3,6.1-1,9.2
						C-923.1-570.1-921.9-573.1-922.2-576.2 M-904.2-605.2c-4.6,6.6-8.8,13.6-12.8,20.5c-0.1,0-0.2-0.1-0.3-0.1
						c2.8-5.3,5.9-10.4,8.5-15.8c-0.1-0.1,0.1,0.1,0,0c-5,4.8-7.6,11.2-10.5,17.3c-1.3,3-1.1,6.2-1.9,9.3c-0.6,2.8-1.1,5.4-1.4,8.4
						c2.5-7.7,5.9-14.7,8.5-22.3c3.4-5.8,7.6-11.1,10-17.5C-904-605.3-904.1-605.3-904.2-605.2 M-918.4-567.3
						C-918.5-567.3-918.3-567.3-918.4-567.3l-2.3,3.9c-0.1,0,0.1,0,0,0c1.3-4.7,2.6-9.4,4.1-14c-3.3,7-6.7,14-6.3,22.2
						c0.3-0.7,0.7-1.2,0.9-1.8l0,0c-0.1,0.9-0.1,1.9-0.3,2.8c0.1-0.2,0.2-0.4,0.3-0.6 M-927-542.7c1.8-1.3,1.9-3.9,2.5-5.9
						c0.4-2.3-0.2-4.6-0.6-6.8c-0.2-2.2-0.4-4.5-0.5-6.5c-0.8,4.1-1.6,8.4-2.4,12.6c0.1,0-0.1,0,0,0c0.5-1.4,1.4-2.7,2-4.2
						c0.3,3.8-0.6,7.3-1.2,11C-927.2-542.6-927.1-542.7-927-542.7 M-913.6-603.7c-1.7,5.1-4.8,10.3-4.7,15.7
						c4.8-9.4,8.1-19.9,15.4-27.7c-1.9,4.4-5.8,8-6.8,12.9c3.3-3.8,5.5-8,8-12.2c1.6,0.7,3.7,0.5,4.5,2.4c-3.2,4.6-6.9,9-8.9,14.3
						c0.1,0.1-0.1-0.1,0,0c3.7-4.1,6.7-8.5,9.7-13.1c0.4,0.7,0.8,1.3,1.1,1.7c-6.2,8.7-14.2,16.2-18.1,26.4c-0.2,0.4-0.9,1-0.1,1.5
						c-0.5,0.9-0.9,1.8-1.5,2.9c0.5-0.2,0.7-0.3,1.2-0.6c-0.7,1.5-1.3,2.6-1.9,3.9c0.7-0.5,1-1.3,1.7-2c-2.7,9.1-5.6,18.2-8.2,27.4
						c-0.8,2.5-1.9,4.9-2.9,7.3c-0.8,1.6-3.5,2.5-5.2,3.4c0.6-2.1,0.5-4.2,1-6.2c-0.2-0.1,0.2,0.1,0,0c-0.7,1.9-1.5,3.7-2,5.6
						c-0.3,1.2-0.9,1.8-1.9,2.2c1.3-4.1,2.2-8.5,3.6-12.6c-0.2-0.1,0.2,0.1,0,0c-2.5,4.4-4.3,9.1-6.4,13.7c-0.7,1.7-2.4,2-3.8,3
						c2.3-9.4,7.8-17.4,11.4-26.2c2.2-5.4,2.6-11.4,4.7-16.9C-920.4-586-918.5-595.5-913.6-603.7L-913.6-603.7z"/>
				</g>
				<g transform="matrix(1,0,0,1,625.73,694.761)">
					<path class="st2" d="M-610.1-620.9c1.9,1.7,3,4,4.1,6.2c2.4,1.6,1,2.6,2.3,3.4c0.7-0.5,0.7-1.5,0.8-2.1
						c3.2,0.5,2.8,0.6,4.2,3.4c0.1,0,0.2-0.1,0.3-0.1c1.3-2.2-0.8-2.2,3.8-2.6c0.8,0.7,1.4,2.8,2.7,2c0.6-1,1-2,0.5-3.3
						c2.6-1,3-1,5,1c1.5-3.3-0.4-1.9,2.9-4.6c0.3,0.8,1.1,1.1,1.8,1.5c0.1-0.8,0.5-1.9-0.1-2.6c0.4-0.9,0.8-1.8,1.2-2.6
						c1.6,0.8,1.4,3.3,3.8,3.5c0.1-1.3,0.2-2.6,0.4-3.9c0.8-6-4.4-4.9,3.5-9.2c3.3-1.3,1.6,3.5,1.4,5.2c-0.4,5.1-2.9,9.7-3.2,14.8
						c-0.2,2.4-1.8,3.8-3.5,5.1c-5.6,4.4-7.3,5.2-14.4,5.9c-1.5,0.3-2.5-0.3-3.5-1.2c-8.2-7-11.2-8.5-14.1-19.5
						C-610.2-620.8-610.1-620.8-610.1-620.9"/>
				</g>
				<g transform="matrix(1,0,0,1,1056.2,349.877)">
					<path class="st2" d="M-945.4-324.9c1.8-6.1,5,2.4,7.9-2.9c2.8-5.9,5.9-11.5,8.8-17.3c0.8-2.4,3.4-5.7,1.2-7.9
						c-0.1-0.1,0-0.3-0.1-0.8c5.1,2.1,9.3,5.1,11.5,10.2c0.8,0.7,0.6,1.4,0.1,2.2c-2.1,3.1-4.1,6.3-6.2,9.5
						c-3.1,4.7-5.3,9.7-7.4,14.9c-0.7,1.6-1.4,3.4-3.4,3.7c-0.1-0.1-0.1-0.3-0.2-0.4c4.9-1.3-1.1-7.4-2.8-9.3
						c-1.7-1.5-4.3-1.8-6.5-2.5c-1.1-0.4-1.9,0-2.7,0.9C-945.1-324.8-945.2-324.9-945.4-324.9"/>
				</g>
				<g transform="matrix(1,0,0,1,901.188,807.178)">
					<path class="st4" d="M-825-710.9c1.4-1.2,3.5-2.2,4.6-3.7c0.1,0.1-0.1-0.1,0,0c-2.4,5.1-3.7,10.9-7.5,15.2
						c-0.7-0.3-0.7-0.7-0.4-1.4c1-1.8,1.9-3.6,2.7-5.4c-2.8,2.4-4.5,5.5-6.3,8.7c-0.1,0,0.1,0,0,0c1-2.5,1.5-5.2,2.6-7.7
						c-0.1,0,0.1,0,0,0c-3,3.5-5.6,7.2-8.3,11c2.2-6.2,4.5-12.3,9.7-16.8c-0.5,0.8-1,1.6-1.5,2.4c2.8-1.8,5.1-4.2,7.3-6.6
						c0.1,0.1-0.1-0.1,0,0C-823-713.7-824-712.3-825-710.9z"/>
				</g>
				<g transform="matrix(1,0,0,1,1147.09,301.291)">
					<path class="st5" d="M-1016.2-306.5c1-2.4,1.2-2.8,3.5-1.6c3.1,1.1,5.9,2.2,6.2,5.9c0,0.2-0.1,0.4-0.2,0.6
						c-1.3-1.3-2.5-2.6-3.9-4C-1013.4-305.5-1011.7-308.1-1016.2-306.5"/>
				</g>
				<g transform="matrix(0.951512,-0.307611,-0.307611,-0.951512,665.597,756.363)">
					<path class="st2" d="M-407.5,824.2c-0.1,0.3-0.1,0.6-0.2,0.9c0.1,0,0.1,0,0.2,0c0.1-0.3,0.1-0.5,0.2-0.8
						C-407.4,824.3-407.4,824.2-407.5,824.2"/>
				</g>
				<g transform="matrix(0.537363,0.843351,0.843351,-0.537363,836.178,929.828)">
					<path class="st2" d="M-1085.9-226.4h0.9v-0.2c-0.3,0-0.5,0-0.8,0C-1085.8-226.5-1085.9-226.5-1085.9-226.4"/>
				</g>
				<g transform="matrix(1,0,0,1,835.034,349.919)">
					<path class="st2" d="M-773.1-342c-0.1-0.1-0.1-0.3-0.2-0.4c0.1,0.1,0.2,0.1,0.3,0.2C-773-342.1-773.1-342-773.1-342"/>
				</g>
				<g transform="matrix(1,0,0,1,376.189,317.722)">
					<path class="st3" d="M-415.7-317.3c-0.1,0.1-0.3,0.1-0.4,0.2c0.1-0.1,0.1-0.2,0.2-0.3C-415.8-317.4-415.8-317.4-415.7-317.3"/>
				</g>
				<g transform="matrix(1,0,0,1,874.719,918.358)">
					<path class="st2" d="M-804-784.9c-0.2,0-0.3,0-0.3-0.2C-804.1-785.1-804-785.1-804-784.9"/>
				</g>
				<g transform="matrix(1,0,0,1,635.035,742.919)">
					<path class="st2" d="M-617.3-648.1c-0.1-0.1-0.1-0.3-0.2-0.4c0.1,0.1,0.2,0.1,0.3,0.2C-617.2-648.2-617.3-648.1-617.3-648.1"/>
				</g>
				<g transform="matrix(1,0,0,1,776.034,416.92)">
					<path class="st2" d="M-727.2-394.2c-0.1-0.1-0.1-0.3-0.2-0.4c0.1,0.1,0.2,0.1,0.3,0.2C-727.1-394.3-727.1-394.2-727.2-394.2"/>
				</g>
				<g transform="matrix(1,0,0,1,829.928,371.834)">
					<path class="st2" d="M-769.1-359.8c0.1,0.1,0.1,0.3,0.2,0.4c-0.1-0.1-0.3-0.2-0.4-0.2C-769.3-359.7-769.2-359.8-769.1-359.8"/>
				</g>
				<g transform="matrix(1,0,0,1,398.159,462.069)">
					<path class="st2" d="M-432.8-425.8c-0.5,2.1-2,3.5-4,4.6c-6.2,3.7-13.4-13.8-4.7-16.7c1-0.2,4.6,0.5,4.3,1.9
						c-0.1,0.8-0.6,0.4-1,0.3c-4.4-1.4-3.9,6.3-3.4,8.8c0.4,1.8,3.4,3.4,5.2,2.8C-435.2-424.4-434-425.2-432.8-425.8"/>
				</g>
				<g transform="matrix(1,0,0,1,1159.47,560.609)">
					<path class="st2" d="M-1025.8-488.1c-1.4-0.7-0.9-2-0.9-3c0-1.3,0.2-2.5,0.3-3.8c-1.6,0-3.2,0.6-4.5-0.6
						c-1.6-1.9,2-1.9,3.2-1.9c1.1,0,1.5-0.6,1.5-1.6c0-1.9,0-3.8,0-5.7c-0.2-0.8,0.5-1.2,1-1.7c0.3,0.3,0.9,0.7,1,1
						c0.2,2.1,0.4,4.1,0.5,6.2c0.1,1.7,0.5,2.3,2.3,2.3c1.1-0.1,1.9,0,2.4,1c-1.1,1.3-2.9,1-4.4,1.6
						C-1026.1-493.4-1024.4-489.8-1025.8-488.1"/>
				</g>
				<g transform="matrix(1,0,0,1,327.586,542.295)">
					<path class="st2" d="M-377-477.1c-1.6-0.4-1.2-4.4-1.4-5.8c-0.2-2.6-6.6,0.5-6.2-2.4c2.8-0.3,6.3-0.2,5.9-4.2
						c0-1.6-0.4-4.6,0.8-5.8h0.4c0.8,2.4,0.3,5,0.7,7.4c0.4,3.3,2.6,1.6,4.7,2c0.8,0.2,1.4,1.6,0.2,1.8
						C-378.9-482.9-375.3-482-377-477.1"/>
				</g>
				<g transform="matrix(1,0,0,1,1187.29,667.256)">
					<path class="st2" d="M-1047.5-588.9c-0.1,2.2,1,5.7-0.1,7.4c-0.4,0.3-1.4-0.7-1.5-1.5c-0.1-1.1-0.2-2.2-0.2-3.3
						c-0.4-2.8-3.1-0.3-4.2-2c-1.1-1.5,2.4-1.6,3.2-2.3c1.2-1,0.4-4.7,0.6-6.3c0.1-0.4,0.1-0.9,1.2-0.4c0.6,2,0.3,6.4,3.5,5.3
						c2-0.8,2.3,1.7,0.6,2.3C-1045.4-589.4-1046.4-589.2-1047.5-588.9"/>
				</g>
				<g transform="matrix(1,0,0,1,997.266,400.841)">
					<path class="st4" d="M-899.5-383c-0.7,3.1-5-0.9-5.3,3.9c0,1.3,0.2,2.6-0.3,3.8c-0.1,0-0.3,0-0.4,0.1c-0.4-1.4-1.1-2.7-1.1-4.1
						c0.1-1-0.6-1.2-1.4-1.2c-1.2-0.2-2.7,0.2-3.4-1.2c0.8-0.8,2-0.8,3-1.1c2.4-0.9,0-5.4,1.7-7.1c1.2,0.9,0.9,2.5,1.2,3.8
						C-905.2-382.2-901.8-384.1-899.5-383"/>
				</g>
				<g transform="matrix(1,0,0,1,312.967,1105.2)">
					<path class="st2" d="M-366.5-959c4.7,7.3,6,16.2,8.4,24.5c-5.3,0.7-10.5,1.8-15.6,3.2c-2.3,0.7-3.8,0.7-5.3-1.2
						c-1.1-1.6-3.4-2.1-4.1-4c3.2,0.7,6.3,1.5,9.5,2.3c1.2,0.3,2-0.2,2.4-1.3c3.2-7.3,3.2-15.5,4.4-23.2
						C-366.8-958.9-366.6-959-366.5-959"/>
				</g>
				<g transform="matrix(-0.989282,0.14602,0.14602,0.989282,408.749,776.24)">
					<path class="st2" d="M342.7-746.6c-2.1,1.6-4.3,2.5-3.7,5.4c0.6,3.6-0.9,7.6,3.7,9.4c1.1-1.6,1.3-3.4,1.2-5.3
						C343.5-740.3,343.7-743.5,342.7-746.6"/>
				</g>
				<g transform="matrix(1,0,0,1,357.747,777.937)">
					<path class="st2" d="M-401.4-689.3c0.8,0,1.8-0.2,1.9,1c0.3,3.9,1.1,7.7,1.2,11.6c-0.4,1.3-2.4,1.2-2.9-0.1
						c-1-2.4-1.6-5-2.3-7.5C-404.1-686.5-404.4-689.6-401.4-689.3"/>
				</g>
				<g transform="matrix(-0.259751,-0.965676,-0.965676,0.259751,380.741,664.925)">
					<path class="st2" d="M668.6,242.8c-1.7,1.6-4.3,3.1-2.3,5.6c1.1,3-0.2,3.9,2.3,7.1c2,2.3,2.1-6.4,2.3-7.4
						C671,246,670.4,244.2,668.6,242.8"/>
				</g>
				<g transform="matrix(1,0,0,1,274.116,671.938)">
					<path class="st2" d="M-336.2-597.9c3,0.1,5.9,0.1,8.8,0.2c0.6,0,0.8,0.2,0.7,0.9c-0.2,1.1-0.2,2.3-0.3,3.6
						c-2.1-0.5-4.1-1.3-6.3-0.8c-0.8,0.1-1.7-0.3-2.6-0.5C-336.6-595.4-336.1-597-336.2-597.9"/>
				</g>
				<g transform="matrix(0.133258,0.991081,0.991081,-0.133258,437.737,697.154)">
					<path class="st4" d="M-665-379.9c-1.8,0.8-4.2,2.2-4.1,4.3c0.4,1.2,2.9,2.3,4.1,1.9c0.6-0.5,1.9-0.4,2.2-1
						C-662.5-375.8-663.7-379.4-665-379.9"/>
				</g>
				<g transform="matrix(-0.997909,-0.0646367,-0.0646367,0.997909,326.665,777.355)">
					<path class="st2" d="M417.4-663.8c2.4,4.1-0.6,9.5-1.9,13.6c0.5,0.2,1.1,0.4,1.9,0.6c1.4-4.1,3.7-8.1,2.6-12.6
						C419.6-662.9,418.2-663.4,417.4-663.8"/>
				</g>
				<g transform="matrix(1,0,0,1,261.691,657.937)">
					<path class="st4" d="M-326.5-579.7c-3.3,1.2-3.7,2.7-6.7-0.8c2.2-1.5,4.3-3,6.4-4.4C-326.8-583.1-326.6-581.5-326.5-579.7"/>
				</g>
				<g transform="matrix(0.772696,-0.634777,-0.634777,-0.772696,430.941,775.706)">
					<path class="st2" d="M71.7,809.9c-0.9,1.3-6.7,4.5-3.4,5.7c2.2,1,2.2,1,3.4-1.3c0.2-0.3,0.4-0.6,0.6-0.9
						C74,812.1,73.4,810.7,71.7,809.9"/>
				</g>
				<g transform="matrix(-0.176918,-0.984226,-0.984226,0.176918,343.138,650)">
					<path class="st4" d="M630.9,278.4c-0.2,1.8-0.8,4.4-0.9,6.4c0,0.6,0.6,1.2,0.9,1.8c1.4-0.5,2.8-0.9,4.2-1.4
						C633.6,282.8,632.1,280.4,630.9,278.4"/>
				</g>
				<g transform="matrix(-0.555319,-0.831637,-0.831637,0.555319,346.72,692.283)">
					<path class="st2" d="M721.8-15.4c-0.9,0.7-1.6,1.2-2.5,1.9c-0.1,0.7,1.5,3.3,2.5,3.3c0.9,0,1.8-0.6,2.6-1.1
						C724.5-12.5,723.4-15.5,721.8-15.4"/>
				</g>
				<g transform="matrix(0.421534,0.906813,0.906813,-0.421534,204.274,676.831)">
					<path class="st5" d="M-656-5.5c-1.1,1.9-2.9,3.4-3.3,5.5c1.2,0.7,2.2,1.2,3.3,1.8c0.1-2.3,0.2-4.8,0.3-7.3
						C-655.7-5.4-655.9-5.4-656-5.5"/>
				</g>
				<g transform="matrix(0.976077,-0.217425,-0.217425,-0.976077,449.894,790.771)">
					<path class="st4" d="M-313.1,772.4c-1.7,0.5-2.1,1-1.8,2.3c0.2,1,0.8,1.3,1.8,0.9c1.2-0.6,3.3-0.7,3.8-2.1
						C-309.2,771.7-311.9,772.6-313.1,772.4"/>
				</g>
				<g transform="matrix(0.750044,0.661387,-0.661387,0.750044,287.151,757.185)">
					<path class="st2" d="M-695.7-273.8c1.2,0.7,2.3,2.3,2.9,3c-1,1.9-1.4,3.5-2.8,5.2C-696.5-268-696.4-271.2-695.7-273.8z"/>
				</g>
				<g transform="matrix(1,0,0,1,425.633,747.871)">
					<path class="st4" d="M-454.2-656.1c1.3-0.1,2.4,0.5,3.6,0.8c1.6,0.7,0.5,1.9-0.1,2.8C-451.9-652.2-453.7-655-454.2-656.1"/>
				</g>
				<g transform="matrix(1,0,0,1,337.117,717.262)">
					<path class="st4" d="M-385.3-634.6c-0.1,1.5,0,2.8,0.3,4.3C-388.6-628.5-388.1-633.9-385.3-634.6"/>
				</g>
				<g transform="matrix(1,0,0,1,478.468,761.364)">
					<path class="st5" d="M-495.4-666.4c2.7-0.4,2.8,0.9,2.8,2.8c-0.2,1.1-2.3-0.1-3-0.1C-495.5-664.7-495.4-665.6-495.4-666.4"/>
				</g>
				<g transform="matrix(-0.542483,-0.840067,-0.840067,0.542483,368.89,673.682)">
					<path class="st2" d="M718.9,17.7c-0.4,0-0.8-0.1-1.2-0.1c0.4,1.6,0.8,3.3,1.2,4.9c0.7,0.3,1.5,0.7,2.1,1.1
						C720.4,21.7,719.6,19.7,718.9,17.7"/>
				</g>
				<g transform="matrix(1,0,0,1,456.763,751.01)">
					<path class="st4" d="M-478.5-658.5c1.4,0.8,3.1,0.3,2.7,2.3c-0.1,0.7,0,1.3-1.1,1.3C-478.9-654.8-478-657-478.5-658.5"/>
				</g>
				<g transform="matrix(1,0,0,1,486.843,712.716)">
					<path class="st5" d="M-501.9-620.8c-2,0.8-3-0.8-4.4-1.2C-505.2-625.7-503.3-622.4-501.9-620.8"/>
				</g>
				<g transform="matrix(1,0,0,1,144.997,800.337)">
					<path class="st2" d="M-235.6-704.9c-7.6,0.7,1.6,10.1,2,2.1C-233.6-704.5-234.5-704.9-235.6-704.9 M-218.2-699.6
						c1.7,4.2,5.2,3.1,5-1.1C-213.4-704.2-218.1-702.5-218.2-699.6 M-241.6-697.9c0.7-3.2,1.3-6.4,2-9.6c2.2,0.6,4.7-1.2,5-3.1
						c7.8,1.5,15.6,2.1,23.2,1.5c1.2,1.5,2.2,2.7,3.2,3.9c-0.5,1.7-0.6,10.5-1.9,10.7c-8.3,2.1-1.1,7-16,2.5
						c-2.8-0.8-5.8-0.2-8.5-1.3C-238.5-694.3-236.5-697.2-241.6-697.9"/>
				</g>
				<g transform="matrix(1,0,0,1,1287.73,762.462)">
					<path class="st2" d="M-1125.7-662.9c2.1-0.3,3.3-1.6,3.6-3.6c1.1-5-7.2-4.3-9.9-2.5c-1.2,0.7-1.1,1-0.6,2.2
						c1.2,2.9,2.8,6.2,3.9,9.1c0.1,0-0.1,0,0,0c-0.2-1.6-0.5-3.6-0.7-5.2c2.8,0.7,3.1,3,3.5,5.3c0.1,0-0.1,0,0,0
						c0.3-1.6,1.1-3.3,1.4-4.8C-1124.9-662.6-1125.1-662.7-1125.7-662.9 M-1124.8-673.6c1.8-0.3,6.2,1.5,6.4,3.7
						c1.4,7.2-4.7,17.2-13,13.5c-2.6-2-4.1-5.6-4.4-8.9C-1135.9-670.2-1129.4-673.9-1124.8-673.6"/>
				</g>
				<g transform="matrix(1,0,0,1,670.659,536.984)">
					<path d="M-645.1-496.1c-0.2,0.7-0.4,1.4-0.6,2.1c-4.9-7.8,7.4-9.7,12.7-9.3c2.5,0.2,4.6,0.9,5.8,3.5c0.8,1.7,2.2,3.2,3,4.9
						c4.1,8.7-6.7,14.5-13.6,9.7C-642.5-487.5-643-491.7-645.1-496.1"/>
				</g>
				<g transform="matrix(1,0,0,1,551.175,536.588)">
					<path d="M-552-487.9c-0.3-3.5,1.8-5.8,4.7-7.4c3.1-1.4,8.4-5.2,11.7-3c3,2.6,1.5,6.8,1.1,10.2c-0.7,2.2,0.2,6.2-2.2,7.2
						c-4.6,1-5.4,5.6-8.4,3.6C-548-479.2-552.3-484.2-552-487.9"/>
				</g>
				<g transform="matrix(1,0,0,1,660.906,536.459)">
					<path class="st1" d="M-637.5-470.3c-1.4-1.4-1.5-3.2-1.7-4.9c-0.3-2.6-0.7-5.1-1.7-7.5c-0.7-1.8-0.2-2.2,1.6-2.5
						c1-3.2,4,1,5.2,2.1c1.3,1.2,2.6,2.6,3,4.4c0.1,1.5,1.7,9.1-1.4,7.9C-636.8-473.1-634.3-472.8-637.5-470.3"/>
				</g>
				<g transform="matrix(1,0,0,1,1066.2,665.044)">
					<path class="st6" d="M-953.2-627c-2.4,6.2-6.6,11.4-9.9,17.1c-2.6,7.6-6,14.6-8.5,22.3c0.3-3,0.7-5.6,1.4-8.4
						c0.8-3.1,0.6-6.3,1.9-9.3c2.8-6.2,5.5-12.6,10.5-17.3c0.1,0.1-0.1-0.1,0,0c-2.6,5.4-6.1,10.4-8.2,15.9c0.1,0-0.1,0,0,0
						c4-7,8.2-13.9,12.8-20.5C-953.2-627.2-953.2-627.1-953.2-627"/>
				</g>
				<g transform="matrix(1,0,0,1,984.798,612.749)">
					<path class="st7" d="M-889.8-524.6c0.1-0.7,0.1-1.4,0.2-2.1c0,0-0.1,0-0.1-0.1c-0.2,0.6-0.5,1.1-0.8,1.9
						c-0.4-8.2,3-15.2,6.3-22.2c-1.4,4.7-2.8,9.3-4.1,14c0.1,0,0.2,0.1,0.3,0.1l2-3.9c0.1,0-0.1,0,0,0c-1.1,4.2-1.7,8.5-3.6,12.5
						C-889.7-524.6-889.7-524.6-889.8-524.6"/>
				</g>
				<g transform="matrix(1,0,0,1,961.805,683.255)">
					<path class="st7" d="M-871.8-583.2c0.6-3.6,1.4-6.9,1.1-10.6c-0.6,1.5-1.5,2.8-2,4.2c-0.1,0,0.1,0,0,0
						c0.8-4.3,1.6-8.5,2.4-12.6c0.2,2.1,0.3,4.3,0.5,6.5c0.4,2.3,0.9,4.5,0.6,6.8c-0.6,2-0.6,4.6-2.5,5.9
						C-871.7-583-871.8-583.1-871.8-583.2"/>
				</g>
				<g transform="matrix(1,0,0,1,984.102,659.644)">
					<path class="st8" d="M-889.2-592.8c0.3,3.1-0.8,6.1-1,9.2C-890.5-586.7-890-589.8-889.2-592.8"/>
				</g>
				<g transform="matrix(1,0,0,1,962.645,769.155)">
					<path class="st7" d="M-872.5-668.8c-0.1,0.1-0.2,0.1-0.3,0.2c0-0.1,0.1-0.3,0.1-0.4C-872.6-669-872.6-668.9-872.5-668.8"/>
				</g>
				<g transform="matrix(1,0,0,1,1017.12,606.811)">
					<path class="st1" d="M-914.9-542.8C-914.9-542.8-915-542.7-914.9-542.8"/>
				</g>
				<g transform="matrix(1,0,0,1,1065.57,486.815)">
					<path class="st6" d="M-952.7-449c0.1-0.1,0.2-0.1,0.3-0.2c-0.1,0.1-0.1,0.3-0.2,0.4C-952.6-448.9-952.6-448.9-952.7-449"/>
				</g>
				<g transform="matrix(1,0,0,1,197.839,768.095)">
					<path class="st5" d="M-276.8-663.4c0.3-1.6,0.5-3.3,0.8-4.9c4.1,0.2,1.3,3.7-0.4,5.1c-0.1,0.1-0.3,0.2-0.4,0.1"/>
				</g>
				<g transform="matrix(0.927356,0.374181,0.374181,-0.927356,180.715,787.618)">
					<path class="st5" d="M-498.8,534.9c-0.4,1.7-0.7,3.3-1.1,4.9c-0.2,0.9,0.5,0.7,1.1,0.9c0.4-1.8,0.8-3.6,1.1-5.3L-498.8,534.9z"
						/>
				</g>
				<g transform="matrix(-0.834883,-0.550427,-0.550427,0.834883,187.644,756.228)">
					<path class="st5" d="M586.3-405.4c-0.4,1-0.7,2-1.1,3c0.3,0.1,0.6,0.2,1.1,0.3c0.3-0.8,0.7-1.7,1-2.6L586.3-405.4z"/>
				</g>
				<g transform="matrix(1,0,0,1,184.535,746.617)">
					<path class="st5" d="M-266.4-648.7c-0.5-0.3-0.9-0.5-1.3-0.7c0.5-1,0.8-1.4,2-1.9C-266-650.4-266.2-649.7-266.4-648.7"/>
				</g>
				<g transform="matrix(1,0,0,1,1269.24,758.89)">
					<path class="st4" d="M-1110.8-663.7c1.8-0.5,2.9-0.4,4.5,0.6c-0.3,1.4-1.6,1.6-2.7,1.8
						C-1111.5-660.4-1110.9-661.2-1110.8-663.7"/>
				</g>
			</g>
			<g id="currency" class="bills">
                             <g transform="matrix(1,0,0,1,179.242,778.01)">
                                     <g id="dollar">
                                         <path class="st7" d="M-262.3-680.1c0.2-0.9,0.4-1.6,0.7-2.6c-1.2,0.5-1.5,0.9-2,1.9C-263.2-680.7-262.8-680.4-262.3-680.1
                             M-259.1-682.9h-1.2c-0.2,0.9-0.4,1.9-0.6,2.7c0.5,0.1,0.8,0.2,1.1,0.3C-259.6-680.9-259.4-681.9-259.1-682.9 M-262.2-673.1
                            h1.2c0.3-1.8,0.6-3.6,0.9-5.4c-0.5,0-1.1-0.4-1.3,0.4C-261.6-676.4-261.9-674.8-262.2-673.1 M-259.6-673.1
                            c0.1,0.1,0.4-0.1,0.6,0c1.8-1.4,4.6-4.9,0.4-5.1L-259.6-673.1z M-260.2-670.2c-0.3-0.2-0.8,0.1-1.1-0.2
                            c-0.1-0.1,0.1-0.6,0-0.7c-0.4-0.1-1-0.2-1.3-0.1c-0.3,0.1-0.2,0.6-0.5,0.7c-0.3-0.2-0.8-0.1-0.8-0.3c0-0.1,0.1-0.6,0.1-0.7
                            c-1.1-1.4-4.2-4-0.7-5.6c0.1,0.1,0.3,0.1,0.4,0.2c0.8,1-1.7,2.7,0.3,3.6c0.2,0.1,0.3,0.1,0.4,0.1c0.3-1.6,0.7-3.5,0.9-5
                            c-3.9-1.3-3.5-5.1,0.2-6c0.8-0.1,1.1-0.4,1.2-1.1c0.1-0.8,0.5-0.8,1.1-0.7v1.4c0.7,0.1,1.3,0.5,1.3,0.1c0-1.6,0.9-1.6,1.3-0.9
                            c0.1,0.3-0.2,0.9-0.1,1.2c1.9,0.9,2.6,2.5,1.3,3.9c-2,0-0.4-1.5-0.7-2.2c-0.1-0.2-0.6-0.1-0.9,0c-0.2,0.9-0.4,1.9-0.4,2.8
                            c3.6,0.2,4.2,4.4,1.7,6.5c-1,0.9-1.9,1.9-2.8,1.8c-0.5,0-0.4-0.2-0.6,0.3"/>
                                    </g>
                                </g>
				<g transform="matrix(1,0,0,1,175.11,750.122)">
				     <g id="yen" class="bills">
			                 <path class="st9" d="M-259.1-647.1c-0.9-0.1-1.8,0-2.3-0.7c-0.2-0.3-0.5-0.6-0.3-1c0.2-0.3,0.5-0.3,0.9-0.4
							c0.6-0.1,1.1,0.3,1.7,0.2c0.3,0,0.7,0.1,0.6-0.4c0-0.4-0.4-0.3-0.6-0.3c-0.7,0-1.4,0-2.1-0.4c-0.6-0.3-1.1-0.7-0.9-1.3
							s0.9-0.4,1.4-0.2c0.5,0.1,1,0.2,1.6,0.1c-0.4-1-1-1.8-1.6-2.7c-0.3-0.4-0.6-0.8-0.8-1.3c-0.2-0.4-0.7-0.9,0.1-1.3
							c0.6-0.3,1.2-0.3,1.5,0.3c0.8,1.3,1.8,2.4,2.3,3.8c0.3,1,0.9,0.7,1.2,0.3c0.9-1.2,2.1-2.1,3.2-3.1c0.5-0.4,0.9-0.8,1.6-0.9
							c0.8,0,1.1,0.3,0.8,1.1c-0.4,1.2-1.5,1.7-2.4,2.5c-0.5,0.4-1,0.7-1.5,1c-0.5,0.4-0.2,0.6,0.2,0.7c0.4,0.1,0.9,0.2,1.3,0.2
							c0.8,0.1,0.8,0.5,0.8,1.1c0,0.7-0.5,0.7-1,0.7c-0.9-0.1-1.8-0.3-2.7-0.4c-0.3,0-0.6-0.2-0.7,0.3c-0.1,0.4,0.3,0.3,0.5,0.4
							c0.9,0.3,1.8,0.4,2.7,0.4c0.6,0,0.8,0.3,0.8,0.8s-0.3,0.8-0.8,0.8c-0.9,0-1.8,0-2.8,0c-0.5,0-0.9,0.2-0.8,0.7
							c0,0.3-0.1,0.5-0.2,0.7c-0.2,0.5-0.3,1.1-0.9,1c-0.5-0.1-0.9-0.7-0.9-1.3C-259.5-646-259.4-646.5-259.1-647.1"/>
					</g>
				</g>
				<g transform="matrix(1,0,0,1,208.437,772.203)">
				    <g id="W" class="bills">
					    <path class="st9" d="M-285.1-674.1c-0.1,0.7-0.8,0.4-1.2,0.6c-0.5,0.2-0.4-0.3-0.4-0.5c-0.1-0.8,0.5-0.3,0.8-0.5
							C-285.6-674.4-285-674.7-285.1-674.1 M-286.5-669.1c0,0-0.5-2.1-0.4-2.4c0-0.2,1.5-0.3,1.5-0.2
							C-285.1-671.6-286.5-669.1-286.5-669.1 M-291.4-673.2c-0.3,0.1-0.6,0.2-0.8,0.2c-0.6,0-1,0-1-0.6c0-0.7,0.5-0.4,0.9-0.5
							c0.2,0,0.5-0.1,0.8-0.1s0.8-0.4,0.9,0.1C-290.6-673.7-290.9-673.3-291.4-673.2 M-292.3-669.6L-292.3-669.6
							c0,0-0.7-1.5-0.7-1.8s0.6-0.4,1-0.4l0,0c0.3,0,0.5,0.1,0.5,0.2C-291.3-671.2-292.2-669.7-292.3-669.6 M-281.7-676
							c-1-0.1-0.5-0.6-0.5-1.2c0.1-0.7,1-1.6,0-2c-1-0.3-1.2,0.9-1.3,1.6c-0.3,1.5-1.4,1.6-2.5,1.7c-0.7,0.1-1.1-0.1-1.4-0.9
							c-0.1-0.4,0-1.3-0.7-1.3c-0.8,0-1,0.8-1.3,1.3c-0.1,0.2-0.3,0.4-0.4,0.7s-0.3,0.4-0.6,0.4c-1.1,0.1-2.4,0-3.3-0.4
							c-0.6-0.2-0.7-1.6-0.9-2.4c0-0.1-0.1-0.3-0.2-0.4c0-0.5-0.4-0.6-0.8-0.5c-0.4,0-0.5,0.3-0.5,0.7c0,0.8,0.2,1.6,0.4,2.4
							c0.1,0.3,0.3,0.6-0.3,0.8c-0.4,0.1-0.9,0.3-0.8,0.9c0.1,0.5,0.5,0.8,1,0.8s0.7,0.2,0.7,0.6c0,0.4-0.4,0.2-0.7,0.3
							c-0.2,0.1-0.5-0.1-0.6,0.3c-0.1,0.3,0.1,0.5,0.3,0.7c0.1,0.2,0.4,0.3,0.6,0.3c0.7,0.1,0.9,0.5,1,1.2c0.1,0.8,0.2,1.6,0.5,2.4
							c0.2,0.6,0.4,1.3,1.2,1.3c0.8,0,1.3-0.6,1.5-1.3c0.3-0.9,0.6-1.8,0.9-2.7c0.2-0.6,0.6-0.9,1-0.8c0.6,0.1,1.1-0.1,1.1,0.5
							c0.1,1,0.3,2.1,0.3,3.1c0,0.8,0.4,1.2,0.8,1.7c0.3,0.4,0.9,0.4,1.1-0.2c0.6-1.4,1.1-2.8,1.6-4.3c0.3-1,0.7-1.6,1.8-1.5
							c0.5,0,0.7-0.3,0.7-0.7s0.1-0.8-0.4-0.9c-0.3,0-0.7,0-0.7-0.5s0.5-0.4,0.9-0.4s0.6-0.2,0.7-0.6
							C-281.5-675.5-281.5-675.9-281.7-676"/>
					</g>
				</g>
				<g transform="matrix(1,0,0,1,183.491,779.369)">
					<g id="EU" class="bills">
						<path class="st9" d="M-265.6-682.9c1.4,0.1,2.6,0.4,3.9,0.7c0.5,0.1,0.7,0.4,0.6,0.8c-0.1,0.4-0.3,0.7-0.9,0.6
							c-1.3-0.3-2.6-0.5-4-0.7c-0.3,0-0.7-0.2-0.8,0.1c-0.1,0.4-0.1,0.9-0.1,1.4c0.1,0.4,0.5,0.3,0.8,0.2c1.3-0.3,2.6-0.3,3.9,0
							c0.4,0.1,0.8,0.1,0.8,0.7c0,0.6-0.4,0.6-0.9,0.7c-1.4,0.1-2.8-0.4-4.3-0.2c0.2,1,1.5,2.4,2.5,2.6c0.9,0.2,1.6-0.3,2-1
							c0.2-0.4,0.5-0.7,0.9-0.7c0.6-0.1,1.1,0,1.2,0.9c0,1.5-1,3.3-2.2,3.7c-1.5,0.5-3.7-0.1-4.7-1.2c-0.9-1.2-1.9-2.4-2.2-4
							c-0.1-0.4-0.3-0.4-0.6-0.4c-0.7,0.1-1-0.6-1-1c0-0.5,0.5-0.7,1-0.6c0.1,0,0.4,0.2,0.4-0.1c-0.1-0.5,0.3-1.1-0.3-1.4
							c-0.5-0.2-0.9-0.6-0.7-1.2c0.2-0.6,0.8-0.5,1.2-0.3c0.3,0.1,0.4-0.2,0.5-0.3c1.6-2.5,3.9-3.4,6.8-3.1c1.8,0.2,2.9,2.2,2.1,3.8
							c-0.3,0.7-0.9,0.8-1.4,0.2c-1.2-1.4-2.2-1.6-3.8-0.5C-265.2-683.2-265.4-683-265.6-682.9"/>
					</g>
				</g>
				<g transform="matrix(1,0,0,1,179.505,764.418)">
					<g id="pound" class="bills">
						<path class="st9" d="M-262.5-664.5c-1-0.1-2.3,0.2-2.4-1.3c-0.1-0.8,0.8-0.4,1.3-0.7c-0.6-1.5-0.6-2.8,0.5-4.1
							c1-1.2,3.2-1.7,4.6-1c0.8,0.4,1.2,1.1,1.2,2.1c0,0.6-0.2,1.1-0.7,1.3s-0.9-0.4-1-0.9c-0.2-0.6-0.4-1.1-1.2-1
							c-0.8,0.1-1.4,0.3-1.7,1.1c-0.5,1.2,0.2,2.8,1.4,3.2c1,0.3,1.9,0.6,2.9,0.8c0.5,0.1,0.9,0.2,0.8,0.8c-0.1,0.5-0.4,0.8-1,0.8
							c-0.8,0-1.5-0.2-2.2-0.4c-0.4-0.1-0.7-0.1-0.8,0.4c-0.1,0.3-0.2,0.7-0.4,1c-0.8,1.4-0.8,1.4,0.7,2c0.9,0.3,1.8,0.6,2.8,1
							c0.5,0.2,1,0.4,0.8,1c-0.2,0.7-0.7,1.1-1.4,0.9c-0.6-0.1-1.3-0.3-1.8-0.7c-0.9-0.7-1.9-0.6-2.8-1c-0.2-0.1-0.5-0.1-0.7,0
							c-0.8,0.4-1.2,0-1.5-0.7c-0.4-0.8,0.2-0.9,0.6-1.2C-264-662-262.9-663-262.5-664.5"/>
					</g>
				</g>
				<g transform="matrix(1,0,0,1,189.712,784.807)">
					<g id="rupee" class="bills">
						<path class="st9" d="M-270.5-687.4c-1.1-1-2.2-2.1-3.8-2.2c-0.6,0-0.9-0.4-1-0.9c-0.1-0.7,0.6-0.7,1-0.8
							c1.9-0.5,3.8-0.1,5.7,0.1c0.8,0.1,1.6,0,2.4,0.3c0.3,0.1,0.8,0,0.8,0.5c0,0.4-0.2,0.8-0.6,1c-0.9,0.4-1.8-0.1-2.7-0.1
							c-0.3,0-0.5-0.2-0.9,0.1c1,0.6,1.6,1.4,2.1,2.3c0.2,0.3,0.7,0.4,1.1,0.4c0.7,0,1.3,0.3,1.5,1c0.1,0.4,0,0.8-0.2,1
							c-0.2,0.3-0.5,0.1-0.8,0c-0.2-0.1-0.5-0.2-0.7-0.2c-0.6-0.2-1-0.2-1.4,0.5c-0.7,1.3-1.6,2.4-3.3,2.6c1,0.9,2.1,1.3,3.1,1.9
							c0.6,0.4,1.2,0.7,1.8,1c0.6,0.4,0.6,1,0.3,1.6c-0.3,0.6-0.8,0.3-1.2,0.1c-2.6-1.2-4.8-2.9-7.1-4.4c-0.8-0.5-1.7-1-2.3-1.8
							c-0.3-0.3-0.4-0.6-0.2-1c0.2-0.4,0.5-0.3,0.9-0.3s0.8,0.1,1.1,0.4c1.6,0.9,3.9,0.8,4.9-0.5c0.3-0.5,0.4-0.7-0.3-0.8
							c-1.5-0.1-3-0.3-4.5-0.4c-0.4,0-0.8,0-1.1-0.4c-0.2-0.3-0.5-0.6-0.4-1c0.2-0.4,0.6-0.2,0.9-0.2
							C-273.8-687.6-272.2-687.6-270.5-687.4"/>
					</g>
				</g>
			</g>
			<g id="bill" transform="matrix(1,0,0,1,118.013,757.173)" class="bills">
				<path class="st1" d="M-214.6-654.7c5.1,0.6,3.2,3.6,6.9,4.6c2.8,1.1,5.7,0.4,8.5,1.3c14.9,4.5,7.7-0.3,16-2.5
					c1.3-0.2,1.4-9,1.9-10.7c-1-1.2-2-2.5-3.2-3.9c-7.6,0.6-15.4,0-23.2-1.5c-0.3,1.9-2.8,3.7-5,3.1
					C-213.3-661.1-214-658-214.6-654.7 M-180.5-643.4c-1.3-0.7-2.4-0.3-3.6,0c-2.8,0.4-5.9,0.4-8.7,0.1c-7.7-2.7-15.7-4.3-23.8-5.8
					c-0.4-0.1-0.9-0.4-0.7-1.2s-0.1-1.7-0.1-2.6c0.4-5.9,1.8-11.7,4.4-17c0.6-1.3,1.3-1.4,2.6-0.9c2,0.6,4.1,1.1,6.1,1.5
					c4.2,0.6,8.5,0.5,12.7,0.7c4.2-0.4,8.4-1.2,12.7-1.5c0.6-0.1,0.9,0.3,0.8,0.9C-179.5-660.8-179.9-652.2-180.5-643.4"/>
				<g transform="matrix(1,0,0,1,144.997,793.021)">
					<path class="st1" d="M-353.7-1454.7c1.1,0,2.1,0.4,2,2.1C-352-1444.6-361.3-1454-353.7-1454.7"/>
				</g>
				<g transform="matrix(1,0,0,1,223.993,769.707)">
					<path class="st7" d="M-415.2-1426.1c0.1-3,4.7-4.6,5-1.1C-410-1423-413.5-1421.9-415.2-1426.1"/>
				</g>
			</g>
			<g id="RSMC-LINK-R">
				<g transform="matrix(1,0,0,1,1291.88,774.313)">
					<a xmlns="http://www.w3.org/2000/svg" class="link" href="https://rsmc.tech" target="_blank"><path class="st1" d="M-1128.9-685.5c-4.7-0.3-11.1,3.4-11,8.3c0.4,3.3,1.8,6.8,4.4,8.9c8.3,3.7,14.4-6.4,13-13.5
						C-1122.8-684-1127.1-685.7-1128.9-685.5 M-1143.3-677.5c-1.2-11.8,23-16.6,23.9-3.4c0.5,7-3.5,15.6-11,16.6
						c-2.1-0.3-4.2-0.5-6.2-1c-1.4-0.4-2.5-1.5-3.2-2.8C-1141.8-670.8-1143.4-673.9-1143.3-677.5"/>
				</a></g>
				<g transform="matrix(1,0,0,1,1269.24,770.073)">
					<a xmlns="http://www.w3.org/2000/svg" class="link" href="https://rsmc.tech" target="_blank"><path class="st1" d="M-1110.8-674.9c-0.1,2.5-0.8,3.3,1.9,2.5c1.1-0.3,2.4-0.4,2.7-1.8C-1107.9-675.2-1109-675.3-1110.8-674.9
						 M-1107.2-670.6c0.6,0.3,0.8,0.4,1.2,0.5c-0.3,1.6-1.1,3.2-1.4,4.8c-0.1,0,0.1,0,0,0c-0.4-2.3-0.3-4.5-3.2-5.2
						c0.2,1.6,0.5,5.1,0.3,5.1c-1.3-2.9-3.2-6-3.9-9.1c-0.3-1.3-0.6-1.6,0.6-2.2c2.7-1.8,11-2.5,9.9,2.5
						C-1103.9-672.1-1105.1-670.9-1107.2-670.6"/>
				</a></g>
			</g>
		</g>
	</g>
</g>
    <script type="application/ecmascript">
    <![CDATA[
        var currency = document.getElementById('currency');
        var layers = Array.from(currency.children);
        var currentLayerIndex = 0;

        function hideLayer(layer) {
            var path = layer.querySelector('path');
            path.style.fillOpacity = 0;
            path.style.fillRule = 'nonzero';
        }

        function showLayer(layer) {
            var path = layer.querySelector('path');
            path.style.fill = 'rgb(2,2,2)';
            path.style.fillOpacity = 100;
            path.style.fillRule = 'nonzero';
        }

    // Initially hide all layers except the first one
        layers.forEach((layer, index) => {
            if (index !== currentLayerIndex) {
                hideLayer(layer);
            } else {
                showLayer(layer);
            }
        });

        // Select all elements with the class "bills"
        var clickableAreas = document.querySelectorAll('.bills');

        // Add click event listener to each clickable area
        clickableAreas.forEach(function(area) {
            area.addEventListener('click', function() {
                // Hide current layer
                hideLayer(layers[currentLayerIndex]);

                // Move to next layer
                currentLayerIndex = (currentLayerIndex + 1) % layers.length;

                // Show next layer
                showLayer(layers[currentLayerIndex]);
            });
        });
    ]]>
    </script>
</svg>
