<?xml version="1.0" encoding="UTF-8" standalone="no"?>
<!DOCTYPE svg PUBLIC "-//W3C//DTD SVG 1.1//EN" "http://www.w3.org/Graphics/SVG/1.1/DTD/svg11.dtd">
<svg width="100%" height="100%" viewBox="0 0 378 215" version="1.1" xmlns="http://www.w3.org/2000/svg" xmlns:xlink="http://www.w3.org/1999/xlink" xml:space="preserve" xmlns:serif="http://www.serif.com/" style="fill-rule:evenodd;clip-rule:evenodd;stroke-linejoin:round;stroke-miterlimit:2;">
    <g transform="matrix(1,0,0,1,-15280.5,-11193.6)">
        <g id="FULL-TEXT-RSMC" transform="matrix(0.264662,0.0141253,-0.0141253,0.264662,15715.1,11030.1)">
            <g>
                <g transform="matrix(1,0,0,1,-669.248,701.797)">
                    <path d="M0,99.639C-6.417,99.779 -10.013,98.642 -19.527,93.41C-19.574,92.594 -19.9,91.56 -19.646,90.695C-10.854,60.73 -2.925,30.51 7.044,0.893C9.604,-6.712 13.46,-13.642 17.223,-21.148C23.554,-19.659 29.007,-16.284 35.59,-15.508C38.352,-6.82 39.374,2.074 41.007,10.826C42.65,19.632 44.519,28.412 45.719,37.28C46.917,46.143 46.362,55.215 48.742,64.103C51.075,63.427 50.428,61.186 50.85,59.728C56.019,41.856 61.059,23.946 66.117,6.042C67.014,2.868 67.446,-0.534 71.298,-2.94C77.827,-1.398 84.558,0.989 91.292,4.057C90.136,14.678 86.62,24.413 84.856,34.472C83.125,44.342 78.911,53.412 76.89,63.141C74.789,73.255 70.994,82.804 67.401,92.468C63.931,101.801 58.414,110.14 56.055,118.974C53.801,120.787 52.127,120.409 50.589,119.871C44.674,117.802 38.546,116.272 33.197,113.616C30.889,100.712 28.417,88.356 26.53,75.912C24.691,63.786 23.452,51.57 21.776,37.979C18.431,44.849 17.214,50.947 15.941,56.927C12.803,71.669 6.598,85.25 0.702,98.963C0.584,99.238 0.239,99.416 0,99.639" style="fill:white;fill-rule:nonzero;"/>
                </g>
                <g transform="matrix(1,0,0,1,-831.279,786.036)">
                    <path d="M0,-123.866C5.032,-124.33 9.949,-124.935 14.631,-124.046C21.53,-114.126 31.164,-97.121 35.636,-86.927C39.705,-92.822 39.313,-99.841 41.869,-105.797C44.467,-111.854 47.497,-117.725 50.427,-123.863C57.068,-125.095 63.587,-125.126 69.842,-124.171C70.503,-123.23 71.134,-122.728 71.224,-122.145C73.226,-109.026 76.49,-96.095 76.442,-82.676C76.408,-73.094 77.245,-63.507 77.183,-53.926C77.101,-41.331 76.809,-28.72 76.005,-16.155C75.693,-11.269 74.1,-6.437 74.719,-1.09C67.13,1.26 60.126,1.063 52.678,-0.764C50.973,-6.176 51.891,-11.514 51.59,-16.726C51.303,-21.709 51.098,-26.698 50.984,-31.687C50.862,-37.01 50.785,-42.339 50.882,-47.661C50.973,-52.612 52.715,-57.496 51.35,-63.638C47.173,-52.881 44.156,-42.821 41.693,-32.533C40.505,-31.358 39.201,-30.39 36.62,-31.448C33.291,-36.121 32.525,-42.615 29.478,-48.09C26.447,-53.535 24.022,-59.318 20.765,-64.83C19.73,-43.601 23.104,-22.365 19.122,-0.918C13.008,0.865 7.15,0.024 1.191,-0.079C-2.215,-4.781 -3.448,-9.716 -3.475,-15.216C-3.627,-47.17 -3.892,-79.123 -4.173,-111.077C-4.212,-115.484 -4.041,-119.743 0,-123.866" style="fill:white;fill-rule:nonzero;"/>
                </g>
                <g transform="matrix(1,0,0,1,-371.998,944.982)">
                    <path d="M0,29.431C8.95,38.558 17.555,47.333 26.155,56.103C31.628,53.008 39.673,44.755 48.882,32.775C48.861,29.808 46.141,28.498 44.612,26.457C43.222,24.601 41.482,23.009 39.935,21.267C38.189,19.301 36.485,17.299 34.829,15.39C35.273,11.784 38.048,10.12 39.813,7.827C41.419,5.74 43.301,3.864 45.436,1.476C56.716,13.53 67.54,25.097 78.429,36.734C78.477,36.953 78.64,37.293 78.591,37.599C78.543,37.905 78.335,38.231 78.106,38.458C65.12,51.347 52.159,64.262 39.108,77.085C35.56,80.571 31.737,83.778 28.54,86.663C25.867,87.041 24.625,85.946 23.504,84.683C18.869,79.462 13.648,74.776 9.561,69.045C8.034,66.903 5.994,65.115 4.12,63.234C-0.816,58.278 -5.637,53.248 -9.749,47.539C-11.869,44.595 -14.519,42.006 -17.095,39.421C-20.817,35.686 -24.674,32.088 -27.366,27.865C-26.801,24.931 -24.856,23.475 -23.301,21.79C-20.368,18.611 -17.502,15.336 -14.295,12.448C3.783,-3.833 20.799,-21.159 37.301,-39.022C42.711,-44.879 48.793,-50.118 54.624,-55.579C55.568,-56.463 56.803,-57.036 57.574,-57.538C59.44,-57.61 60.568,-57.051 61.519,-56.013C77.486,-38.583 93.467,-21.165 109.422,-3.724C110.739,-2.284 112.459,-1.071 112.724,1.841C103.439,10.144 94.619,19.516 86.529,30.071C82.46,28.302 80.404,24.792 77.702,22.089C75.127,19.513 72.767,16.722 70.65,14.396C70.521,11.432 72.296,10.277 73.669,8.878C76.905,5.581 80.76,2.877 83.013,-0.333C83.733,-2.602 82.965,-3.788 82.099,-4.739C75.375,-12.124 68.6,-19.463 61.793,-26.772C61.157,-27.456 60.198,-27.839 59.119,-28.536C49.676,-18.194 38.466,-9.8 28.931,0.277C19.457,10.288 8.257,18.627 0,29.431" style="fill:white;fill-rule:nonzero;"/>
                </g>
                <g transform="matrix(1,0,0,1,-415.891,813.977)">
                    <path d="M0,144.094C-4.553,140.044 -8.737,136.323 -13.242,132.316C-6.21,105.842 1.546,79.787 8.611,53.542C6.716,52.225 6.173,53.948 5.387,54.561C4.35,55.368 3.542,56.471 2.651,57.462C-10.482,72.074 -23.607,86.693 -36.755,101.292C-38.064,102.746 -39.035,104.61 -41.758,105.403C-44.438,104.263 -46.483,101.577 -48.945,99.483C-51.221,97.547 -53.398,95.495 -55.967,93.18C-55.59,89.866 -54.017,86.749 -51.688,84.654C-47.381,80.78 -44.573,75.891 -41.267,71.334C-36.784,65.155 -32.138,59.216 -26.656,53.779C-18.395,45.586 -10.952,36.567 -3.173,27.889C5.035,18.734 13.229,9.568 21.793,0C24.834,2.56 27.833,5.063 30.807,7.597C33.577,9.956 36.319,12.347 39.248,14.875C37.864,21.473 34.545,27.243 34.029,34.024C33.534,40.524 30.942,46.886 29.089,53.256C27.235,59.629 24.776,65.849 23.284,72.299C21.836,78.557 18.439,84.492 19.198,92.274C28.754,83.793 33.085,72.523 41.179,64.208C49.029,56.144 56.594,47.803 64.491,39.363C68.436,40.636 70.717,43.619 73.42,45.925C75.937,48.072 78.254,50.451 80.479,52.557C80.215,55.143 78.573,56.421 77.261,57.882C72.813,62.839 68.297,67.735 63.859,72.701C59.219,77.892 54.455,82.984 51.238,89.279C50.495,90.731 49.35,92.015 48.237,93.237C36.808,105.788 25.59,118.546 13.769,130.718C9.462,135.153 4.073,138.589 0,144.094" style="fill:white;fill-rule:nonzero;"/>
                </g>
                <g transform="matrix(1,0,0,1,-219.681,1155.78)">
                    <path d="M0,81.303C-14.985,84.222 -30.186,85.59 -45.301,87.537C-46.169,87.649 -47.128,87.061 -48.138,86.772C-48.467,85.748 -48.992,84.835 -49.025,83.904C-49.836,60.669 -54.013,37.719 -55.452,14.391C-47.771,10.559 -39.771,9.714 -32.057,8.114C-24.292,6.504 -16.338,5.806 -8.776,4.752C-6.173,2.49 -7.977,-0.692 -5.852,-3.641C-5.485,-3.893 -4.504,-4.959 -3.314,-5.309C0.216,-6.346 3.85,-6.32 6.704,-6.02C10.512,-4.236 9.989,-0.301 12.809,1.728C18.487,2.648 24.548,2.401 30.277,0.811C36.733,-0.981 43.194,-2.062 49.84,-2.321C53.788,-2.474 57.58,-4.284 62.07,-3.541C63.654,-0.641 63.996,2.625 64.345,5.885C66.326,24.396 68.372,42.902 70.213,61.427C70.524,64.561 71.965,68.075 68.468,71.287C55.431,72.039 42.246,75.701 28.101,76.434C27.233,69.005 29.948,62.242 27.938,55.575C34.351,52.022 40.625,51.763 46.253,51.688C47.082,50.983 47.417,50.811 47.566,50.538C47.713,50.27 47.746,49.888 47.703,49.573C46.508,41.033 45.298,32.496 44.195,24.702C42.255,21.899 39.747,21.739 37.422,20.615C31.546,22.075 25.461,23.587 18.801,25.242C20.933,33.915 19.446,42.074 18.667,49.92C17.42,51.872 15.707,52.038 14.07,51.947C10.131,51.728 6.238,52.048 2.272,53.159C-1.107,44.967 -0.774,36.379 -3.859,28.759C-5.601,27.054 -7.676,27.627 -9.596,27.819C-15.879,28.444 -22.155,29.147 -28.419,29.938C-30.091,30.149 -31.524,31.051 -32.764,33.261C-31.179,42.752 -31.476,53.069 -28.942,63.456C-21.313,64.611 -14.287,60.762 -6.887,62.04C-3.117,67.184 -1.968,70.338 0,81.303" style="fill:white;fill-rule:nonzero;"/>
                </g>
                <g transform="matrix(1,0,0,1,-213.945,1067.61)">
                    <path d="M0,62.416C-1.14,54.474 -1.348,47.804 -4.11,42.13C-3.291,39.431 -1.365,38.797 0.516,38.166C6.804,36.056 12.787,33.031 19.43,31.97C21.401,31.656 23.237,30.846 24.543,29.2C23.244,22.224 18.348,8.801 14.077,0.512C12.054,-0.516 10.201,0.387 8.44,1.235C2.752,3.977 -2.879,6.833 -8.548,9.613C-12.122,11.366 -15.679,12.973 -19.686,13.812C-24.2,14.757 -28.535,16.628 -32.886,18.26C-43.446,22.22 -53.975,26.263 -64.5,30.317C-65.373,30.653 -66.117,31.32 -66.839,31.78C-66.334,39.33 -61.815,52.59 -56.396,62.234C-47.397,60.94 -39.397,55.644 -30.089,53.829C-25.29,58.641 -22.733,64.8 -18.674,70.619C-23.602,74.442 -29.256,75.347 -34.313,77.461C-39.214,79.509 -44.259,81.231 -49.291,82.947C-54.59,84.754 -59.622,87.435 -64.908,88.193C-65.604,87.818 -65.906,87.691 -66.166,87.505C-66.431,87.316 -66.794,87.111 -66.875,86.842C-73.725,63.964 -82.779,41.852 -90.905,19.128C-83.147,13.836 -74.96,10.205 -66.686,6.786C-57.828,3.126 -48.733,0.077 -40.039,-4.034C-34.968,-6.433 -29.685,-8.341 -23.843,-8.639C-18.842,-8.894 -14.033,-10.941 -9.757,-13.384C0.144,-19.042 11.29,-21.263 21.105,-25.777C23.801,-24.694 24.243,-22.688 24.935,-20.831C32.48,-0.59 40.026,19.652 47.612,39.877C48.225,41.51 48.697,43.022 46.848,45.292C32.212,50.642 16.738,56.298 0,62.416" style="fill:white;fill-rule:nonzero;"/>
                </g>
                <g transform="matrix(1,0,0,1,-522.952,819.383)">
                    <path d="M0,-67.353C-10.365,-73.405 -20.723,-77.114 -30.279,-82.993C-27.122,-89.939 -24.133,-96.513 -21.106,-103.173C-18.353,-103.233 -16.417,-101.215 -14.138,-100.003C-7.386,-96.414 -0.798,-92.481 6.114,-89.234C17.239,-84.007 27.898,-77.851 39.352,-73.243C44.433,-71.198 48.825,-67.442 53.941,-64.203C51.142,-58.192 48.506,-52.532 46.094,-47.353C43.131,-46.2 41.548,-47.611 40.02,-48.8C35.502,-52.316 30.295,-54.554 25.165,-56.92C24.037,-57.44 22.645,-57.387 21.118,-57.64C15.533,-47.947 10.881,-38.02 6.517,-27.997C4.665,-23.744 2.904,-19.435 0.937,-15.222C-4.408,-3.773 -9.64,7.732 -15.161,19.095C-17.878,24.687 -21.135,30.017 -24.377,35.88C-31.536,33.265 -38.094,30.469 -43.648,26.712C-44.738,23.055 -42.802,20.877 -41.686,18.574C-31.533,-2.382 -21.269,-23.284 -11.073,-44.22C-7.447,-51.665 -3.919,-59.158 0,-67.353" style="fill:white;fill-rule:nonzero;"/>
                </g>
                <g transform="matrix(1,0,0,1,-252.274,1314.93)">
                    <path d="M0,-34.847C-2.103,-33.415 -2.415,-31.8 -2.391,-30.108C-2.263,-21.151 -2.577,-12.203 -2.197,-3.228C-1.822,5.635 -2.782,14.554 -3.15,23.294C-9.879,25.15 -12.107,25.169 -21.938,23.576C-22.133,23.371 -22.412,23.169 -22.564,22.895C-22.721,22.613 -22.817,22.265 -22.832,21.941C-22.911,20.288 -23.046,18.631 -22.995,16.981C-22.632,5.35 -22.29,-6.281 -21.82,-17.908C-21.272,-31.471 -20.6,-45.03 -20.014,-57.892C-18.231,-60.016 -16.544,-59.969 -14.904,-59.888C1.039,-59.1 17.018,-59.415 32.95,-58.031C41.222,-57.313 49.571,-57.514 57.88,-57.188C64.856,-56.915 71.823,-56.326 78.8,-56.159C86.435,-55.977 94.078,-56.118 102.463,-56.118C103.418,-55.561 103.438,-53.874 103.392,-52.216C103.229,-46.284 103.331,-40.332 102.733,-34.414C98.551,-32.595 95.18,-35.808 92.001,-34.943C89.283,-35.163 88.344,-32.951 86.066,-31.666C82.308,-31.843 78.01,-32.042 73.711,-32.248C67.068,-32.566 60.428,-32.94 53.782,-33.178C51.811,-33.249 49.657,-33.388 47.884,-32.715C44.609,-31.471 41.343,-31.732 38.046,-31.896C29.744,-32.308 21.439,-32.719 13.148,-33.307C8.862,-33.612 4.602,-34.295 0,-34.847" style="fill:white;fill-rule:nonzero;"/>
                </g>
                <g transform="matrix(1,0,0,1,-284.429,1348.37)">
                    <path d="M0,68.627C4.129,44.019 8.127,20.19 12.226,-4.237C32.838,-1.561 52.638,2.319 72.545,5.463C92.511,8.616 112.411,12.185 132.937,15.673C131.609,22.848 131.377,29.74 129.013,36.724C124.192,38.06 119.272,37.052 114.415,36.586C96.222,34.84 78.115,32.403 60.149,29.032C52.32,27.563 44.562,25.717 36.779,24.008C34.189,23.439 31.632,22.613 28.296,23.673C25.226,39.549 25.234,56.139 22.633,72.864C14.945,71.754 7.721,71.507 0,68.627" style="fill:white;fill-rule:nonzero;"/>
                </g>
                <g transform="matrix(1,0,0,1,-411.687,879.188)">
                    <path d="M0,-82.673C-4.652,-75.002 -8.703,-67.439 -14.165,-60.677C-28.166,-43.346 -42.543,-26.323 -55.991,-8.533C-60.546,-2.507 -66.026,2.943 -71.033,8.703C-72.946,10.904 -75.616,12.449 -78.259,14.545C-85.077,9.929 -91.334,4.656 -97.064,-0.711C-97.356,-4.089 -96.36,-6.784 -94.489,-8.535C-86.392,-16.112 -80.673,-25.555 -73.852,-34.125C-71.164,-37.502 -68.756,-41.061 -65.492,-44.004C-63.046,-46.209 -60.959,-48.906 -59.095,-51.644C-52.171,-61.819 -43.9,-70.852 -35.649,-79.919C-32.741,-83.114 -30.086,-86.537 -27.295,-89.839C-24.947,-92.618 -22.799,-95.635 -18.644,-97.218C-15.282,-95.728 -12.516,-92.837 -9.461,-90.382C-6.378,-87.904 -3.327,-85.387 0,-82.673" style="fill:white;fill-rule:nonzero;"/>
                </g>
                <g transform="matrix(1,0,0,1,-712.337,794.253)">
                    <path d="M0,-126.361C9.517,-126.045 17.65,-123.436 25.74,-121.516C26.675,-117.901 25.525,-115.029 24.925,-112.206C18.374,-81.383 11.788,-50.567 4.962,-19.804C3.537,-13.381 1.088,-7.185 -0.576,-1.885C-2.562,0 -3.96,-0.149 -5.182,-0.539C-11.484,-2.549 -17.749,-4.676 -23.638,-6.632C-25.83,-9.552 -24.708,-12.226 -24.174,-14.705C-18.659,-40.321 -13.019,-65.911 -7.448,-91.516C-4.988,-102.824 -2.608,-114.15 0,-126.361" style="fill:white;fill-rule:nonzero;"/>
                </g>
            </g>
            <g>
                <g transform="matrix(1,0,0,1,-1049.87,794.678)">
                    <path d="M0,-112.103C7.46,-114.283 15.414,-114.719 23.348,-115.75C25.961,-114.243 26.043,-111.42 26.608,-108.927C29.471,-96.294 32.231,-83.637 35.073,-70.998C35.354,-69.749 35.944,-68.569 36.347,-67.473C43.392,-67.329 57.612,-69.472 65.115,-71.777C65.436,-72.575 66.1,-73.48 66.091,-74.377C66.077,-75.672 65.755,-77.037 65.252,-78.241C61.094,-88.21 60.434,-98.887 58.815,-109.372C58.265,-112.936 57.621,-116.485 57.037,-119.939C62.119,-122.238 74.399,-124.627 81.278,-124.741C83.799,-122.888 82.997,-119.879 83.708,-117.431C89.928,-96.025 94.051,-74.141 97.745,-52.2C100.004,-38.782 102.389,-25.331 102.921,-11.68C103.079,-7.632 103.89,-3.805 106.121,0.271C96.061,2.814 86.315,3.737 76.336,4.946C76.478,2.239 76.82,0.032 76.64,-2.132C76.476,-4.092 75.716,-5.998 75.264,-7.939C72.479,-19.909 69.717,-31.884 66.916,-43.851C66.624,-45.097 66.13,-46.297 65.58,-47.973C56.816,-47.224 48.345,-46.565 40.534,-44.199C38.475,-42.112 39.118,-40.105 39.5,-38.182C42.536,-22.878 45.602,-7.58 48.579,7.319C47.65,9.71 45.847,9.505 44.263,9.743C37.699,10.726 31.134,11.702 24.851,12.638C22.065,11.225 22.03,8.622 21.559,6.489C16.045,-18.486 10.339,-43.426 5.368,-68.511C2.66,-82.177 1.248,-96.099 -0.698,-109.913C-0.777,-110.475 -0.331,-111.112 0,-112.103" style="fill:white;fill-rule:nonzero;"/>
                </g>
                <g transform="matrix(1,0,0,1,-1123.38,695.391)">
                    <path d="M0,139.096C-7.262,129.15 -14.593,110.764 -18.779,92.873C-18.101,92.295 -17.462,91.404 -16.606,91.076C-10.74,88.828 -4.829,86.698 1.166,84.495C8.146,94.083 7.903,106.342 14.586,115.948C25.949,112.151 36.946,108.598 48.101,103.885C47.044,98.778 44.389,94.566 42.557,90.07C40.808,85.778 38.817,81.584 36.837,77.132C25.983,75.764 15.347,76.523 4.772,76.019C-5.506,75.53 -15.786,75.089 -26.279,74.618C-32.767,58.529 -37.804,42.403 -43.357,27.139C-42.292,24.014 -39.926,24.08 -38.202,23.447C-27.287,19.44 -16.279,15.689 -5.348,11.723C3.052,8.675 11.431,5.557 19.72,2.225C23.244,0.808 26.644,0 30.467,1.188C39.243,13.857 43.597,28.488 48.371,42.571C47.648,44.833 45.988,45.375 44.435,45.797C39.341,47.182 34.206,48.416 28.664,49.815C22.109,42.86 21.924,33.165 17.147,25.052C11.303,25.363 6.205,28.73 0.695,30.609C-4.93,32.527 -10.839,33.819 -15.945,36.871C-16.899,40.737 -13.991,43.216 -13.089,46.296C-12.176,49.417 -11.285,52.731 -8.134,55.807C12.371,57.22 33.667,57.332 55.312,60.695C59.495,71.127 63.783,81.822 68.503,93.594C68.724,98.763 69.513,104.984 73.562,110.306C74.021,110.911 73.624,112.167 73.624,113.517C49.022,121.829 24.888,131.132 0,139.096" style="fill:white;fill-rule:nonzero;"/>
                </g>
                <g transform="matrix(1,0,0,1,-1445.51,1004.96)">
                    <path d="M0,6.774C19.082,-4.652 35.733,-18.661 54.975,-28.415C64.999,-22.322 74.892,-16.309 86.245,-9.409C87.596,-8.022 90.074,-5.329 92.719,-2.809C95.019,-0.618 99.577,-1.793 100.797,3.128C87.264,24.175 73.296,45.562 59.54,66.17C56.748,67.556 54.787,67.042 52.977,66.186C49.673,64.624 46.31,63.108 43.234,61.158C34.518,55.631 25.934,49.896 17.302,44.236C16.466,43.688 15.662,43.091 14.663,42.391C18.073,35.265 22.032,29.262 26.621,23.46C32.341,25.219 36.572,28.965 41.319,31.83C45.84,34.559 49.388,38.899 54.826,40.098C59.704,35.445 70.644,19.108 74.518,10.7C69.809,6.444 59.526,0.553 49.17,-3.72C40.834,1.635 32.717,7.973 24.341,13.93C15.935,19.908 7.587,25.969 -0.662,31.904C-7.473,29.097 -31.605,13.688 -44.441,4.008C-44.747,1.825 -43.291,0.349 -42.245,-1.267C-33.76,-14.375 -25.157,-27.399 -17.085,-40.781C-14.199,-45.565 -10.775,-50.113 -7.9,-54.966C-6.305,-57.657 -3.947,-59.36 -1.121,-60.782C13.505,-55.323 26.555,-47.188 38.67,-37.901C38.46,-36.648 38.557,-35.862 38.215,-35.4C34.672,-30.611 31.059,-25.873 27.257,-20.846C17.515,-22.135 11.713,-30.188 3.419,-33.249C-0.85,-29.6 -9.303,-17.033 -16.603,-3.375C-11.306,-0.137 -5.973,3.123 0,6.774" style="fill:white;fill-rule:nonzero;"/>
                </g>
                <g transform="matrix(1,0,0,1,-1217.68,855.141)">
                    <path d="M0,-87.428C-10.688,-82.615 -22.897,-74.974 -27.204,-70.438C-22.767,-61.9 -15.869,-54.967 -11.277,-46.43C-6.872,-38.242 -1.461,-30.597 3.482,-22.697C8.567,-14.57 12.865,-5.936 18.995,2.134C28.508,-3.22 37.611,-8.525 46.348,-14.378C38.489,-30.964 9.779,-77.964 0,-87.428M76.693,-12.71C61.026,-2.085 14.622,25.237 7.477,28.08C5.751,25.339 3.94,22.57 2.237,19.736C-8.054,2.611 -18.352,-14.511 -28.57,-31.679C-30.797,-35.42 -33.126,-39.038 -36.326,-42.03C-40.287,-45.733 -43.212,-50.265 -45.387,-55.098C-48.128,-61.19 -51.424,-66.927 -54.782,-72.661C-55.253,-73.466 -55.29,-74.526 -55.492,-75.324C-55.008,-76.044 -54.768,-76.765 -54.27,-77.081C-52.304,-78.33 -50.255,-79.448 -48.241,-80.62C-28.424,-92.148 -8.608,-103.677 11.729,-115.508C18.82,-103.732 25.668,-92.35 32.526,-80.974C39.575,-69.283 46.36,-57.422 53.767,-45.961C60.977,-34.804 68.828,-24.061 76.693,-12.71" style="fill:white;fill-rule:nonzero;"/>
                </g>
                <g transform="matrix(1,0,0,1,-1388.74,943.055)">
                    <path d="M0,-25.034C10.768,-34.179 17.453,-41.322 21.111,-47.605C18.781,-49.568 17.434,-52.679 14.152,-54.318C7.075,-46.782 0.315,-39.584 -6.52,-32.306C-4.971,-29.247 -3.355,-26.87 0,-25.034M17.649,-3.943C22.273,-8.473 26.693,-12.805 31.384,-17.403C49.207,2.203 58.056,20.791 69.45,43.823C66.011,48.182 62.507,52.059 58.664,55.036C55.713,54.892 54.688,53.005 53.588,51.447C49.383,45.489 45.21,39.503 41.232,33.393C39.249,30.349 37.476,27.117 36.03,23.787C33.62,18.237 33.394,17.193 29.884,12.349C29.358,11.623 28.364,11.237 27.547,10.665C22.3,12.957 20.833,19.048 16.005,21.549C13.118,20.884 11.857,18.365 10.212,16.362C4.09,8.907 -5.167,-2.445 -11.212,-9.964C-14.335,-13.85 -17.623,-17.548 -21.135,-21.117C-24.812,-24.854 -27.604,-29.461 -30.68,-33.55C-26.278,-39.803 5.371,-73.216 13.281,-80.07C13.913,-79.895 14.723,-79.911 15.149,-79.515C30.982,-64.793 46.779,-50.033 62.581,-35.279C74.488,-19.742 90.109,-7.71 103.243,7.282C100.201,12.357 95.611,15.608 91.305,19.85C87.783,18.574 85.248,15.891 82.425,13.792C79.77,11.818 77.377,9.472 74.987,7.167C62.528,-4.851 53.788,-13.522 42.423,-26.582C40.464,-28.833 38.477,-31.061 36.578,-33.215C29.875,-28.151 17.382,-15.277 13.117,-9.163C13.514,-8.413 13.823,-7.45 14.438,-6.758C15.292,-5.796 16.375,-5.037 17.649,-3.943" style="fill:white;fill-rule:nonzero;"/>
                </g>
                <g transform="matrix(1,0,0,1,-1350.11,859.344)">
                    <path d="M0,6.045C-4.18,1.899 -7.62,-3.356 -11.497,-7.871C-11.613,-10.144 -10.235,-11.115 -8.961,-12.132C11.572,-28.524 32.107,-44.914 52.657,-61.284C53.422,-61.893 54.355,-62.29 55.606,-63.016C60.826,-59.045 64.562,-53.704 68.662,-48.271C61.648,-40.525 52.406,-35.554 44.851,-27.84C51.382,-18.423 58.8,-9.951 65.76,-1.137C72.973,7.998 80.281,17.057 87.538,26.158C94.576,34.985 101.602,43.822 108.951,53.055C103.248,58.939 95.315,61.517 91.194,69.061C78.202,55.207 69.222,39.761 57.585,29.477C47.413,13.726 36.199,1.484 26.517,-11.137C23.386,-11.84 22,-10.144 20.488,-8.966C15.503,-5.083 10.622,-1.068 5.665,2.851C4.127,4.067 2.823,5.704 0,6.045" style="fill:white;fill-rule:nonzero;"/>
                </g>
                <g transform="matrix(1,0,0,1,-901.259,671.112)">
                    <path d="M0,120.552C-1.286,120.96 -2.495,121.57 -3.755,121.706C-10.354,122.417 -16.967,123.008 -23.539,123.637C-26.38,121.078 -27.649,118.116 -27.544,114.65C-27.239,104.579 -29.551,94.824 -30.975,84.96C-31.355,82.325 -31.929,79.661 -31.848,77.027C-31.56,67.638 -33.724,58.552 -34.881,49.339C-35.418,45.059 -35.46,40.718 -35.785,36.409C-36.431,27.833 -37.158,19.263 -37.77,10.684C-38.027,7.089 -38.539,3.428 -36.731,-0.419C-29.486,-1.325 -22.293,-2.224 -15.409,-3.085C-12.871,-2.072 -12.626,0.018 -12.05,1.891C-8.401,13.737 -7.326,26.028 -6.112,38.254C-4.404,55.462 -2.461,72.626 -0.163,89.769C0.843,97.28 0.585,105.006 1.42,112.62C1.691,115.1 0.546,117.735 0,120.552" style="fill:white;fill-rule:nonzero;"/>
                </g>
            </g>
            <g>
                <g transform="matrix(1,0,0,1,-1538.5,1470.41)">
                    <path d="M0,-22.329C-1.074,-16.395 1.103,-11.674 1.664,-6.774C2.417,-0.203 3.842,6.296 5.103,12.801C5.257,13.597 6.179,14.245 6.82,15.056C9.772,14.107 12.519,13.225 15.547,12.252C14.603,5.658 13.785,-0.558 12.803,-6.748C12.024,-11.656 11.104,-16.545 10.101,-21.411C9.923,-22.27 9.025,-22.981 8.469,-23.747C5.713,-23.286 3.128,-22.853 0,-22.329M108.129,-2.428C109.763,4.379 111.558,10.981 111.639,17.228C109.099,19.756 106.642,19.815 104.431,20.219C94.658,22.004 84.883,23.862 75.035,25.119C70.926,25.643 67.606,27.878 63.695,28.736C57.218,30.156 50.666,30.969 44.137,31.994C27.377,34.624 10.633,37.351 -6.125,39.993C-7.039,40.137 -8.019,39.863 -9.524,39.737C-14.329,14.288 -17.747,-11.346 -22.264,-37.4C-16.606,-39.355 -11.776,-42.694 -5.704,-43.579C-0.478,-44.34 4.611,-46.095 9.729,-47.52C13.239,-48.498 16.697,-49.664 19.886,-50.656C22.443,-49.604 22.86,-47.64 23.063,-45.631C23.364,-42.651 23.501,-39.654 23.796,-36.673C23.991,-34.697 24.227,-32.693 25.934,-31.092C27.437,-30.044 29.039,-30.779 30.495,-31.453C39.248,-35.503 48.112,-39.35 56.656,-43.806C69.044,-50.268 82.01,-55.414 94.685,-61.22C95.853,-61.754 97.146,-62.014 98.585,-62.466C102.309,-56.306 100.804,-49.288 103.176,-42.748C81.372,-25.364 55.56,-16.296 30.422,-5.243C30.231,-0.118 31.515,4.567 32.153,8.631C34.332,10.685 35.94,9.648 37.48,9.31C40.727,8.597 43.996,7.92 47.168,6.941C61.19,2.612 75.684,0.426 90.024,-2.412C95.822,-3.56 101.858,-3.681 108.129,-2.428" style="fill:white;fill-rule:nonzero;"/>
                </g>
                <g transform="matrix(1,0,0,1,-1542.05,1276.95)">
                    <path d="M0,-46.963C-0.89,-39.631 -1.723,-33.442 -2.37,-27.233C-2.917,-21.973 -3.249,-16.691 -3.671,-11.418C-3.698,-11.091 -3.756,-10.731 -3.652,-10.439C-3.548,-10.145 -3.26,-9.916 -2.7,-9.222C0.044,-9.021 3.171,-8.791 6.573,-8.541C8.062,-20.863 9.715,-32.832 10.188,-45.115C6.726,-45.743 3.856,-46.264 0,-46.963M-16.847,-66.544C-12.563,-67.38 -9.336,-68.042 -6.094,-68.625C-4.792,-68.86 -3.331,-69.341 -2.158,-68.989C5.787,-66.605 13.724,-68.749 21.658,-68.805C23.614,-68.819 25.571,-68.807 26.777,-68.807C29.15,-67.166 29.173,-65.491 28.942,-63.833C28.575,-61.202 27.963,-58.604 27.643,-55.969C27.33,-53.397 26.447,-50.771 27.982,-47.867C30.679,-46.563 33.655,-47.385 36.496,-47.906C47.282,-49.885 58.021,-52.117 68.807,-54.098C75.998,-55.419 83.232,-56.516 90.46,-57.631C93.069,-58.033 95.717,-57.865 98.294,-58.87C100.765,-59.833 103.444,-59.671 106.48,-58.983C107.799,-52.159 105.773,-45.813 104.917,-39.205C79.611,-28.367 52.682,-26.227 25.854,-22.155C24.545,-17.155 23.447,-12.431 23.711,-7.803C25.542,-5.74 27.61,-5.942 29.575,-5.913C36.233,-5.813 42.896,-5.583 49.549,-5.735C61.574,-6.011 73.47,-4.42 85.402,-3.442C89.341,-3.12 93.215,-1.886 97.086,-0.938C97.982,-0.718 98.747,0.04 99.866,0.732C99.597,5.964 99.353,11.243 99.032,16.518C98.952,17.822 98.62,19.11 98.463,20.05C96.726,22.055 94.841,22.378 92.753,22.016C82.266,20.202 71.548,20.912 61.043,18.997C57.202,18.297 53.12,18.797 49.154,18.938C37.453,19.352 26.016,16.739 14.41,15.988C3.135,15.258 -8.086,13.703 -19.331,12.511C-20.966,12.338 -22.673,12.401 -24.153,10.934C-24.311,10.186 -24.767,9.216 -24.673,8.303C-22.117,-16.476 -19.505,-41.249 -16.847,-66.544" style="fill:white;fill-rule:nonzero;"/>
                </g>
                <g transform="matrix(1,0,0,1,-1528.81,1200.11)">
                    <path d="M0,-102.986C13.082,-98.479 26.498,-96.102 39.659,-91.333C36.89,-84.525 32.163,-79.159 31.248,-72.305C23.52,-71.156 17.553,-74.601 10.87,-76.305C8.301,-67.185 5.881,-58.588 3.667,-50.729C4.129,-47.757 5.751,-46.506 6.959,-45.026C13.242,-42.149 20.008,-42.369 26.542,-40.747C28.234,-45.011 29.616,-49.054 31.424,-52.897C33.24,-56.755 34.881,-60.769 37.795,-64.278C43.413,-64.298 47.361,-59.473 52.419,-59.904C54.044,-58.022 53.582,-56.373 53.226,-54.78C51.709,-47.992 50.151,-41.214 48.509,-33.999C55.955,-30.165 63.908,-28.975 71.299,-26.255C72.737,-25.725 74.538,-26.179 75.984,-26.179C80.498,-35.085 85.125,-50.006 85.492,-57.108C82.229,-58.16 78.809,-59.274 75.381,-60.364C71.921,-61.464 68.454,-62.54 64.729,-63.708C63.236,-70.665 66.151,-76.933 66.048,-82.729C67.677,-84.601 69.062,-84.33 70.275,-83.971C83.336,-80.113 96.382,-76.206 109.417,-72.263C110.64,-71.893 111.761,-71.183 113.395,-70.411C112.394,-64.348 109.475,-59.092 107.778,-53.476C105.951,-47.43 103.88,-41.459 101.936,-35.448C100.094,-29.754 98.278,-24.051 96.451,-18.352C94.632,-12.679 92.813,-7.007 91.152,-1.825C88.901,0 86.883,-0.514 84.96,-0.849C71.526,-3.185 58.319,-6.467 45.295,-10.498C44.683,-10.687 43.979,-10.577 43.339,-10.606C40.66,-9.452 40.658,-6.037 38.079,-4.565C33.273,-2.855 29.352,-5.983 25.5,-6.993C22.843,-10.023 24.537,-13.352 23.219,-16.39C22.711,-16.857 22.1,-17.765 21.253,-18.139C15.788,-20.557 10.217,-22.596 4.2,-23.301C-1.663,-23.989 -17.845,-29.361 -23.911,-32.348C-24.799,-34.368 -24.017,-36.252 -23.374,-38.128C-16.155,-59.173 -10.435,-80.712 -2.395,-101.482C-2.207,-101.968 -1.319,-102.184 0,-102.986" style="fill:white;fill-rule:nonzero;"/>
                </g>
                <g transform="matrix(1,0,0,1,-1540.11,1374.64)">
                    <path d="M0,-32.065C-3.122,-31.645 -6.365,-33.133 -9.987,-31.614C-9.703,-23.155 -9.448,-14.919 -9.132,-6.685C-9.071,-5.079 -9.379,-3.359 -7.827,-1.509C-7.23,-0.757 -5.815,-0.902 -4.534,-0.806C-2.928,-0.687 -1.254,-0.367 0.196,-1.441C1.425,-7.906 1.336,-24.803 0,-32.065M45.333,3.087C42.533,8.464 46.623,13.761 44.941,18.966C43.662,20.934 41.581,20.596 39.628,20.414C31.679,19.672 23.705,19.098 15.801,18.014C8.192,16.971 -3.977,16.804 -11.653,16.75C-16.559,16.715 -21.455,15.399 -26.866,14.58C-28.654,7.709 -28.332,0.763 -28.556,-6.107C-28.795,-13.424 -28.91,-20.745 -28.983,-28.066C-29.053,-35.021 -28.998,-41.977 -28.998,-48.578C-27.422,-50.928 -25.292,-50.6 -23.364,-50.645C-11.715,-50.921 -0.063,-51.068 11.585,-51.393C17.903,-51.569 24.217,-51.958 30.527,-52.346C37.818,-52.794 45.075,-53.034 52.323,-51.644C54.571,-51.213 56.964,-51.366 59.279,-51.489C63.922,-51.738 68.551,-52.284 73.195,-52.457C77.798,-52.629 82.362,-51.581 87.036,-52.284C89.886,-52.713 93.021,-53.244 96.355,-50.9C97.972,-45.89 96.665,-40.359 97.061,-34.528C89.702,-32.799 82.938,-31.581 75.961,-31.566C61.986,-31.536 52.601,-31.377 38.638,-32.719C32.748,-33.285 26.759,-32.814 20.39,-32.814C18.792,-29.29 19.634,-25.637 19.605,-22.092C19.574,-18.433 19.541,-14.772 19.634,-11.115C19.726,-7.514 19.974,-3.918 20.123,-0.918C22.453,1.127 24.407,0.843 26.376,0.455C26.776,-0.055 27.499,-0.551 27.521,-1.077C27.66,-4.395 27.605,-7.721 27.69,-11.042C27.748,-13.324 27.154,-15.684 28.529,-18.152C29.219,-18.361 30.147,-18.937 31.02,-18.863C55.68,-16.779 74.79,-10.279 98.423,-2.165C99.545,3.19 99.317,8.407 99.051,13.241C97.528,15.227 95.732,15.079 94.199,14.736C81.617,11.925 68.6,11.197 56.453,6.195C51.65,4.216 50.875,3.142 45.333,3.087" style="fill:white;fill-rule:nonzero;"/>
                </g>
            </g>
        </g>
    </g>
</svg>
